SplineFontDB: 3.2
FontName: Loma-Oblique
FullName: Loma Oblique
FamilyName: Loma
Weight: Regular
Copyright: Copyright (c) NECTEC, 2003. All rights reserved.\nModified under GNU General Public License by TLWG.
Version: 001.002
ItalicAngle: -12
UnderlinePosition: -170
UnderlineWidth: 20
Ascent: 1638
Descent: 410
InvalidEm: 0
LayerCount: 3
Layer: 0 0 "Back" 1
Layer: 1 0 "Fore" 0
Layer: 2 1 "Quad" 0
FSType: 0
OS2Version: 4
OS2_WeightWidthSlopeOnly: 0
OS2_UseTypoMetrics: 1
CreationTime: 1153662347
ModificationTime: 1587809570
PfmFamily: 33
TTFWeight: 400
TTFWidth: 5
LineGap: 0
VLineGap: 0
Panose: 2 11 5 4 2 2 2 2 2 4
OS2TypoAscent: 2353
OS2TypoAOffset: 0
OS2TypoDescent: -902
OS2TypoDOffset: 0
OS2TypoLinegap: 0
OS2WinAscent: 0
OS2WinAOffset: 1
OS2WinDescent: 0
OS2WinDOffset: 1
HheadAscent: 0
HheadAOffset: 1
HheadDescent: 0
HheadDOffset: 1
OS2Vendor: 'PfEd'
Lookup: 4 0 1 "'liga' Standard Ligatures lookup 0" { "'liga' Standard Ligatures lookup 0"  } ['liga' ('latn' <'dflt' > ) ]
Lookup: 6 0 0 "'ccmp' Thai Tone Tilde Reordering" { "'ccmp' Thai Tone Tilde Reordering"  } ['ccmp' ('DFLT' <'dflt' > 'latn' <'dflt' > 'thai' <'KUY ' 'MLY ' 'PAL ' 'SAN ' 'THA ' 'dflt' > ) ]
Lookup: 6 0 0 "'ccmp' Thai Tone Macron Reordering" { "'ccmp' Thai Tone Macron Reordering"  } ['ccmp' ('DFLT' <'dflt' > 'latn' <'dflt' > 'thai' <'KUY ' 'MLY ' 'PAL ' 'SAN ' 'THA ' 'dflt' > ) ]
Lookup: 6 0 0 "'ccmp' Thai Below Vowel Macron Reordering" { "'ccmp' Thai Below Vowel Macron Reordering"  } ['ccmp' ('DFLT' <'dflt' > 'latn' <'dflt' > 'thai' <'KUY ' 'MLY ' 'PAL ' 'SAN ' 'THA ' 'dflt' > ) ]
Lookup: 4 0 0 "'ccmp' Patani Malay Ligatures" { "'ccmp' Patani Malay Ligatures"  } ['ccmp' ('DFLT' <'dflt' > 'thai' <'KUY ' 'MLY ' 'PAL ' 'SAN ' 'THA ' 'dflt' > ) ]
Lookup: 6 0 0 "'ccmp' Thai Conditional Descender Removal" { "'ccmp' Thai Conditional Descender Removal"  } ['ccmp' ('DFLT' <'dflt' > 'thai' <'KUY ' 'MLY ' 'THA ' 'dflt' > ) ]

StartChar: .notdef
Encoding: 65536 -1 0
Width: 1536
Flags: W
HStem: 0 32<295 1255> 1248 32<553 1513>
DStem2: 256 0 288.198 0 0.207912 0.978148<39.4093 1282.48> 1248.2 0 1280 0 0.207912 0.978148<32.7149 1275.78>
LayerCount: 3
Fore
SplineSet
256 0 m 1
 528 1280 l 1
 1552 1280 l 1
 1280 0 l 1
 256 0 l 1
295 32 m 1
 1255 32 l 1
 1513 1248 l 1
 553 1248 l 1
 295 32 l 1
EndSplineSet
Validated: 1
Layer: 2
SplineSet
256 0 m 1,0,-1
 528 1280 l 1,1,-1
 1552 1280 l 1,2,-1
 1280 0 l 1,3,-1
 256 0 l 1,0,-1
295 32 m 1,4,-1
 1255 32 l 1,5,-1
 1513 1248 l 1,6,-1
 553 1248 l 1,7,-1
 295 32 l 1,4,-1
EndSplineSet
EndChar

StartChar: uni0E47.high
Encoding: 63263 63263 1
Width: 0
Flags: W
HStem: 1792 123<-215.302 -107> 1871 149<-381.677 -258.811> 2061 59<-85.6952 7.20385> 2130 223<-179 71> 2130 118<-371.375 16.2642>
VStem: -584 148<1938.01 2073.27> -165 68<1963.13 2052.49> 9 91<1963.86 2060.12> 71 139<2302.35 2353>
AnchorPoint: "AboveMark" -176 2300 basemark 0
AnchorPoint: "AboveMark" -295 1740 mark 0
LayerCount: 3
Back
SplineSet
-35 2067 m 0x9f
 -65 2067 -94 2044 -102 2007 c 0
 -102.875 2003.12 -103.297 1999.42 -103.297 1995.91 c 0
 -103.297 1971.31 -82.625 1956 -52 1956 c 0
 -18 1956 7 1977 14 2009 c 0
 14.9327 2013.66 15.3861 2018.11 15.3861 2022.33 c 0
 15.3861 2049.72 -3.79687 2067 -35 2067 c 0x9f
-69 1917 m 1x3f
 -141.89 1917 -159.108 1957.24 -159.108 1991.04 c 0
 -159.108 1998.51 -158.267 2005.66 -157 2012 c 0
 -144 2073 -82 2114 -24 2114 c 0
 37 2114 82 2091 88 2051 c 0
 90.3723 2036.17 92.3928 2020.99 92.3928 2004.84 c 0
 92.3928 1993.75 91.4416 1982.21 89 1970 c 0
 69 1875 -9 1798 -106 1798 c 0x9f
 -273 1798 -277 1877 -347 1877 c 0x5f
 -384 1877 -389 1810 -400 1798 c 1x9f
 -527.602 1798 -578.388 1869.88 -578.388 1952.71 c 0
 -578.388 1968.55 -576.531 1984.79 -573 2001 c 0
 -553 2097 -472 2242 -167 2242 c 0
 -86 2242 20 2249 74 2347 c 1
 202 2347 l 1
 185 2266 65 2172 -23 2150 c 0
 -54 2141 -105 2136 -178 2136 c 0
 -355 2136 -423 2082 -441 1996 c 0
 -442.184 1990.08 -442.784 1983.88 -442.784 1977.75 c 0
 -442.784 1952.83 -432.868 1929 -412 1929 c 1
 -401 1965 -379 2014 -318 2014 c 0x5f
 -268 2014 -233 1949 -180 1925 c 0
 -161.176 1918.28 -131.957 1909.29 -105.104 1909.29 c 0
 -92.0142 1909.29 -79.4868 1911.43 -69 1917 c 1x3f
EndSplineSet
Fore
SplineSet
-51 1962 m 0x27
 -18 1962 9 1985 9 2022 c 0
 9 2046 -8 2061 -37 2061 c 0
 -63 2061 -97 2036 -97 1997 c 0
 -97 1975 -80 1962 -51 1962 c 0x27
100 2015 m 0
 100 1890 4 1792 -107 1792 c 0xa7
 -275 1792 -285 1871 -348 1871 c 0x67
 -379 1871 -380 1812 -398 1792 c 1
 -530 1792 -584 1865 -584 1952 c 0
 -584 2070 -498 2248 -166 2248 c 0xaf
 -81 2248 17 2258 71 2353 c 1
 210 2353 l 1
 191 2263 71 2168 -23 2144 c 0
 -55 2136 -106 2130 -179 2130 c 0
 -377 2130 -436 2052 -436 1979 c 0
 -436 1958 -428 1939 -415 1936 c 1
 -402 1973 -379 2020 -317 2020 c 0x7680
 -240 2020 -222 1916 -107 1915 c 1xa680
 -153 1927 -165 1959 -165 1988 c 0
 -165 2069 -88 2120 -23 2120 c 0
 61 2120 100 2081 100 2015 c 0
EndSplineSet
Validated: 1
Layer: 2
SplineSet
-51 1962 m 0,0,1
 -26 1962 -26 1962 -8.5 1978.5 c 128,-1,2
 9 1995 9 1995 9 2022 c 0,3,4
 9 2061 9 2061 -37 2061 c 0,5,6
 -58 2061 -58 2061 -77.5 2042.5 c 128,-1,7
 -97 2024 -97 2024 -97 1997 c 0,8,9
 -97 1962 -97 1962 -51 1962 c 0,0,1
100 2015 m 0,10,11
 100 1922 100 1922 38.5 1857 c 128,-1,12
 -23 1792 -23 1792 -107 1792 c 0,13,14
 -164 1792 -164 1792 -206.5 1804.5 c 128,-1,15
 -249 1817 -249 1817 -267.5 1831.5 c 128,-1,16
 -286 1846 -286 1846 -307 1858.5 c 128,-1,17
 -328 1871 -328 1871 -348 1871 c 0,18,19
 -362 1871 -362 1871 -370 1856 c 128,-1,20
 -378 1841 -378 1841 -384.5 1820 c 128,-1,21
 -391 1799 -391 1799 -398 1792 c 1,22,23
 -492 1792 -492 1792 -538 1837 c 128,-1,24
 -584 1882 -584 1882 -584 1952 c 0,25,26
 -584 1990 -584 1990 -573 2028 c 128,-1,27
 -562 2066 -562 2066 -532 2107 c 128,-1,28
 -502 2148 -502 2148 -457 2178.5 c 128,-1,29
 -412 2209 -412 2209 -336.5 2228.5 c 128,-1,30
 -261 2248 -261 2248 -166 2248 c 0,31,32
 -128 2248 -128 2248 -99.5 2251.5 c 128,-1,33
 -71 2255 -71 2255 -37 2265 c 128,-1,34
 -3 2275 -3 2275 24.5 2297 c 128,-1,35
 52 2319 52 2319 71 2353 c 1,36,-1
 210 2353 l 1,37,38
 196 2288 196 2288 123.5 2225.5 c 128,-1,39
 51 2163 51 2163 -23 2144 c 0,40,41
 -79 2130 -79 2130 -179 2130 c 0,42,43
 -315 2130 -315 2130 -375.5 2086.5 c 128,-1,44
 -436 2043 -436 2043 -436 1979 c 0,45,46
 -436 1941 -436 1941 -415 1936 c 1,47,48
 -409 1953 -409 1953 -402.5 1965.5 c 128,-1,49
 -396 1978 -396 1978 -385 1991.5 c 128,-1,50
 -374 2005 -374 2005 -356.5 2012.5 c 128,-1,51
 -339 2020 -339 2020 -317 2020 c 0,52,53
 -296 2020 -296 2020 -277 2009.5 c 128,-1,54
 -258 1999 -258 1999 -242.5 1983.5 c 128,-1,55
 -227 1968 -227 1968 -209 1952.5 c 128,-1,56
 -191 1937 -191 1937 -165 1926 c 128,-1,57
 -139 1915 -139 1915 -107 1915 c 1,58,59
 -165 1930 -165 1930 -165 1988 c 0,60,61
 -165 2045 -165 2045 -120.5 2082.5 c 128,-1,62
 -76 2120 -76 2120 -23 2120 c 0,63,64
 100 2120 100 2120 100 2015 c 0,10,11
EndSplineSet
EndChar

StartChar: uni0E4D.high
Encoding: 63262 63262 2
Width: 0
VWidth: 2561
Flags: W
HStem: 1726 72<61.3124 192.102> 1954 73<75.4104 212.343>
VStem: -17 71<1805.61 1931.21> 218 72<1823.97 1947.48>
AnchorPoint: "AboveMark" 180 2079 basemark 0
AnchorPoint: "AboveMark" 107 1740 mark 0
LayerCount: 3
Fore
SplineSet
-17 1843 m 0
 -17 1946 81 2027 169 2027 c 0
 240 2027 290 1977 290 1908 c 0
 290 1806 194 1726 105 1726 c 0
 36 1726 -17 1774 -17 1843 c 0
152 1954 m 0
 100 1954 54 1912 54 1860 c 0
 54 1825 82 1798 119 1798 c 0
 161 1798 218 1839 218 1891 c 0
 218 1928 190 1954 152 1954 c 0
EndSplineSet
Validated: 1
Layer: 2
SplineSet
-17 1843 m 0,0,1
 -17 1918 -17 1918 41.5 1972.5 c 128,-1,2
 100 2027 100 2027 169 2027 c 0,3,4
 222 2027 222 2027 256 1993.5 c 128,-1,5
 290 1960 290 1960 290 1908 c 0,6,7
 290 1834 290 1834 232 1780 c 128,-1,8
 174 1726 174 1726 105 1726 c 0,9,10
 53 1726 53 1726 18 1759 c 128,-1,11
 -17 1792 -17 1792 -17 1843 c 0,0,1
152 1954 m 0,12,13
 113 1954 113 1954 83.5 1926.5 c 128,-1,14
 54 1899 54 1899 54 1860 c 0,15,16
 54 1834 54 1834 72.5 1816 c 128,-1,17
 91 1798 91 1798 119 1798 c 0,18,19
 153 1798 153 1798 185.5 1826 c 128,-1,20
 218 1854 218 1854 218 1891 c 0,21,22
 218 1919 218 1919 199.5 1936.5 c 128,-1,23
 181 1954 181 1954 152 1954 c 0,12,13
EndSplineSet
EndChar

StartChar: exclam
Encoding: 33 33 5
Width: 569
Flags: W
HStem: 0 194<239 378> 1430 20G<501.743 686>
VStem: 320 92<365 416.062>
DStem2: 198 0 378 0 0.207912 0.978148<37.4241 198.285 653.448 1482.35>
LayerCount: 3
Fore
SplineSet
410 999 m 1
 506 1450 l 1
 686 1450 l 1
 590 999 l 1
 412 365 l 1
 320 365 l 1
 410 999 l 1
239 194 m 1
 419 194 l 1
 378 0 l 1
 198 0 l 1
 239 194 l 1
EndSplineSet
Validated: 1
Layer: 2
SplineSet
410 999 m 1,0,-1
 506 1450 l 1,1,-1
 686 1450 l 1,2,-1
 590 999 l 1,3,-1
 412 365 l 1,4,-1
 320 365 l 1,5,-1
 410 999 l 1,0,-1
239 194 m 1,6,-1
 419 194 l 1,7,-1
 378 0 l 1,8,-1
 198 0 l 1,9,-1
 239 194 l 1,6,-1
EndSplineSet
EndChar

StartChar: quotedbl
Encoding: 34 34 6
Width: 727
Flags: W
HStem: 947 503<414 442 747 773>
VStem: 357 570
LayerCount: 3
Fore
SplineSet
357 947 m 1
 365 1217 l 1
 414 1450 l 1
 594 1450 l 1
 545 1217 l 1
 442 947 l 1
 357 947 l 1
688 947 m 1
 698 1217 l 1
 747 1450 l 1
 927 1450 l 1
 878 1217 l 1
 773 947 l 1
 688 947 l 1
EndSplineSet
Validated: 1
Layer: 2
SplineSet
357 947 m 1,0,-1
 365 1217 l 1,1,-1
 414 1450 l 1,2,-1
 594 1450 l 1,3,-1
 545 1217 l 1,4,-1
 442 947 l 1,5,-1
 357 947 l 1,0,-1
688 947 m 1,6,-1
 698 1217 l 1,7,-1
 747 1450 l 1,8,-1
 927 1450 l 1,9,-1
 878 1217 l 1,10,-1
 773 947 l 1,11,-1
 688 947 l 1,6,-1
EndSplineSet
EndChar

StartChar: numbersign
Encoding: 35 35 7
Width: 1139
Flags: W
HStem: -10 21G<85 273.4 544 732.4> 390 170<140 253 505 712 964 1196> 900 170<248 467 719 926 1178 1304> 1450 20G<698.6 887 1157.6 1346>
DStem2: 85 -10 265 -10 0.387444 0.921893<69.74 433.848 688.206 986.926 1241.28 1605.39> 544 -10 724 -10 0.387444 0.921893<69.74 433.848 688.206 986.926 1241.28 1605.39>
LayerCount: 3
Fore
SplineSet
265 -10 m 1
 85 -10 l 1
 253 390 l 1
 104 390 l 1
 140 560 l 1
 325 560 l 1
 467 900 l 1
 212 900 l 1
 248 1070 l 1
 539 1070 l 1
 707 1470 l 1
 887 1470 l 1
 719 1070 l 1
 998 1070 l 1
 1166 1470 l 1
 1346 1470 l 1
 1178 1070 l 1
 1340 1070 l 1
 1304 900 l 1
 1106 900 l 1
 964 560 l 1
 1232 560 l 1
 1196 390 l 1
 892 390 l 1
 724 -10 l 1
 544 -10 l 1
 712 390 l 1
 433 390 l 1
 265 -10 l 1
926 900 m 1
 647 900 l 1
 505 560 l 1
 784 560 l 1
 926 900 l 1
EndSplineSet
Validated: 1
Layer: 2
SplineSet
265 -10 m 1,0,-1
 85 -10 l 1,1,-1
 253 390 l 1,2,-1
 104 390 l 1,3,-1
 140 560 l 1,4,-1
 325 560 l 1,5,-1
 467 900 l 1,6,-1
 212 900 l 1,7,-1
 248 1070 l 1,8,-1
 539 1070 l 1,9,-1
 707 1470 l 1,10,-1
 887 1470 l 1,11,-1
 719 1070 l 1,12,-1
 998 1070 l 1,13,-1
 1166 1470 l 1,14,-1
 1346 1470 l 1,15,-1
 1178 1070 l 1,16,-1
 1340 1070 l 1,17,-1
 1304 900 l 1,18,-1
 1106 900 l 1,19,-1
 964 560 l 1,20,-1
 1232 560 l 1,21,-1
 1196 390 l 1,22,-1
 892 390 l 1,23,-1
 724 -10 l 1,24,-1
 544 -10 l 1,25,-1
 712 390 l 1,26,-1
 433 390 l 1,27,-1
 265 -10 l 1,0,-1
926 900 m 1,28,-1
 647 900 l 1,29,-1
 505 560 l 1,30,-1
 784 560 l 1,31,-1
 926 900 l 1,28,-1
EndSplineSet
EndChar

StartChar: dollar
Encoding: 36 36 8
Width: 1139
Flags: W
HStem: 1062 21G<1054 1236>
VStem: 156 190<257.049 429> 319 185<895.363 1137.76> 953 186<310.011 564.394> 1055 184<1062 1186.46>
DStem2: 450 -106 630 -106 0.207912 0.978148<37.4241 103.367 319.66 788.841 963.205 1385.27 1599.6 1642.01>
LayerCount: 3
Fore
SplineSet
792 1500 m 1xa0
 972 1500 l 1
 955 1422 l 1
 1118 1396 1239 1296 1239 1126 c 3
 1239 1106 1238 1084 1234 1062 c 1
 1054 1062 l 1
 1054 1067 1055 1072 1055 1077 c 3xa8
 1055 1161 997 1221 918 1246 c 1
 823 799 l 1
 981 762 1139 689 1139 498 c 3
 1139 209 894 31 652 -4 c 1
 630 -106 l 1
 450 -106 l 1
 472 -5 l 1
 283 21 156 134 156 325 c 3
 156 357 159 392 167 429 c 1
 347 429 l 1
 347 421 346 414 346 406 c 3xd0
 346 281 407 198 509 170 c 1
 614 665 l 1
 474 700 319 776 319 961 c 3
 319 1242 559 1392 775 1423 c 1
 792 1500 l 1xa0
738 1249 m 1
 619 1223 504 1149 504 1004 c 3
 504 909 571 862 651 836 c 1
 738 1249 l 1
689 170 m 1
 821 201 953 293 953 453 c 3x90
 953 556 878 603 787 629 c 1
 689 170 l 1
EndSplineSet
Validated: 1
Layer: 2
SplineSet
792 1500 m 1,0,-1
 972 1500 l 1,1,-1
 955 1422 l 1,2,3
 1083 1402 1083 1402 1161 1325.5 c 128,-1,4
 1239 1249 1239 1249 1239 1126 c 0,5,6
 1239 1090 1239 1090 1234 1062 c 1,7,-1
 1054 1062 l 2,8,9
 1054 1064 1054 1064 1054.5 1069 c 128,-1,10
 1055 1074 1055 1074 1055 1077 c 0,11,12
 1055 1138 1055 1138 1017.5 1182.5 c 128,-1,13
 980 1227 980 1227 918 1246 c 1,14,-1
 823 799 l 1,15,16
 875 787 875 787 917 772 c 128,-1,17
 959 757 959 757 1002 732 c 128,-1,18
 1045 707 1045 707 1074 676 c 128,-1,19
 1103 645 1103 645 1121 599 c 128,-1,20
 1139 553 1139 553 1139 498 c 0,21,22
 1139 394 1139 394 1097.5 303.5 c 128,-1,23
 1056 213 1056 213 986 151 c 128,-1,24
 916 89 916 89 830.5 49 c 128,-1,25
 745 9 745 9 652 -4 c 1,26,-1
 630 -106 l 1,27,-1
 450 -106 l 1,28,-1
 472 -5 l 1,29,30
 326 15 326 15 241 100 c 128,-1,31
 156 185 156 185 156 325 c 0,32,33
 156 378 156 378 167 429 c 1,34,-1
 347 429 l 1,35,36
 347 425 347 425 346.5 417.5 c 128,-1,37
 346 410 346 410 346 406 c 0,38,39
 346 313 346 313 389 252 c 128,-1,40
 432 191 432 191 509 170 c 1,41,-1
 614 665 l 1,42,43
 319 739 319 739 319 961 c 0,44,45
 319 1062 319 1062 359.5 1146.5 c 128,-1,46
 400 1231 400 1231 467 1286.5 c 128,-1,47
 534 1342 534 1342 612.5 1376.5 c 128,-1,48
 691 1411 691 1411 775 1423 c 1,49,-1
 792 1500 l 1,0,-1
738 1249 m 1,50,51
 638 1227 638 1227 571 1166 c 128,-1,52
 504 1105 504 1105 504 1004 c 0,53,54
 504 884 504 884 651 836 c 1,55,-1
 738 1249 l 1,50,51
689 170 m 1,56,57
 759 187 759 187 816.5 221 c 128,-1,58
 874 255 874 255 913.5 316 c 128,-1,59
 953 377 953 377 953 453 c 0,60,61
 953 582 953 582 787 629 c 1,62,-1
 689 170 l 1,56,57
EndSplineSet
EndChar

StartChar: percent
Encoding: 37 37 9
Width: 1821
Flags: W
HStem: -50 170<1335.61 1494.98> -10 21G<456 650.364> 554 170<1406.93 1573.87> 717 170<550.882 709.922> 1321 170<617.079 789.159>
VStem: 341 185<906.47 1207.33> 810 183<1003.63 1305.79> 1125 185<139.47 440.334> 1594 183<236.222 539.063>
DStem2: 456 -10 636 -10 0.583335 0.812232<105 1847.99>
LayerCount: 3
Fore
SplineSet
1534 724 m 3xaf80
 1699 724 1777 612 1777 455 c 3
 1777 177 1599 -50 1369 -50 c 3
 1204 -50 1125 61 1125 218 c 3
 1125 495 1304 724 1534 724 c 3xaf80
1406 120 m 3
 1515 120 1594 283 1594 424 c 3
 1594 497 1569 554 1498 554 c 3
 1391 554 1310 401 1310 264 c 3
 1310 185 1341 120 1406 120 c 3
749 1491 m 3
 914 1491 993 1380 993 1223 c 3
 993 945 814 717 584 717 c 3x1f80
 419 717 341 828 341 985 c 3
 341 1262 519 1491 749 1491 c 3
621 887 m 3
 729 887 810 1050 810 1191 c 3
 810 1264 784 1321 713 1321 c 3
 605 1321 526 1168 526 1031 c 3
 526 952 556 887 621 887 c 3
1534 1491 m 1
 1714 1491 l 1
 636 -10 l 1
 456 -10 l 1x4f80
 1534 1491 l 1
EndSplineSet
Validated: 1
Layer: 2
SplineSet
1534 724 m 3,0,1
 1654 724 1654 724 1715.5 651 c 128,-1,2
 1777 578 1777 578 1777 455 c 0,3,4
 1777 318 1777 318 1723.5 202 c 128,-1,5
 1670 86 1670 86 1576 18 c 128,-1,6
 1482 -50 1482 -50 1369 -50 c 0,7,8
 1249 -50 1249 -50 1187 23 c 128,-1,9
 1125 96 1125 96 1125 218 c 0,10,11
 1125 427 1125 427 1244 575.5 c 128,-1,12
 1363 724 1363 724 1534 724 c 3,0,1
1406 120 m 3,13,14
 1484 120 1484 120 1539 216 c 128,-1,15
 1594 312 1594 312 1594 424 c 0,16,17
 1594 554 1594 554 1498 554 c 0,18,19
 1421 554 1421 554 1365.5 463 c 128,-1,20
 1310 372 1310 372 1310 264 c 0,21,22
 1310 201 1310 201 1334.5 160.5 c 128,-1,23
 1359 120 1359 120 1406 120 c 3,13,14
749 1491 m 3,24,25
 869 1491 869 1491 931 1418 c 128,-1,26
 993 1345 993 1345 993 1223 c 0,27,28
 993 1086 993 1086 939 969.5 c 128,-1,29
 885 853 885 853 791 785 c 128,-1,30
 697 717 697 717 584 717 c 0,31,32
 464 717 464 717 402.5 790 c 128,-1,33
 341 863 341 863 341 985 c 0,34,35
 341 1194 341 1194 459.5 1342.5 c 128,-1,36
 578 1491 578 1491 749 1491 c 3,24,25
621 887 m 3,37,38
 673 887 673 887 717.5 934 c 128,-1,39
 762 981 762 981 786 1050.5 c 128,-1,40
 810 1120 810 1120 810 1191 c 0,41,42
 810 1321 810 1321 713 1321 c 0,43,44
 635 1321 635 1321 580.5 1230 c 128,-1,45
 526 1139 526 1139 526 1031 c 0,46,47
 526 968 526 968 550 927.5 c 128,-1,48
 574 887 574 887 621 887 c 3,37,38
1534 1491 m 1,49,-1
 1714 1491 l 1,50,-1
 636 -10 l 1,51,-1
 456 -10 l 1,52,-1
 1534 1491 l 1,49,-1
EndSplineSet
EndChar

StartChar: ampersand
Encoding: 38 38 10
Width: 1366
Flags: W
HStem: -11 170<444.401 761.728> 1300 170<776.349 1005.63>
VStem: 166 187<247.61 512.551> 511 186<1034.21 1223.68> 1044 187<1074.22 1262.1>
DStem2: 875 821 684 725 0.515707 -0.856765<-366.154 -152.076 0 381.407>
LayerCount: 3
Fore
SplineSet
1011 179 m 1
 868 55 718 -11 551 -11 c 3
 315 -11 166 134 166 326 c 3
 166 550 341 725 615 842 c 1
 567 926 511 1004 511 1100 c 3
 511 1308 746 1470 949 1470 c 3
 1121 1470 1231 1359 1231 1223 c 3
 1231 1066 1092 925 875 821 c 1
 1068 492 l 1
 1110 549 1146 611 1179 690 c 1
 1359 649 l 1
 1299 522 1234 424 1162 341 c 1
 1212 261 1272 186 1345 123 c 1
 1194 -21 l 1
 1132 27 1071 96 1011 179 c 1
805 938 m 1
 940 1012 1044 1065 1044 1172 c 3
 1044 1240 983 1300 903 1300 c 3
 810 1300 697 1214 697 1144 c 3
 697 1086 769 994 805 938 c 1
684 725 m 1
 498 630 353 530 353 379 c 3
 353 277 424 159 589 159 c 3
 722 159 849 246 928 322 c 1
 684 725 l 1
EndSplineSet
Validated: 1
Layer: 2
SplineSet
1011 179 m 1,0,1
 792 -11 792 -11 551 -11 c 0,2,3
 377 -11 377 -11 271.5 84 c 128,-1,4
 166 179 166 179 166 326 c 0,5,6
 166 489 166 489 284.5 620 c 128,-1,7
 403 751 403 751 615 842 c 1,8,9
 611 850 611 850 587 889.5 c 128,-1,10
 563 929 563 929 556 943.5 c 128,-1,11
 549 958 549 958 535 989.5 c 128,-1,12
 521 1021 521 1021 516 1046.5 c 128,-1,13
 511 1072 511 1072 511 1100 c 0,14,15
 511 1200 511 1200 578.5 1287 c 128,-1,16
 646 1374 646 1374 746.5 1422 c 128,-1,17
 847 1470 847 1470 949 1470 c 0,18,19
 1075 1470 1075 1470 1153 1399 c 128,-1,20
 1231 1328 1231 1328 1231 1223 c 0,21,22
 1231 1108 1231 1108 1136.5 1004.5 c 128,-1,23
 1042 901 1042 901 875 821 c 1,24,-1
 1068 492 l 1,25,26
 1133 581 1133 581 1179 690 c 1,27,-1
 1359 649 l 1,28,29
 1275 471 1275 471 1162 341 c 1,30,31
 1244 211 1244 211 1345 123 c 1,32,-1
 1194 -21 l 1,33,34
 1107 47 1107 47 1011 179 c 1,0,1
805 938 m 1,35,36
 933.287288454 1008.3204396 933.287288454 1008.3204396 972.412027056 1040.37876126 c 0,37,38
 1044 1099.03705127 1044 1099.03705127 1044 1172 c 0,39,40
 1044 1224 1044 1224 1003 1262 c 128,-1,41
 962 1300 962 1300 903 1300 c 0,42,43
 833 1300 833 1300 765 1248.5 c 128,-1,44
 697 1197 697 1197 697 1144 c 0,45,46
 697 1124 697 1124 710 1093.5 c 128,-1,47
 723 1063 723 1063 736 1042.5 c 128,-1,48
 749 1022 749 1022 774.5 984 c 128,-1,49
 800 946 800 946 805 938 c 1,35,36
684 725 m 1,50,51
 607 686 607 686 552.5 651.5 c 128,-1,52
 498 617 498 617 450 574 c 128,-1,53
 402 531 402 531 377.5 482.5 c 128,-1,54
 353 434 353 434 353 379 c 0,55,56
 353 293 353 293 413.5 226 c 128,-1,57
 474 159 474 159 589 159 c 0,58,59
 680 159 680 159 769 206.5 c 128,-1,60
 858 254 858 254 928 322 c 1,61,-1
 684 725 l 1,50,51
EndSplineSet
EndChar

StartChar: quotesingle
Encoding: 39 39 11
Width: 391
Flags: W
HStem: 947 519<402 448>
VStem: 337 270
LayerCount: 3
Fore
SplineSet
337 947 m 1
 350 1221 l 1
 402 1466 l 1
 607 1466 l 1
 555 1221 l 1
 448 947 l 1
 337 947 l 1
EndSplineSet
Validated: 1
Layer: 2
SplineSet
337 947 m 1,0,-1
 350 1221 l 1,1,-1
 402 1466 l 1,2,-1
 607 1466 l 1,3,-1
 555 1221 l 1,4,-1
 448 947 l 1,5,-1
 337 947 l 1,0,-1
EndSplineSet
EndChar

StartChar: parenleft
Encoding: 40 40 12
Width: 682
Flags: W
VStem: 207 176<-92.7299 600.711>
LayerCount: 3
Fore
SplineSet
387 -431 m 1
 280 -240 207 -10 207 246 c 3
 207 790 504 1199 796 1491 c 1
 925 1491 l 1
 623 1110 383 774 383 211 c 3
 383 -3 428 -217 516 -431 c 1
 387 -431 l 1
EndSplineSet
Validated: 1
Layer: 2
SplineSet
387 -431 m 1,0,1
 207 -110 207 -110 207 246 c 0,2,3
 207 902 207 902 796 1491 c 1,4,-1
 925 1491 l 1,5,6
 850 1396 850 1396 799 1328.5 c 128,-1,7
 748 1261 748 1261 686 1170 c 128,-1,8
 624 1079 624 1079 584 1004 c 128,-1,9
 544 929 544 929 502 832.5 c 128,-1,10
 460 736 460 736 436.5 643.5 c 128,-1,11
 413 551 413 551 398 440 c 128,-1,12
 383 329 383 329 383 211 c 0,13,14
 383 -108 383 -108 516 -431 c 1,15,-1
 387 -431 l 1,0,1
EndSplineSet
EndChar

StartChar: parenright
Encoding: 41 41 13
Width: 682
Flags: W
VStem: 533 172<507.743 1163.81>
LayerCount: 3
Fore
SplineSet
111 -431 m 1
 -18 -431 l 1
 318 -29 533 394 533 885 c 3
 533 1100 476 1263 391 1491 c 1
 520 1491 l 1
 626 1306 705 1099 705 838 c 3
 705 315 422 -116 111 -431 c 1
EndSplineSet
Validated: 1
Layer: 2
SplineSet
111 -431 m 1,0,-1
 -18 -431 l 1,1,2
 249 -111 249 -111 391 211 c 128,-1,3
 533 533 533 533 533 885 c 0,4,5
 533 1032 533 1032 500 1160 c 128,-1,6
 467 1288 467 1288 391 1491 c 1,7,-1
 520 1491 l 1,8,9
 705 1168 705 1168 705 838 c 0,10,11
 705 171 705 171 111 -431 c 1,0,-1
EndSplineSet
EndChar

StartChar: asterisk
Encoding: 42 42 14
Width: 797
Flags: W
HStem: 1197 142<833.862 965.514>
VStem: 638 145<1339.72 1491>
LayerCount: 3
Fore
SplineSet
318 1197 m 1
 395 1339 l 1
 493 1302 563 1269 605 1242 c 1
 618 1363 629 1446 638 1491 c 1
 783 1491 l 1
 767 1425 741 1342 707 1243 c 1
 783 1278 869 1310 964 1339 c 1
 979 1197 l 1
 888 1169 802 1150 719 1141 c 1
 753 1106 795 1043 850 952 c 1
 712 867 l 1
 684 920 655 991 621 1082 c 1
 552 988 492 916 445 867 c 1
 345 952 l 1
 442 1047 512 1110 552 1141 c 1
 470 1158 391 1176 318 1197 c 1
EndSplineSet
Validated: 1
Layer: 2
SplineSet
318 1197 m 1,0,-1
 395 1339 l 1,1,2
 538 1285 538 1285 605 1242 c 1,3,4
 624.5 1423.5 624.5 1423.5 638 1491 c 1,5,-1
 783 1491 l 1,6,7
 761 1400 761 1400 707 1243 c 1,8,9
 820 1295 820 1295 964 1339 c 1,10,-1
 979 1197 l 1,11,12
 839 1154 839 1154 719 1141 c 1,13,14
 763 1095 763 1095 850 952 c 1,15,-1
 712 867 l 1,16,17
 676 936 676 936 621 1082 c 1,18,19
 522 948 522 948 445 867 c 1,20,-1
 345 952 l 1,21,22
 485 1089 485 1089 552 1141 c 1,23,24
 411 1170 411 1170 318 1197 c 1,0,-1
EndSplineSet
EndChar

StartChar: plus
Encoding: 43 43 15
Width: 1196
Flags: W
HStem: 638 170<286 644 860 1218>
DStem2: 558 237 738 237 0.207912 0.978148<37.4241 410.118 621.312 990.655>
LayerCount: 3
Fore
SplineSet
558 237 m 1
 644 638 l 1
 250 638 l 1
 286 808 l 1
 680 808 l 1
 764 1206 l 1
 944 1206 l 1
 860 808 l 1
 1254 808 l 1
 1218 638 l 1
 824 638 l 1
 738 237 l 1
 558 237 l 1
EndSplineSet
Validated: 1
Layer: 2
SplineSet
558 237 m 1,0,-1
 644 638 l 1,1,-1
 250 638 l 1,2,-1
 286 808 l 1,3,-1
 680 808 l 1,4,-1
 764 1206 l 1,5,-1
 944 1206 l 1,6,-1
 860 808 l 1,7,-1
 1254 808 l 1,8,-1
 1218 638 l 1,9,-1
 824 638 l 1,10,-1
 738 237 l 1,11,-1
 558 237 l 1,0,-1
EndSplineSet
EndChar

StartChar: comma
Encoding: 44 44 16
Width: 569
Flags: W
HStem: -290 495
VStem: 125 306
LayerCount: 3
Fore
SplineSet
182 0 m 1
 226 205 l 1
 431 205 l 1
 387 0 l 2
 353 -157 280 -241 158 -290 c 1
 125 -213 l 1
 214 -176 255 -117 284 0 c 1
 182 0 l 1
EndSplineSet
Validated: 1
Layer: 2
SplineSet
182 0 m 1,0,-1
 226 205 l 1,1,-1
 431 205 l 1,2,-1
 387 0 l 2,3,4
 362 -116 362 -116 306.5 -184 c 128,-1,5
 251 -252 251 -252 158 -290 c 1,6,-1
 125 -213 l 1,7,8
 191 -186 191 -186 226.5 -137.5 c 128,-1,9
 262 -89 262 -89 284 0 c 1,10,-1
 182 0 l 1,0,-1
EndSplineSet
EndChar

StartChar: hyphen
Encoding: 45 45 17
Width: 682
Flags: W
HStem: 446 170<196 713>
VStem: 160 589
LayerCount: 3
Fore
SplineSet
160 446 m 1
 196 616 l 1
 749 616 l 1
 713 446 l 1
 160 446 l 1
EndSplineSet
Validated: 1
Layer: 2
SplineSet
160 446 m 1,0,-1
 196 616 l 1,1,-1
 749 616 l 1,2,-1
 713 446 l 1,3,-1
 160 446 l 1,0,-1
EndSplineSet
EndChar

StartChar: period
Encoding: 46 46 18
Width: 569
Flags: W
HStem: 0 205<230 391>
VStem: 186 249
LayerCount: 3
Fore
SplineSet
186 0 m 1
 230 205 l 1
 435 205 l 1
 391 0 l 1
 186 0 l 1
EndSplineSet
Validated: 1
Layer: 2
SplineSet
186 0 m 1,0,-1
 230 205 l 1,1,-1
 435 205 l 1,2,-1
 391 0 l 1,3,-1
 186 0 l 1,0,-1
EndSplineSet
EndChar

StartChar: slash
Encoding: 47 47 19
Width: 595
Flags: W
HStem: -10 21G<-83 112.162> 1450 20G<805.824 1000>
DStem2: -83 -10 100 -10 0.520002 0.854165<95.1603 1732.69>
LayerCount: 3
Fore
SplineSet
-83 -10 m 1
 818 1470 l 1
 1000 1470 l 1
 100 -10 l 1
 -83 -10 l 1
EndSplineSet
Validated: 1
Layer: 2
SplineSet
-83 -10 m 1,0,-1
 818 1470 l 1,1,-1
 1000 1470 l 1,2,-1
 100 -10 l 1,3,-1
 -83 -10 l 1,0,-1
EndSplineSet
EndChar

StartChar: zero
Encoding: 48 48 20
Width: 1139
Flags: W
HStem: -10 170<470.32 739.679> 1300 170<695.358 967.403>
VStem: 201 186<249.245 754.629> 1049 185<702.838 1207.69>
LayerCount: 3
Fore
SplineSet
875 1470 m 3
 1114 1470 1234 1331 1234 1052 c 3
 1234 915 1165 -10 561 -10 c 3
 302 -10 201 147 201 402 c 3
 201 539 271 1470 875 1470 c 3
387 454 m 3
 387 261 458 160 597 160 c 3
 974 160 1049 889 1049 1005 c 3
 1049 1199 978 1300 837 1300 c 3
 460 1300 387 570 387 454 c 3
EndSplineSet
Validated: 1
Layer: 2
SplineSet
875 1470 m 3,0,1
 1234 1470 1234 1470 1234 1052 c 0,2,3
 1234 1013 1234 1013 1229 949.5 c 128,-1,4
 1224 886 1224 886 1206 782 c 128,-1,5
 1188 678 1188 678 1159.5 576 c 128,-1,6
 1131 474 1131 474 1079 365.5 c 128,-1,7
 1027 257 1027 257 959 176 c 128,-1,8
 891 95 891 95 788 42.5 c 128,-1,9
 685 -10 685 -10 561 -10 c 0,10,11
 201 -10 201 -10 201 402 c 0,12,13
 201 430 201 430 204 475 c 128,-1,14
 207 520 207 520 216.5 592 c 128,-1,15
 226 664 226 664 241 740 c 128,-1,16
 256 816 256 816 283 903.5 c 128,-1,17
 310 991 310 991 345 1070 c 128,-1,18
 380 1149 380 1149 432 1223 c 128,-1,19
 484 1297 484 1297 546 1351 c 128,-1,20
 608 1405 608 1405 693 1437.5 c 128,-1,21
 778 1470 778 1470 875 1470 c 3,0,1
387 454 m 3,22,23
 387 160 387 160 597 160 c 0,24,25
 674 160 674 160 740.5 201 c 128,-1,26
 807 242 807 242 852 307 c 128,-1,27
 897 372 897 372 933 456.5 c 128,-1,28
 969 541 969 541 990 623.5 c 128,-1,29
 1011 706 1011 706 1025 787 c 128,-1,30
 1039 868 1039 868 1044 921.5 c 128,-1,31
 1049 975 1049 975 1049 1005 c 0,32,33
 1049 1300 1049 1300 837 1300 c 0,34,35
 760 1300 760 1300 694 1259 c 128,-1,36
 628 1218 628 1218 583 1153 c 128,-1,37
 538 1088 538 1088 502 1003.5 c 128,-1,38
 466 919 466 919 445 836 c 128,-1,39
 424 753 424 753 410.5 672 c 128,-1,40
 397 591 397 591 392 537.5 c 128,-1,41
 387 484 387 484 387 454 c 3,22,23
EndSplineSet
EndChar

StartChar: one
Encoding: 49 49 21
Width: 1139
Flags: W
HStem: 0 21G<583 767.253> 1452 20G<852.5 1076>
VStem: 416 660
DStem2: 583 0 763 0 0.207912 0.978148<37.4241 1160.3 1397.88 1504.91>
LayerCount: 3
Fore
SplineSet
763 0 m 1
 583 0 l 1
 824 1135 l 1
 739 1033 567 937 416 907 c 1
 458 1104 l 1
 627 1175 809 1308 896 1472 c 1
 1076 1472 l 1
 763 0 l 1
EndSplineSet
Validated: 1
Layer: 2
SplineSet
763 0 m 1,0,-1
 583 0 l 1,1,-1
 824 1135 l 1,2,3
 760 1059 760 1059 644.5 994.5 c 128,-1,4
 529 930 529 930 416 907 c 1,5,-1
 458 1104 l 1,6,7
 594 1161 594 1161 714 1258 c 128,-1,8
 834 1355 834 1355 896 1472 c 1,9,-1
 1076 1472 l 1,10,-1
 763 0 l 1,0,-1
EndSplineSet
EndChar

StartChar: two
Encoding: 50 50 22
Width: 1139
Flags: W
HStem: 0 170<345 1031> 1300 170<662.411 1006.72>
VStem: 315 180<1030 1135.29> 1082 183<970.07 1227.45>
LayerCount: 3
Fore
SplineSet
1067 170 m 1
 1031 0 l 1
 62 0 l 1
 99 174 302 365 552 542 c 0
 806 722 1082 896 1082 1118 c 3
 1082 1234 981 1300 844 1300 c 3
 671 1300 535 1208 495 1030 c 1
 315 1030 l 1
 371 1292 607 1470 884 1470 c 3
 1110 1470 1265 1351 1265 1155 c 3
 1265 827 942 636 693 455 c 0
 571 366 444 295 345 170 c 1
 1067 170 l 1
EndSplineSet
Validated: 1
Layer: 2
SplineSet
1067 170 m 1,0,-1
 1031 0 l 1,1,-1
 62 0 l 1,2,3
 111 230 111 230 552 542 c 0,4,5
 761.953203496 690.785734761 761.953203496 690.785734761 803.522447322 722.948025456 c 0,6,7
 1000.76051127 875.551906718 1000.76051127 875.551906718 1055.97079831 1000.32701839 c 0,8,9
 1082 1059.15294962 1082 1059.15294962 1082 1118 c 0,10,11
 1082 1203 1082 1203 1015.5 1251.5 c 128,-1,12
 949 1300 949 1300 844 1300 c 0,13,14
 711 1300 711 1300 617.5 1230.5 c 128,-1,15
 524 1161 524 1161 495 1030 c 1,16,-1
 315 1030 l 1,17,18
 357 1226 357 1226 516 1348 c 128,-1,19
 675 1470 675 1470 884 1470 c 0,20,21
 1056 1470 1056 1470 1160.5 1385 c 128,-1,22
 1265 1300 1265 1300 1265 1155 c 0,23,24
 1265 1107 1265 1107 1255 1060 c 128,-1,25
 1245 1013 1245 1013 1230 974 c 128,-1,26
 1215 935 1215 935 1188 893 c 128,-1,27
 1161 851 1161 851 1136 819.5 c 128,-1,28
 1111 788 1111 788 1071.5 749.5 c 128,-1,29
 1032 711 1032 711 1002.5 685.5 c 128,-1,30
 973 660 973 660 926 624 c 128,-1,31
 879 588 879 588 849 566.5 c 128,-1,32
 819 545 819 545 769 509.5 c 128,-1,33
 719 474 719 474 693 455 c 0,34,35
 666 435 666 435 604 392 c 128,-1,36
 542 349 542 349 508 324 c 128,-1,37
 474 299 474 299 427 256.5 c 128,-1,38
 380 214 380 214 345 170 c 1,39,-1
 1067 170 l 1,0,-1
EndSplineSet
EndChar

StartChar: three
Encoding: 51 51 23
Width: 1139
Flags: W
HStem: -11 170<431.019 763.786> 701 149<622.656 849.41> 1061 21G<330 538> 1300 170<657.244 976.249>
VStem: 167 183<239.661 424> 330 180<1061 1152.39> 967 184<350.865 628.505> 1032 182<1008.17 1247.62>
LayerCount: 3
Fore
SplineSet
176 424 m 1xfa
 356 424 l 1
 352 404 350 384 350 366 c 3
 350 239 446 159 587 159 c 3
 769 159 967 304 967 503 c 3xfa
 967 629 871 701 725 701 c 3
 682 701 636 695 586 682 c 1
 622 852 l 1
 636 851 650 850 664 850 c 3
 838 850 1032 968 1032 1141 c 3
 1032 1242 949 1300 825 1300 c 3
 672 1300 566 1216 510 1061 c 1
 330 1061 l 1
 384 1289 612 1470 857 1470 c 3
 1061 1470 1214 1349 1214 1167 c 3xf5
 1214 994 1078 845 939 788 c 1
 1077 751 1151 671 1151 539 c 3
 1151 240 866 -11 550 -11 c 3
 322 -11 167 128 167 334 c 3
 167 363 170 393 176 424 c 1xfa
EndSplineSet
Validated: 1
Layer: 2
SplineSet
176 424 m 1,0,-1
 356 424 l 1,1,2
 350 394 350 394 350 366 c 0,3,4
 350 271 350 271 415 215 c 128,-1,5
 480 159 480 159 587 159 c 0,6,7
 679 159 679 159 765.5 202.5 c 128,-1,8
 852 246 852 246 909.5 326.5 c 128,-1,9
 967 407 967 407 967 503 c 0,10,11
 967 596 967 596 901.5 648.5 c 128,-1,12
 836 701 836 701 725 701 c 0,13,14
 659 701 659 701 586 682 c 1,15,-1
 622 852 l 1,16,17
 650 850 650 850 664 850 c 0,18,19
 752 850 752 850 836 886 c 128,-1,20
 920 922 920 922 976 990 c 128,-1,21
 1032 1058 1032 1058 1032 1141 c 0,22,23
 1032 1216 1032 1216 975.5 1258 c 128,-1,24
 919 1300 919 1300 825 1300 c 0,25,26
 596 1300 596 1300 510 1061 c 1,27,-1
 330 1061 l 1,28,29
 371 1233 371 1233 522.5 1351.5 c 128,-1,30
 674 1470 674 1470 857 1470 c 0,31,32
 1012 1470 1012 1470 1113 1386 c 128,-1,33
 1214 1302 1214 1302 1214 1167 c 0,34,35
 1214 1044 1214 1044 1132.5 939 c 128,-1,36
 1051 834 1051 834 939 788 c 1,37,38
 1151 731 1151 731 1151 539 c 0,39,40
 1151 393 1151 393 1067 265.5 c 128,-1,41
 983 138 983 138 844.5 63.5 c 128,-1,42
 706 -11 706 -11 550 -11 c 0,43,44
 379 -11 379 -11 273 84.5 c 128,-1,45
 167 180 167 180 167 334 c 0,46,47
 167 377.5 167 377.5 176 424 c 1,0,-1
EndSplineSet
EndChar

StartChar: four
Encoding: 52 52 24
Width: 1139
Flags: W
HStem: 0 21G<662 846.261> 352 170<362 737 953 1115> 1452 20G<957.358 1155>
DStem2: 137 522 362 522 0.661517 0.74993<148.841 950.284> 662 0 842 0 0.207912 0.978148<37.4241 359.901 571.095 1141.87>
LayerCount: 3
Fore
SplineSet
662 0 m 1
 737 352 l 1
 101 352 l 1
 137 522 l 1
 975 1472 l 1
 1155 1472 l 1
 953 522 l 1
 1151 522 l 1
 1115 352 l 1
 917 352 l 1
 842 0 l 1
 662 0 l 1
773 522 m 1
 899 1117 l 1
 362 522 l 1
 773 522 l 1
EndSplineSet
Validated: 1
Layer: 2
SplineSet
662 0 m 1,0,-1
 737 352 l 1,1,-1
 101 352 l 1,2,-1
 137 522 l 1,3,-1
 975 1472 l 1,4,-1
 1155 1472 l 1,5,-1
 953 522 l 1,6,-1
 1151 522 l 1,7,-1
 1115 352 l 1,8,-1
 917 352 l 1,9,-1
 842 0 l 1,10,-1
 662 0 l 1,0,-1
773 522 m 1,11,-1
 899 1117 l 1,12,-1
 362 522 l 1,13,-1
 773 522 l 1,11,-1
EndSplineSet
EndChar

StartChar: five
Encoding: 53 53 25
Width: 1139
Flags: W
HStem: -11 170<434.892 763.386> 816 170<578.068 897> 1280 170<691 1260>
VStem: 169 193<230.773 414> 992 187<403.665 726.167>
DStem2: 267 707 539 919 0.369017 0.929423<47.8209 124.696 297.41 689.022>
LayerCount: 3
Fore
SplineSet
173 414 m 1
 362 414 l 1
 362 394 l 2
 362 241 429 159 590 159 c 3
 796 159 992 331 992 582 c 3
 992 730 894 816 726 816 c 3
 627 816 536 772 452 685 c 1
 267 707 l 1
 562 1450 l 1
 1296 1450 l 1
 1260 1280 l 1
 691 1280 l 1
 539 919 l 1
 601 963 694 986 801 986 c 3
 1037 986 1179 848 1179 631 c 3
 1179 268 879 -11 554 -11 c 3
 304 -11 169 127 169 344 c 3
 169 366 170 390 173 414 c 1
EndSplineSet
Validated: 1
Layer: 2
SplineSet
173 414 m 1,0,-1
 362 414 l 1,1,-1
 362 394 l 2,2,3
 362 277 362 277 417 218 c 128,-1,4
 472 159 472 159 590 159 c 0,5,6
 750 159 750 159 871 279.5 c 128,-1,7
 992 400 992 400 992 582 c 0,8,9
 992 693 992 693 922 754.5 c 128,-1,10
 852 816 852 816 726 816 c 0,11,12
 578 816 578 816 452 685 c 1,13,-1
 267 707 l 1,14,-1
 562 1450 l 1,15,-1
 1296 1450 l 1,16,-1
 1260 1280 l 1,17,-1
 691 1280 l 1,18,-1
 539 919 l 1,19,20
 633 986 633 986 801 986 c 0,21,22
 977 986 977 986 1078 890.5 c 128,-1,23
 1179 795 1179 795 1179 631 c 0,24,25
 1179 498 1179 498 1127 378 c 128,-1,26
 1075 258 1075 258 989 173.5 c 128,-1,27
 903 89 903 89 788.5 39 c 128,-1,28
 674 -11 674 -11 554 -11 c 0,29,30
 369 -11 369 -11 269 84 c 128,-1,31
 169 179 169 179 169 344 c 0,32,33
 169 382 169 382 173 414 c 1,0,-1
EndSplineSet
EndChar

StartChar: six
Encoding: 54 54 26
Width: 1139
Flags: W
HStem: -11 170<483.301 776.334> 801 170<588.328 896.709> 1300 170<699.346 1010.45>
VStem: 192 207<241.906 586.748> 977 184<381.742 718.074> 1072 188<1094 1234.57>
LayerCount: 3
Fore
SplineSet
1252 1094 m 1xf4
 1072 1094 l 1xf4
 1067 1223 1012 1300 868 1300 c 3
 659 1300 518 1139 449 836 c 1
 544 928 649 971 800 971 c 3
 1021 971 1161 817 1161 602 c 3xf8
 1161 308 912 -11 584 -11 c 3
 300 -11 192 160 192 416 c 3
 192 558 270 1470 915 1470 c 3
 1112 1470 1260 1350 1260 1170 c 3
 1260 1146 1258 1120 1252 1094 c 1xf4
399 395 m 3
 399 259 473 159 619 159 c 3
 830 159 977 360 977 569 c 3xf8
 977 706 900 801 748 801 c 3
 555 801 399 622 399 395 c 3
EndSplineSet
Validated: 1
Layer: 2
SplineSet
1252 1094 m 1,0,-1
 1072 1094 l 1,1,2
 1068 1195 1068 1195 1020 1247.5 c 128,-1,3
 972 1300 972 1300 868 1300 c 0,4,5
 712 1300 712 1300 606.5 1182 c 128,-1,6
 501 1064 501 1064 449 836 c 1,7,8
 521 906 521 906 604.5 938.5 c 128,-1,9
 688 971 688 971 800 971 c 0,10,11
 964 971 964 971 1062.5 868 c 128,-1,12
 1161 765 1161 765 1161 602 c 0,13,14
 1161 515 1161 515 1133 426 c 128,-1,15
 1105 337 1105 337 1052 259 c 128,-1,16
 999 181 999 181 929 120.5 c 128,-1,17
 859 60 859 60 769.5 24.5 c 128,-1,18
 680 -11 680 -11 584 -11 c 0,19,20
 192 -11 192 -11 192 416 c 0,21,22
 192 456 192 456 198 519.5 c 128,-1,23
 204 583 204 583 223 686.5 c 128,-1,24
 242 790 242 790 273 891 c 128,-1,25
 304 992 304 992 360.5 1099 c 128,-1,26
 417 1206 417 1206 489.5 1286.5 c 128,-1,27
 562 1367 562 1367 672.5 1418.5 c 128,-1,28
 783 1470 783 1470 915 1470 c 0,29,30
 1065 1470 1065 1470 1162.5 1386.5 c 128,-1,31
 1260 1303 1260 1303 1260 1170 c 0,32,33
 1260 1129 1260 1129 1252 1094 c 1,0,-1
399 395 m 3,34,35
 399 289 399 289 456 224 c 128,-1,36
 513 159 513 159 619 159 c 0,37,38
 721 159 721 159 804.5 218 c 128,-1,39
 888 277 888 277 932.5 370.5 c 128,-1,40
 977 464 977 464 977 569 c 0,41,42
 977 675 977 675 918 738 c 128,-1,43
 859 801 859 801 748 801 c 0,44,45
 603 801 603 801 501 683 c 128,-1,46
 399 565 399 565 399 395 c 3,34,35
EndSplineSet
EndChar

StartChar: seven
Encoding: 55 55 27
Width: 1139
Flags: W
HStem: 0 21G<331 563> 1280 170<405 1105>
VStem: 331 180<0 153.948>
LayerCount: 3
Fore
SplineSet
1318 1280 m 1
 1001 977 615 491 511 0 c 1
 331 0 l 1
 429 462 819 1002 1105 1280 c 1
 369 1280 l 1
 405 1450 l 1
 1354 1450 l 1
 1318 1280 l 1
EndSplineSet
Validated: 1
Layer: 2
SplineSet
1318 1280 m 1,0,1
 1190 1158 1190 1158 1071 1018.5 c 128,-1,2
 952 879 952 879 836.5 713.5 c 128,-1,3
 721 548 721 548 634.5 362 c 128,-1,4
 548 176 548 176 511 0 c 1,5,-1
 331 0 l 1,6,7
 366 166 366 166 452 354 c 128,-1,8
 538 542 538 542 648.5 711 c 128,-1,9
 759 880 759 880 876 1025.5 c 128,-1,10
 993 1171 993 1171 1105 1280 c 1,11,-1
 369 1280 l 1,12,-1
 405 1450 l 1,13,-1
 1354 1450 l 1,14,-1
 1318 1280 l 1,0,1
EndSplineSet
EndChar

StartChar: eight
Encoding: 56 56 28
Width: 1139
Flags: W
HStem: -11 170<437.963 786.615> 693 181<615.687 886.094> 1300 170<672.011 994.154>
VStem: 164 185<247.015 533.816> 366 184<933.266 1190.4> 968 184<332.998 617.275> 1046 184<999.069 1246.92>
LayerCount: 3
Fore
SplineSet
532 799 m 1xfc
 421 843 366 918 366 1021 c 3
 366 1238 565 1470 875 1470 c 3
 1086 1470 1230 1356 1230 1173 c 3xfa
 1230 978 1108 857 943 799 c 1
 1076 748 1152 664 1152 528 c 3
 1152 263 937 -11 564 -11 c 3
 326 -11 164 122 164 335 c 3
 164 581 335 753 532 799 c 1xfc
550 1049 m 3
 550 943 629 874 753 874 c 3
 900 874 1046 977 1046 1140 c 3
 1046 1243 966 1300 841 1300 c 3
 695 1300 550 1220 550 1049 c 3
349 375 m 3
 349 242 453 159 602 159 c 3
 795 159 968 292 968 494 c 3xfc
 968 627 864 693 709 693 c 0
 525 693 349 584 349 375 c 3
EndSplineSet
Validated: 1
Layer: 2
SplineSet
532 799 m 1,0,1
 366 865 366 865 366 1021 c 0,2,3
 366 1103 366 1103 402.5 1183 c 128,-1,4
 439 1263 439 1263 503.5 1327 c 128,-1,5
 568 1391 568 1391 665.5 1430.5 c 128,-1,6
 763 1470 763 1470 875 1470 c 0,7,8
 1035 1470 1035 1470 1132.5 1389.5 c 128,-1,9
 1230 1309 1230 1309 1230 1173 c 0,10,11
 1230 1033 1230 1033 1152.5 939 c 128,-1,12
 1075 845 1075 845 943 799 c 1,13,14
 1152 719 1152 719 1152 528 c 0,15,16
 1152 427 1152 427 1112 331.5 c 128,-1,17
 1072 236 1072 236 999 159.5 c 128,-1,18
 926 83 926 83 812.5 36 c 128,-1,19
 699 -11 699 -11 564 -11 c 0,20,21
 384 -11 384 -11 274 83 c 128,-1,22
 164 177 164 177 164 335 c 0,23,24
 164 512 164 512 270 637.5 c 128,-1,25
 376 763 376 763 532 799 c 1,0,1
550 1049 m 3,26,27
 550 969 550 969 605 921.5 c 128,-1,28
 660 874 660 874 753 874 c 0,29,30
 869 874 869 874 957.5 948.5 c 128,-1,31
 1046 1023 1046 1023 1046 1140 c 0,32,33
 1046 1216 1046 1216 991 1258 c 128,-1,34
 936 1300 936 1300 841 1300 c 0,35,36
 765 1300 765 1300 700.5 1274 c 128,-1,37
 636 1248 636 1248 593 1189.5 c 128,-1,38
 550 1131 550 1131 550 1049 c 3,26,27
349 375 m 3,39,40
 349 276 349 276 419 217.5 c 128,-1,41
 489 159 489 159 602 159 c 0,42,43
 752 159 752 159 860 253 c 128,-1,44
 968 347 968 347 968 494 c 0,45,46
 968 591 968 591 898.5 642 c 128,-1,47
 829 693 829 693 709 693 c 0,48,49
 614 693 614 693 534 658 c 128,-1,50
 454 623 454 623 401.5 549 c 128,-1,51
 349 475 349 475 349 375 c 3,39,40
EndSplineSet
EndChar

StartChar: nine
Encoding: 57 57 29
Width: 1139
Flags: W
HStem: -11 170<457.553 764.507> 489 170<573.478 882.066> 1300 170<687.422 991.906>
VStem: 208 188<226.344 366> 308 184<743.116 1077.88> 1069 207<862.517 1218.83>
LayerCount: 3
Fore
SplineSet
216 366 m 1xf4
 396 366 l 1xf4
 401 237 456 159 600 159 c 3
 814 159 949 315 1020 624 c 1
 925 532 819 489 668 489 c 3
 455 489 308 643 308 861 c 3xec
 308 1172 570 1470 884 1470 c 3
 1161 1470 1276 1300 1276 1037 c 3
 1276 827 1162 -11 553 -11 c 3
 356 -11 208 111 208 291 c 3
 208 315 210 340 216 366 c 1xf4
1069 1067 m 3
 1069 1202 997 1300 851 1300 c 3
 652 1300 492 1126 492 893 c 3xec
 492 755 570 659 722 659 c 3
 921 659 1069 839 1069 1067 c 3
EndSplineSet
Validated: 1
Layer: 2
SplineSet
216 366 m 1,0,-1
 396 366 l 1,1,2
 400 265 400 265 448 212 c 128,-1,3
 496 159 496 159 600 159 c 0,4,5
 759 159 759 159 862.5 275 c 128,-1,6
 966 391 966 391 1020 624 c 1,7,8
 948 554 948 554 864 521.5 c 128,-1,9
 780 489 780 489 668 489 c 0,10,11
 509 489 509 489 408.5 593 c 128,-1,12
 308 697 308 697 308 861 c 0,13,14
 308 976 308 976 354.5 1087 c 128,-1,15
 401 1198 401 1198 478 1282.5 c 128,-1,16
 555 1367 555 1367 662 1418.5 c 128,-1,17
 769 1470 769 1470 884 1470 c 0,18,19
 1085 1470 1085 1470 1180.5 1356.5 c 128,-1,20
 1276 1243 1276 1243 1276 1037 c 0,21,22
 1276 985 1276 985 1268.5 912.5 c 128,-1,23
 1261 840 1261 840 1239 738 c 128,-1,24
 1217 636 1217 636 1183.5 536 c 128,-1,25
 1150 436 1150 436 1092.5 335.5 c 128,-1,26
 1035 235 1035 235 963 159.5 c 128,-1,27
 891 84 891 84 784.5 36.5 c 128,-1,28
 678 -11 678 -11 553 -11 c 0,29,30
 404 -11 404 -11 306 73 c 128,-1,31
 208 157 208 157 208 291 c 0,32,33
 208 331 208 331 216 366 c 1,0,-1
1069 1067 m 3,34,35
 1069 1172 1069 1172 1013 1236 c 128,-1,36
 957 1300 957 1300 851 1300 c 0,37,38
 701 1300 701 1300 596.5 1183 c 128,-1,39
 492 1066 492 1066 492 893 c 0,40,41
 492 786 492 786 551.5 722.5 c 128,-1,42
 611 659 611 659 722 659 c 0,43,44
 870 659 870 659 969.5 777 c 128,-1,45
 1069 895 1069 895 1069 1067 c 3,34,35
EndSplineSet
EndChar

StartChar: colon
Encoding: 58 58 30
Width: 569
Flags: W
HStem: 0 205<229 390> 857 205<411 572>
VStem: 185 431
DStem2: 185 0 390 0 0.207912 0.978148<42.6219 209.668 918.734 1085.78>
LayerCount: 3
Fore
SplineSet
367 857 m 1
 411 1062 l 1
 616 1062 l 1
 572 857 l 1
 367 857 l 1
185 0 m 1
 229 205 l 1
 434 205 l 1
 390 0 l 1
 185 0 l 1
EndSplineSet
Validated: 1
Layer: 2
SplineSet
367 857 m 1,0,-1
 411 1062 l 1,1,-1
 616 1062 l 1,2,-1
 572 857 l 1,3,-1
 367 857 l 1,0,-1
185 0 m 1,4,-1
 229 205 l 1,5,-1
 434 205 l 1,6,-1
 390 0 l 1,7,-1
 185 0 l 1,4,-1
EndSplineSet
EndChar

StartChar: semicolon
Encoding: 59 59 31
Width: 569
Flags: W
HStem: 857 205<408 569>
VStem: 125 488
DStem2: 120.359 -290 325.359 -290 0.207912 0.978148<317.849 506.147 1215.21 1382.26>
LayerCount: 3
Fore
SplineSet
364 857 m 1
 408 1062 l 1
 613 1062 l 1
 569 857 l 1
 364 857 l 1
182 0 m 1
 226 205 l 1
 431 205 l 1
 387 0 l 1
 356 -150 276 -245 158 -290 c 1
 125 -213 l 1
 212 -178 258 -110 284 0 c 1
 182 0 l 1
EndSplineSet
Validated: 1
Layer: 2
SplineSet
364 857 m 1,0,-1
 408 1062 l 1,1,-1
 613 1062 l 1,2,-1
 569 857 l 1,3,-1
 364 857 l 1,0,-1
182 0 m 1,4,-1
 226 205 l 1,5,-1
 431 205 l 1,6,-1
 387 0 l 2,7,8
 342 -220 342 -220 158 -290 c 1,9,-1
 125 -213 l 1,10,11
 189 -187 189 -187 226.5 -135.5 c 128,-1,12
 264 -84 264 -84 284 0 c 1,13,-1
 182 0 l 1,4,-1
EndSplineSet
EndChar

StartChar: less
Encoding: 60 60 32
Width: 1196
Flags: W
DStem2: 467 724 248 641 0.905028 -0.425353<0 771.017> 284 809 467 724 0.932434 0.36134<139.922 1034.55>
LayerCount: 3
Fore
SplineSet
248 641 m 1
 284 809 l 1
 1342 1219 l 1
 1304 1040 l 1
 467 724 l 1
 1169 405 l 1
 1131 226 l 1
 248 641 l 1
EndSplineSet
Validated: 1
Layer: 2
SplineSet
248 641 m 1,0,-1
 284 809 l 1,1,-1
 1342 1219 l 1,2,-1
 1304 1040 l 1,3,-1
 467 724 l 1,4,-1
 1169 405 l 1,5,-1
 1131 226 l 1,6,-1
 248 641 l 1,0,-1
EndSplineSet
EndChar

StartChar: equal
Encoding: 61 61 33
Width: 1196
Flags: W
HStem: 416 170<239 1170> 861 170<333 1265>
LayerCount: 3
Fore
SplineSet
1265 861 m 1
 297 861 l 1
 333 1031 l 1
 1301 1031 l 1
 1265 861 l 1
1170 416 m 1
 202 416 l 1
 239 586 l 1
 1207 586 l 1
 1170 416 l 1
EndSplineSet
Validated: 1
Layer: 2
SplineSet
1265 861 m 1,0,-1
 297 861 l 1,1,-1
 333 1031 l 1,2,-1
 1301 1031 l 1,3,-1
 1265 861 l 1,0,-1
1170 416 m 1,4,-1
 202 416 l 1,5,-1
 239 586 l 1,6,-1
 1207 586 l 1,7,-1
 1170 416 l 1,4,-1
EndSplineSet
EndChar

StartChar: greater
Encoding: 62 62 34
Width: 1196
Flags: W
DStem2: 198 405 160 226 0.931061 0.364863<0 895.69> 371 1219 333 1040 0.907177 -0.420749<40.8414 810.636>
LayerCount: 3
Fore
SplineSet
1219 641 m 1
 160 226 l 1
 198 405 l 1
 1035 724 l 1
 333 1040 l 1
 371 1219 l 1
 1255 809 l 1
 1219 641 l 1
EndSplineSet
Validated: 1
Layer: 2
SplineSet
1219 641 m 1,0,-1
 160 226 l 1,1,-1
 198 405 l 1,2,-1
 1035 724 l 1,3,-1
 333 1040 l 1,4,-1
 371 1219 l 1,5,-1
 1255 809 l 1,6,-1
 1219 641 l 1,0,-1
EndSplineSet
EndChar

StartChar: question
Encoding: 63 63 35
Width: 1139
Flags: W
HStem: 0 205<505 666> 1334 170<681.65 1011.62>
VStem: 312 185<1046 1139.18> 1096 187<993.774 1256.05>
DStem2: 461 0 666 0 0.207912 0.978148<42.6219 209.668 408.832 601.132>
LayerCount: 3
Fore
SplineSet
312 1046 m 1
 380 1302 600 1504 885 1504 c 3
 1123 1504 1283 1368 1283 1180 c 3
 1283 783 816 773 729 361 c 1
 549 361 l 1
 567 436 l 2
 655 803 1096 852 1096 1132 c 3
 1096 1233 1022 1334 852 1334 c 3
 675 1334 560 1222 497 1046 c 1
 312 1046 l 1
461 0 m 1
 505 205 l 1
 710 205 l 1
 666 0 l 1
 461 0 l 1
EndSplineSet
Validated: 1
Layer: 2
SplineSet
312 1046 m 1,0,1
 365 1244 365 1244 521 1374 c 128,-1,2
 677 1504 677 1504 885 1504 c 0,3,4
 1062 1504 1062 1504 1172.5 1413 c 128,-1,5
 1283 1322 1283 1322 1283 1180 c 0,6,7
 1283 1099 1283 1099 1257 1032 c 128,-1,8
 1231 965 1231 965 1188 915.5 c 128,-1,9
 1145 866 1145 866 1092.5 821.5 c 128,-1,10
 1040 777 1040 777 983.5 731 c 128,-1,11
 927 685 927 685 877 635 c 128,-1,12
 827 585 827 585 787 514.5 c 128,-1,13
 747 444 747 444 729 361 c 1,14,-1
 549 361 l 1,15,-1
 567 436 l 2,16,17
 585 510 585 510 624 575 c 128,-1,18
 663 640 663 640 710.5 686.5 c 128,-1,19
 758 733 758 733 812 775.5 c 128,-1,20
 866 818 866 818 916 856.5 c 128,-1,21
 966 895 966 895 1006.5 935 c 128,-1,22
 1047 975 1047 975 1071.5 1025 c 128,-1,23
 1096 1075 1096 1075 1096 1132 c 0,24,25
 1096 1215 1096 1215 1034 1274.5 c 128,-1,26
 972 1334 972 1334 852 1334 c 0,27,28
 600 1334 600 1334 497 1046 c 1,29,-1
 312 1046 l 1,0,1
461 0 m 1,30,-1
 505 205 l 1,31,-1
 710 205 l 1,32,-1
 666 0 l 1,33,-1
 461 0 l 1,30,-1
EndSplineSet
EndChar

StartChar: at
Encoding: 64 64 36
Width: 2079
Flags: W
HStem: -431 148<744.852 1384.89> -11 148<818.53 1052.9 1311.08 1558.38> 947 148<1080.42 1337.21> 1042 20G<1563.16 1752> 1345 148<1112.79 1637.94>
VStem: 185 185<48.5127 538.991> 584 182<191.134 559.898> 1393 7<212 751> 1944 183<635.599 1063.05>
LayerCount: 3
Fore
SplineSet
1352 -11 m 0xdf80
 1217 -11 1185 33 1185 94 c 3
 1185 103 1186 112 1187 121 c 1
 1098 38 985 -11 852 -11 c 3
 681 -11 584 127 584 320 c 3
 584 739 972 1095 1244 1095 c 3xef80
 1386 1095 1474 1035 1512 938 c 1
 1573 1062 l 1
 1752 1062 l 1
 1461 379 l 2
 1433 312 1400 261 1400 212 c 3
 1400 166 1431 137 1451 137 c 3
 1666 137 1944 559 1944 860 c 3
 1944 1161 1716 1345 1379 1345 c 3
 763 1345 370 773 370 274 c 3
 370 -88 614 -283 1060 -283 c 3
 1495 -283 1732 -87 1828 19 c 1
 2009 19 l 1
 1819 -253 1452 -431 1031 -431 c 3
 517 -431 185 -202 185 242 c 3
 185 817 667 1493 1419 1493 c 3
 1841 1493 2127 1256 2127 884 c 3
 2127 438 1724 -11 1352 -11 c 0xdf80
766 345 m 3
 766 221 821 137 920 137 c 3
 1150 137 1393 473 1393 751 c 3
 1393 902 1298 947 1225 947 c 3
 974 947 766 589 766 345 c 3
EndSplineSet
Validated: 1
Layer: 2
SplineSet
1352 -11 m 0,0,1
 1257 -11 1257 -11 1221 16 c 128,-1,2
 1185 43 1185 43 1185 94 c 0,3,4
 1185 103 1185 103 1187 121 c 1,5,6
 1045 -11 1045 -11 852 -11 c 0,7,8
 726 -11 726 -11 655 80.5 c 128,-1,9
 584 172 584 172 584 320 c 0,10,11
 584 441 584 441 626 560.5 c 128,-1,12
 668 680 668 680 738 774.5 c 128,-1,13
 808 869 808 869 893.5 942.5 c 128,-1,14
 979 1016 979 1016 1071 1055.5 c 128,-1,15
 1163 1095 1163 1095 1244 1095 c 0,16,17
 1450 1095 1450 1095 1512 938 c 1,18,-1
 1573 1062 l 1,19,-1
 1752 1062 l 1,20,-1
 1461 379 l 2,21,22
 1454 362 1454 362 1434.5 321.5 c 128,-1,23
 1415 281 1415 281 1407.5 257.5 c 128,-1,24
 1400 234 1400 234 1400 212 c 0,25,26
 1400 180 1400 180 1417 158.5 c 128,-1,27
 1434 137 1434 137 1451 137 c 0,28,29
 1529 137 1529 137 1618.5 208 c 128,-1,30
 1708 279 1708 279 1778.5 385 c 128,-1,31
 1849 491 1849 491 1896.5 620.5 c 128,-1,32
 1944 750 1944 750 1944 860 c 0,33,34
 1944 1084 1944 1084 1789 1214.5 c 128,-1,35
 1634 1345 1634 1345 1379 1345 c 0,36,37
 1200 1345 1200 1345 1038.5 1282 c 128,-1,38
 877 1219 877 1219 757 1111.5 c 128,-1,39
 637 1004 637 1004 548.5 866.5 c 128,-1,40
 460 729 460 729 415 576.5 c 128,-1,41
 370 424 370 424 370 274 c 0,42,43
 370 3 370 3 547.5 -140 c 128,-1,44
 725 -283 725 -283 1060 -283 c 0,45,46
 1184 -283 1184 -283 1297.5 -261 c 128,-1,47
 1411 -239 1411 -239 1490.5 -207.5 c 128,-1,48
 1570 -176 1570 -176 1641 -132.5 c 128,-1,49
 1712 -89 1712 -89 1753 -53.5 c 128,-1,50
 1794 -18 1794 -18 1828 19 c 1,51,-1
 2009 19 l 1,52,53
 1865 -187 1865 -187 1604 -309 c 128,-1,54
 1343 -431 1343 -431 1031 -431 c 0,55,56
 772 -431 772 -431 583.5 -356 c 128,-1,57
 395 -281 395 -281 290 -128.5 c 128,-1,58
 185 24 185 24 185 242 c 0,59,60
 185 386 185 386 224.5 534.5 c 128,-1,61
 264 683 264 683 337 822 c 128,-1,62
 410 961 410 961 520.5 1083 c 128,-1,63
 631 1205 631 1205 764.5 1296.5 c 128,-1,64
 898 1388 898 1388 1067 1440.5 c 128,-1,65
 1236 1493 1236 1493 1419 1493 c 0,66,67
 1737 1493 1737 1493 1932 1327 c 128,-1,68
 2127 1161 2127 1161 2127 884 c 0,69,70
 2127 721 2127 721 2057.5 556.5 c 128,-1,71
 1988 392 1988 392 1879.5 268.5 c 128,-1,72
 1771 145 1771 145 1629.5 67 c 128,-1,73
 1488 -11 1488 -11 1352 -11 c 0,0,1
766 345 m 3,74,75
 766 250 766 250 806.5 193.5 c 128,-1,76
 847 137 847 137 920 137 c 0,77,78
 1031 137 1031 137 1142.5 232 c 128,-1,79
 1254 327 1254 327 1323.5 470.5 c 128,-1,80
 1393 614 1393 614 1393 751 c 0,81,82
 1393 805 1393 805 1377.5 845 c 128,-1,83
 1362 885 1362 885 1336 906 c 128,-1,84
 1310 927 1310 927 1282.5 937 c 128,-1,85
 1255 947 1255 947 1225 947 c 0,86,87
 1135 947 1135 947 1048 887 c 128,-1,88
 961 827 961 827 900.5 737.5 c 128,-1,89
 840 648 840 648 803 542 c 128,-1,90
 766 436 766 436 766 345 c 3,74,75
EndSplineSet
EndChar

StartChar: A
Encoding: 65 65 37
Width: 1366
Flags: W
HStem: 0 21G<1 218.201 1155.27 1364> 477 170<602 1039> 1430 20G<875.766 1096.74>
DStem2: 1 0 206 0 0.521831 0.853049<106.975 665.732 865.543 1505.6> 1093 1450 936 1193 0.183715 -0.982979<223.782 779.412 952.214 1437.45>
LayerCount: 3
Fore
SplineSet
1364 0 m 1
 1159 0 l 1
 1070 477 l 1
 497 477 l 1
 206 0 l 1
 1 0 l 1
 888 1450 l 1
 1093 1450 l 1
 1364 0 l 1
936 1193 m 1
 602 647 l 1
 1039 647 l 1
 936 1193 l 1
EndSplineSet
Validated: 1
Layer: 2
SplineSet
1364 0 m 1,0,-1
 1159 0 l 1,1,-1
 1070 477 l 1,2,-1
 497 477 l 1,3,-1
 206 0 l 1,4,-1
 1 0 l 1,5,-1
 888 1450 l 1,6,-1
 1093 1450 l 1,7,-1
 1364 0 l 1,0,-1
936 1193 m 1,8,-1
 602 647 l 1,9,-1
 1039 647 l 1,10,-1
 936 1193 l 1,8,-1
EndSplineSet
EndChar

StartChar: B
Encoding: 66 66 38
Width: 1366
Flags: W
HStem: 0 170<380 999.19> 671 170<523 1084.25> 1280 170<616 1177.59>
VStem: 1173 183<314.921 592.406> 1237 188<984.973 1222.47>
DStem2: 164 0 343.865 0 0.207912 0.978148<211.194 723.492 897.262 1346.01>
LayerCount: 3
Fore
SplineSet
1145 772 m 1xe8
 1301 723 1356 618 1356 504 c 3xf0
 1356 216 1122 0 709 0 c 2
 164 0 l 1
 472 1450 l 1
 1017 1450 l 2
 1269 1450 1425 1349 1425 1164 c 3
 1425 1040 1362 869 1145 772 c 1xe8
523 841 m 1
 862 841 l 2
 1082 841 1237 923 1237 1117 c 3xe8
 1237 1256 1102 1280 981 1280 c 2
 616 1280 l 1
 523 841 l 1
380 170 m 1
 745 170 l 2
 1064 170 1173 299 1173 479 c 3xf0
 1173 617 1052 671 826 671 c 2
 487 671 l 1
 380 170 l 1
EndSplineSet
Validated: 1
Layer: 2
SplineSet
1145 772 m 1,0,1
 1256 737 1256 737 1306 666.5 c 128,-1,2
 1356 596 1356 596 1356 504 c 0,3,4
 1356 282 1356 282 1183.5 141 c 128,-1,5
 1011 0 1011 0 709 0 c 2,6,-1
 164 0 l 1,7,-1
 472 1450 l 1,8,-1
 1017 1450 l 2,9,10
 1208 1450 1208 1450 1316.5 1375.5 c 128,-1,11
 1425 1301 1425 1301 1425 1164 c 0,12,13
 1425 1114 1425 1114 1411 1063.5 c 128,-1,14
 1397 1013 1397 1013 1367 959 c 128,-1,15
 1337 905 1337 905 1280 856 c 128,-1,16
 1223 807 1223 807 1145 772 c 1,0,1
523 841 m 1,17,-1
 862 841 l 2,18,19
 1035 841 1035 841 1136 909 c 128,-1,20
 1237 977 1237 977 1237 1117 c 0,21,22
 1237 1280 1237 1280 981 1280 c 2,23,-1
 616 1280 l 1,24,-1
 523 841 l 1,17,-1
380 170 m 1,25,-1
 745 170 l 2,26,27
 1173 170 1173 170 1173 479 c 0,28,29
 1173 580 1173 580 1086.5 625.5 c 128,-1,30
 1000 671 1000 671 826 671 c 2,31,-1
 487 671 l 1,32,-1
 380 170 l 1,25,-1
EndSplineSet
EndChar

StartChar: C
Encoding: 67 67 39
Width: 1479
Flags: W
HStem: -11 170<622.198 1037.25> 1300 170<854.832 1265.32>
VStem: 235 189<369.09 818.082> 1311 188<396.134 476> 1407 188<1046 1169.64>
LayerCount: 3
Fore
SplineSet
822 159 m 3xe8
 1058 159 1256 299 1311 476 c 1
 1499 476 l 1xf0
 1330 116 1052 -11 789 -11 c 3
 448 -11 235 178 235 523 c 3
 235 1013 591 1470 1106 1470 c 3
 1453 1470 1578 1259 1595 1046 c 1
 1407 1046 l 1
 1387 1245 1211 1300 1066 1300 c 3
 696 1300 424 950 424 592 c 3
 424 388 512 159 822 159 c 3xe8
EndSplineSet
Validated: 1
Layer: 2
SplineSet
822 159 m 3,0,1
 996 159 996 159 1132.5 250 c 128,-1,2
 1269 341 1269 341 1311 476 c 1,3,-1
 1499 476 l 1,4,5
 1438 345 1438 345 1355 248.5 c 128,-1,6
 1272 152 1272 152 1178.5 96.5 c 128,-1,7
 1085 41 1085 41 988.5 15 c 128,-1,8
 892 -11 892 -11 789 -11 c 0,9,10
 530 -11 530 -11 382.5 128 c 128,-1,11
 235 267 235 267 235 523 c 0,12,13
 235 669 235 669 275.5 809.5 c 128,-1,14
 316 950 316 950 394 1068.5 c 128,-1,15
 472 1187 472 1187 576.5 1277.5 c 128,-1,16
 681 1368 681 1368 818 1419 c 128,-1,17
 955 1470 955 1470 1106 1470 c 0,18,19
 1207 1470 1207 1470 1288.5 1446 c 128,-1,20
 1370 1422 1370 1422 1423.5 1382.5 c 128,-1,21
 1477 1343 1477 1343 1515 1287 c 128,-1,22
 1553 1231 1553 1231 1571.5 1172 c 128,-1,23
 1590 1113 1590 1113 1595 1046 c 1,24,-1
 1407 1046 l 1,25,26
 1400 1117 1400 1117 1366.5 1169 c 128,-1,27
 1333 1221 1333 1221 1282.5 1248 c 128,-1,28
 1232 1275 1232 1275 1178.5 1287.5 c 128,-1,29
 1125 1300 1125 1300 1066 1300 c 0,30,31
 931 1300 931 1300 810 1239.5 c 128,-1,32
 689 1179 689 1179 605.5 1080.5 c 128,-1,33
 522 982 522 982 473 853.5 c 128,-1,34
 424 725 424 725 424 592 c 0,35,36
 424 527 424 527 435.5 468.5 c 128,-1,37
 447 410 447 410 475.5 352 c 128,-1,38
 504 294 504 294 547.5 252.5 c 128,-1,39
 591 211 591 211 661.5 185 c 128,-1,40
 732 159 732 159 822 159 c 3,0,1
EndSplineSet
EndChar

StartChar: D
Encoding: 68 68 40
Width: 1479
Flags: W
HStem: 0 170<384 948.946> 1280 170<620 1183.2>
VStem: 1376 190<650.68 1097.49>
DStem2: 168 0 347.865 0 0.207912 0.978148<211.194 1346.01>
LayerCount: 3
Fore
SplineSet
697 0 m 2
 168 0 l 1
 476 1450 l 1
 981 1450 l 2
 1423 1450 1566 1262 1566 985 c 3
 1566 472 1294 0 697 0 c 2
1376 909 m 3
 1376 1200 1168 1280 942 1280 c 2
 620 1280 l 1
 384 170 l 1
 711 170 l 2
 1142 170 1376 512 1376 909 c 3
EndSplineSet
Validated: 1
Layer: 2
SplineSet
697 0 m 2,0,-1
 168 0 l 1,1,-1
 476 1450 l 1,2,-1
 981 1450 l 2,3,4
 1111 1450 1111 1450 1211.5 1428 c 128,-1,5
 1312 1406 1312 1406 1378.5 1366.5 c 128,-1,6
 1445 1327 1445 1327 1487.5 1268 c 128,-1,7
 1530 1209 1530 1209 1548 1140 c 128,-1,8
 1566 1071 1566 1071 1566 985 c 0,9,10
 1566 828 1566 828 1533.5 685 c 128,-1,11
 1501 542 1501 542 1431.5 416.5 c 128,-1,12
 1362 291 1362 291 1261.5 199 c 128,-1,13
 1161 107 1161 107 1016 53.5 c 128,-1,14
 871 0 871 0 697 0 c 2,0,-1
1376 909 m 3,15,16
 1376 994 1376 994 1352 1059 c 128,-1,17
 1328 1124 1328 1124 1288.5 1165.5 c 128,-1,18
 1249 1207 1249 1207 1192 1233 c 128,-1,19
 1135 1259 1135 1259 1074.5 1269.5 c 128,-1,20
 1014 1280 1014 1280 942 1280 c 2,21,-1
 620 1280 l 1,22,-1
 384 170 l 1,23,-1
 711 170 l 2,24,25
 868 170 868 170 996 229.5 c 128,-1,26
 1124 289 1124 289 1206 391 c 128,-1,27
 1288 493 1288 493 1332 626 c 128,-1,28
 1376 759 1376 759 1376 909 c 3,15,16
EndSplineSet
EndChar

StartChar: E
Encoding: 69 69 41
Width: 1322
Flags: W
HStem: 0 170<384 1228> 651 170<523 1165> 1280 170<620 1500>
DStem2: 168 0 347.865 0 0.207912 0.978148<211.194 702.89 876.868 1346.01>
LayerCount: 3
Fore
SplineSet
168 0 m 1
 476 1450 l 1
 1536 1450 l 1
 1500 1280 l 1
 620 1280 l 1
 523 821 l 1
 1202 821 l 1
 1165 651 l 1
 486 651 l 1
 384 170 l 1
 1264 170 l 1
 1228 0 l 1
 168 0 l 1
EndSplineSet
Validated: 1
Layer: 2
SplineSet
168 0 m 1,0,-1
 476 1450 l 1,1,-1
 1536 1450 l 1,2,-1
 1500 1280 l 1,3,-1
 620 1280 l 1,4,-1
 523 821 l 1,5,-1
 1202 821 l 1,6,-1
 1165 651 l 1,7,-1
 486 651 l 1,8,-1
 384 170 l 1,9,-1
 1264 170 l 1,10,-1
 1228 0 l 1,11,-1
 168 0 l 1,0,-1
EndSplineSet
EndChar

StartChar: F
Encoding: 70 70 42
Width: 1251
Flags: W
HStem: 0 21G<168 352.24> 651 170<523 1147> 1280 170<620 1429>
DStem2: 168 0 348 0 0.207912 0.978148<37.4241 702.89 876.868 1346.01>
LayerCount: 3
Fore
SplineSet
168 0 m 1
 476 1450 l 1
 1465 1450 l 1
 1429 1280 l 1
 620 1280 l 1
 523 821 l 1
 1184 821 l 1
 1147 651 l 1
 486 651 l 1
 348 0 l 1
 168 0 l 1
EndSplineSet
Validated: 1
Layer: 2
SplineSet
168 0 m 1,0,-1
 476 1450 l 1,1,-1
 1465 1450 l 1,2,-1
 1429 1280 l 1,3,-1
 620 1280 l 1,4,-1
 523 821 l 1,5,-1
 1184 821 l 1,6,-1
 1147 651 l 1,7,-1
 486 651 l 1,8,-1
 348 0 l 1,9,-1
 168 0 l 1,0,-1
EndSplineSet
EndChar

StartChar: G
Encoding: 71 71 43
Width: 1479
Flags: W
HStem: -11 170<621.945 1023.67> 511 170<1050 1321> 1300 170<849.324 1267.97>
VStem: 235 188<362.356 811.193> 1407 188<1046 1173.59>
LayerCount: 3
Fore
SplineSet
423 587 m 3
 423 382 512 159 822 159 c 0
 1016 159 1276 297 1321 511 c 1
 1014 511 l 1
 1050 681 l 1
 1549 681 l 1
 1445 192 1210 -11 789 -11 c 3
 484 -11 235 151 235 522 c 3
 235 989 570 1470 1106 1470 c 3
 1453 1470 1578 1259 1595 1046 c 1
 1407 1046 l 1
 1395 1177 1307 1300 1066 1300 c 3
 687 1300 423 946 423 587 c 3
EndSplineSet
Validated: 1
Layer: 2
SplineSet
423 587 m 3,0,1
 423 522 423 522 434.5 463.5 c 128,-1,2
 446 405 446 405 474.5 348 c 128,-1,3
 503 291 503 291 547 250 c 128,-1,4
 591 209 591 209 661.5 184 c 128,-1,5
 732 159 732 159 822 159 c 0,6,7
 895 159 895 159 975.5 184.5 c 128,-1,8
 1056 210 1056 210 1127 254.5 c 128,-1,9
 1198 299 1198 299 1251.5 366.5 c 128,-1,10
 1305 434 1305 434 1321 511 c 1,11,-1
 1014 511 l 1,12,-1
 1050 681 l 1,13,-1
 1549 681 l 1,14,15
 1472 317 1472 317 1289.5 153 c 128,-1,16
 1107 -11 1107 -11 789 -11 c 0,17,18
 672 -11 672 -11 573.5 21 c 128,-1,19
 475 53 475 53 398 116 c 128,-1,20
 321 179 321 179 278 283 c 128,-1,21
 235 387 235 387 235 522 c 0,22,23
 235 662 235 662 273.5 799.5 c 128,-1,24
 312 937 312 937 388 1057.5 c 128,-1,25
 464 1178 464 1178 567.5 1270.5 c 128,-1,26
 671 1363 671 1363 810.5 1416.5 c 128,-1,27
 950 1470 950 1470 1106 1470 c 0,28,29
 1207 1470 1207 1470 1288.5 1446 c 128,-1,30
 1370 1422 1370 1422 1423.5 1382.5 c 128,-1,31
 1477 1343 1477 1343 1515 1287 c 128,-1,32
 1553 1231 1553 1231 1571.5 1172 c 128,-1,33
 1590 1113 1590 1113 1595 1046 c 1,34,-1
 1407 1046 l 1,35,36
 1402 1098 1402 1098 1382 1141.5 c 128,-1,37
 1362 1185 1362 1185 1323 1221.5 c 128,-1,38
 1284 1258 1284 1258 1218.5 1279 c 128,-1,39
 1153 1300 1153 1300 1066 1300 c 0,40,41
 928 1300 928 1300 806.5 1239 c 128,-1,42
 685 1178 685 1178 602 1078 c 128,-1,43
 519 978 519 978 471 849.5 c 128,-1,44
 423 721 423 721 423 587 c 3,0,1
EndSplineSet
EndChar

StartChar: H
Encoding: 72 72 44
Width: 1479
Flags: W
HStem: 0 21G<164 348.25 1134 1318.25> 673 170<523 1277> 1430 20G<467.752 652 1437.75 1622>
DStem2: 164 0 344 0 0.207912 0.978148<37.4241 725.449 899.219 1482.35> 1134 0 1314 0 0.207912 0.978148<37.4241 688.025 861.795 1482.35>
LayerCount: 3
Fore
SplineSet
164 0 m 1
 472 1450 l 1
 652 1450 l 1
 523 843 l 1
 1313 843 l 1
 1442 1450 l 1
 1622 1450 l 1
 1314 0 l 1
 1134 0 l 1
 1277 673 l 1
 487 673 l 1
 344 0 l 1
 164 0 l 1
EndSplineSet
Validated: 1
Layer: 2
SplineSet
164 0 m 1,0,-1
 472 1450 l 1,1,-1
 652 1450 l 1,2,-1
 523 843 l 1,3,-1
 1313 843 l 1,4,-1
 1442 1450 l 1,5,-1
 1622 1450 l 1,6,-1
 1314 0 l 1,7,-1
 1134 0 l 1,8,-1
 1277 673 l 1,9,-1
 487 673 l 1,10,-1
 344 0 l 1,11,-1
 164 0 l 1,0,-1
EndSplineSet
EndChar

StartChar: I
Encoding: 73 73 45
Width: 650
Flags: W
HStem: 0 170<61 271 451 625> 1280 170<333 507 687 897>
DStem2: 234.865 0 414.865 0 0.207912 0.978148<211.222 1308.61>
LayerCount: 3
Fore
SplineSet
661 170 m 1
 625 0 l 1
 25 0 l 1
 61 170 l 1
 271 170 l 1
 507 1280 l 1
 297 1280 l 1
 333 1450 l 1
 933 1450 l 1
 897 1280 l 1
 687 1280 l 1
 451 170 l 1
 661 170 l 1
EndSplineSet
Validated: 1
Layer: 2
SplineSet
661 170 m 1,0,-1
 625 0 l 1,1,-1
 25 0 l 1,2,-1
 61 170 l 1,3,-1
 271 170 l 1,4,-1
 507 1280 l 1,5,-1
 297 1280 l 1,6,-1
 333 1450 l 1,7,-1
 933 1450 l 1,8,-1
 897 1280 l 1,9,-1
 687 1280 l 1,10,-1
 451 170 l 1,11,-1
 661 170 l 1,0,-1
EndSplineSet
EndChar

StartChar: J
Encoding: 74 74 46
Width: 1024
Flags: W
HStem: -11 170<372.228 648.089> 1280 170<716 957>
VStem: 139 188<201.629 451.495>
DStem2: 683.151 -11 862.949 -11 0.207912 0.978148<248.005 1319.72>
LayerCount: 3
Fore
SplineSet
1173 1450 m 1
 962 455 l 2
 888 107 710 -11 461 -11 c 3
 211 -11 139 114 139 275 c 3
 139 331 148 392 161 454 c 1
 341 454 l 1
 331 409 327 371 327 337 c 3
 327 211 390 159 496 159 c 3
 650 159 740 255 772 407 c 2
 957 1280 l 1
 680 1280 l 1
 716 1450 l 1
 1173 1450 l 1
EndSplineSet
Validated: 1
Layer: 2
SplineSet
1173 1450 m 1,0,-1
 962 455 l 2,1,2
 909 205 909 205 783.5 97 c 128,-1,3
 658 -11 658 -11 461 -11 c 0,4,5
 370 -11 370 -11 305.5 10.5 c 128,-1,6
 241 32 241 32 205.5 72 c 128,-1,7
 170 112 170 112 154.5 161.5 c 128,-1,8
 139 211 139 211 139 275 c 0,9,10
 139 349 139 349 161 454 c 1,11,-1
 341 454 l 1,12,13
 327 391 327 391 327 337 c 0,14,15
 327 159 327 159 496 159 c 0,16,17
 608 159 608 159 677.5 224 c 128,-1,18
 747 289 747 289 772 407 c 2,19,-1
 957 1280 l 1,20,-1
 680 1280 l 1,21,-1
 716 1450 l 1,22,-1
 1173 1450 l 1,0,-1
EndSplineSet
EndChar

StartChar: K
Encoding: 75 75 47
Width: 1366
Flags: W
HStem: 0 21G<150 334.267 1098.31 1346> 1430 20G<453.752 638 1353.44 1624>
DStem2: 150 0 330 0 0.207912 0.978148<37.4241 588.555 839.991 1482.35> 497 785 621 670 0.7913 0.611428<0 27.8069 237.569 1105.32>
LayerCount: 3
Fore
SplineSet
150 0 m 1
 458 1450 l 1
 638 1450 l 1
 497 785 l 1
 1380 1450 l 1
 1624 1450 l 1
 781 806 l 1
 1346 0 l 1
 1113 0 l 1
 621 670 l 1
 445 539 l 1
 330 0 l 1
 150 0 l 1
EndSplineSet
Validated: 1
Layer: 2
SplineSet
150 0 m 1,0,-1
 458 1450 l 1,1,-1
 638 1450 l 1,2,-1
 497 785 l 1,3,-1
 1380 1450 l 1,4,-1
 1624 1450 l 1,5,-1
 781 806 l 1,6,-1
 1346 0 l 1,7,-1
 1113 0 l 1,8,-1
 621 670 l 1,9,-1
 445 539 l 1,10,-1
 330 0 l 1,11,-1
 150 0 l 1,0,-1
EndSplineSet
EndChar

StartChar: L
Encoding: 76 76 48
Width: 1139
Flags: W
HStem: 0 170<366 1060> 1430 20G<453.752 638>
DStem2: 150 0 329.865 0 0.207912 0.978148<211.194 1482.35>
LayerCount: 3
Fore
SplineSet
150 0 m 1
 458 1450 l 1
 638 1450 l 1
 366 170 l 1
 1096 170 l 1
 1060 0 l 1
 150 0 l 1
EndSplineSet
Validated: 1
Layer: 2
SplineSet
150 0 m 1,0,-1
 458 1450 l 1,1,-1
 638 1450 l 1,2,-1
 366 170 l 1,3,-1
 1096 170 l 1,4,-1
 1060 0 l 1,5,-1
 150 0 l 1,0,-1
EndSplineSet
EndChar

StartChar: M
Encoding: 77 77 49
Width: 1706
Flags: W
HStem: 0 21G<152 336.253 702.494 1008.01 1370 1554.25> 1430 20G<455.752 643.629 1665.87 1858>
DStem2: 152 0 332 0 0.207912 0.978148<37.4241 1022.98> 640 1450 537 964 0.178557 -0.98393<459.798 1338.51> 879 133 996 0 0.51869 0.854962<0 1071.48> 1370 0 1550 0 0.207912 0.978148<37.4241 985.556>
LayerCount: 3
Fore
SplineSet
152 0 m 1
 460 1450 l 1
 640 1450 l 1
 879 133 l 1
 1678 1450 l 1
 1858 1450 l 1
 1550 0 l 1
 1370 0 l 1
 1575 964 l 1
 996 0 l 1
 706 0 l 1
 537 964 l 1
 332 0 l 1
 152 0 l 1
EndSplineSet
Validated: 1
Layer: 2
SplineSet
152 0 m 1,0,-1
 460 1450 l 1,1,-1
 640 1450 l 1,2,-1
 879 133 l 1,3,-1
 1678 1450 l 1,4,-1
 1858 1450 l 1,5,-1
 1550 0 l 1,6,-1
 1370 0 l 1,7,-1
 1575 964 l 1,8,-1
 996 0 l 1,9,-1
 706 0 l 1,10,-1
 537 964 l 1,11,-1
 332 0 l 1,12,-1
 152 0 l 1,0,-1
EndSplineSet
EndChar

StartChar: N
Encoding: 78 78 50
Width: 1479
Flags: W
HStem: 0 21G<156 340.243 1121.25 1315.25> 1430 20G<459.752 653.762 1434.75 1619>
DStem2: 156 0 336 0 0.207912 0.978148<37.4241 1198.71> 644 1450 577 1136 0.43833 -0.898814<252.86 1262.99> 1131.04 0 1311 0 0.207912 0.978148<322.037 1482.34>
LayerCount: 3
Fore
SplineSet
156 0 m 1
 464 1450 l 1
 644 1450 l 1
 1198 315 l 1
 1439 1450 l 1
 1619 1450 l 1
 1311 0 l 1
 1131 0 l 1
 577 1136 l 1
 336 0 l 1
 156 0 l 1
EndSplineSet
Validated: 1
Layer: 2
SplineSet
156 0 m 1,0,-1
 464 1450 l 1,1,-1
 644 1450 l 1,2,-1
 1198 315 l 1,3,-1
 1439 1450 l 1,4,-1
 1619 1450 l 1,5,-1
 1311 0 l 1,6,-1
 1131 0 l 1,7,-1
 577 1136 l 1,8,-1
 336 0 l 1,9,-1
 156 0 l 1,0,-1
EndSplineSet
EndChar

StartChar: O
Encoding: 79 79 51
Width: 1593
Flags: W
HStem: -11 170<618.114 1063.33> 1300 170<854.804 1282.9>
VStem: 237 183<358.157 815.788> 1489 184<648.186 1096.41>
LayerCount: 3
Fore
SplineSet
798 -11 m 3
 450 -11 237 196 237 531 c 3
 237 989 575 1470 1112 1470 c 3
 1472 1470 1673 1256 1673 928 c 3
 1673 470 1335 -11 798 -11 c 3
1076 1300 m 3
 647 1300 420 905 420 564 c 3
 420 315 566 159 834 159 c 3
 1263 159 1489 547 1489 888 c 3
 1489 1135 1346 1300 1076 1300 c 3
EndSplineSet
Validated: 1
Layer: 2
SplineSet
798 -11 m 3,0,1
 537 -11 537 -11 387 134.5 c 128,-1,2
 237 280 237 280 237 531 c 0,3,4
 237 668 237 668 276 804 c 128,-1,5
 315 940 315 940 391 1059.5 c 128,-1,6
 467 1179 467 1179 571 1271 c 128,-1,7
 675 1363 675 1363 815.5 1416.5 c 128,-1,8
 956 1470 956 1470 1112 1470 c 0,9,10
 1378 1470 1378 1470 1525.5 1324 c 128,-1,11
 1673 1178 1673 1178 1673 928 c 0,12,13
 1673 791 1673 791 1634 655 c 128,-1,14
 1595 519 1595 519 1519 399.5 c 128,-1,15
 1443 280 1443 280 1339 188 c 128,-1,16
 1235 96 1235 96 1094.5 42.5 c 128,-1,17
 954 -11 954 -11 798 -11 c 3,0,1
1076 1300 m 3,18,19
 952 1300 952 1300 844 1256 c 128,-1,20
 736 1212 736 1212 659.5 1139 c 128,-1,21
 583 1066 583 1066 528 970.5 c 128,-1,22
 473 875 473 875 446.5 771.5 c 128,-1,23
 420 668 420 668 420 564 c 0,24,25
 420 375 420 375 527.5 267 c 128,-1,26
 635 159 635 159 834 159 c 0,27,28
 958 159 958 159 1066 202 c 128,-1,29
 1174 245 1174 245 1250.5 317.5 c 128,-1,30
 1327 390 1327 390 1381.5 484 c 128,-1,31
 1436 578 1436 578 1462.5 681 c 128,-1,32
 1489 784 1489 784 1489 888 c 0,33,34
 1489 1077 1489 1077 1382 1188.5 c 128,-1,35
 1275 1300 1275 1300 1076 1300 c 3,18,19
EndSplineSet
EndChar

StartChar: P
Encoding: 80 80 52
Width: 1366
Flags: W
HStem: 0 21G<158 342.241> 580 170<497 1126.94> 1280 170<610 1233.42>
VStem: 1322 188<918.177 1206.25>
DStem2: 158 0 338 0 0.207912 0.978148<37.4241 630.323 804.093 1346.01>
LayerCount: 3
Fore
SplineSet
158 0 m 1
 466 1450 l 1
 1019 1450 l 2
 1404 1450 1510 1321 1510 1150 c 3
 1510 784 1261 580 851 580 c 2
 461 580 l 1
 338 0 l 1
 158 0 l 1
890 750 m 2
 1100 750 1322 824 1322 1090 c 3
 1322 1205 1243 1280 999 1280 c 2
 610 1280 l 1
 497 750 l 1
 890 750 l 2
EndSplineSet
Validated: 1
Layer: 2
SplineSet
158 0 m 1,0,-1
 466 1450 l 1,1,-1
 1019 1450 l 2,2,3
 1132 1450 1132 1450 1218 1435 c 128,-1,4
 1304 1420 1304 1420 1358.5 1394 c 128,-1,5
 1413 1368 1413 1368 1447.5 1329 c 128,-1,6
 1482 1290 1482 1290 1496 1247 c 128,-1,7
 1510 1204 1510 1204 1510 1150 c 0,8,9
 1510 878 1510 878 1335.5 729 c 128,-1,10
 1161 580 1161 580 851 580 c 2,11,-1
 461 580 l 1,12,-1
 338 0 l 1,13,-1
 158 0 l 1,0,-1
890 750 m 2,14,15
 957 750 957 750 1016 759.5 c 128,-1,16
 1075 769 1075 769 1132.5 793.5 c 128,-1,17
 1190 818 1190 818 1231 855.5 c 128,-1,18
 1272 893 1272 893 1297 953 c 128,-1,19
 1322 1013 1322 1013 1322 1090 c 0,20,21
 1322 1182 1322 1182 1247.5 1231 c 128,-1,22
 1173 1280 1173 1280 999 1280 c 2,23,-1
 610 1280 l 1,24,-1
 497 750 l 1,25,-1
 890 750 l 2,14,15
EndSplineSet
EndChar

StartChar: Q
Encoding: 81 81 53
Width: 1659
Flags: W
HStem: -11 170<778.501 1063.4 1356.5 1564.56> 289 170<841.596 1072.35> 1300 170<856.133 1283.92>
VStem: 236 184<364.134 806.03> 1489 184<642.339 1096.96>
LayerCount: 3
Fore
SplineSet
993 459 m 3
 1173 459 1252 367 1268 346 c 1
 1425 494 1489 740 1489 890 c 3
 1489 1136 1347 1300 1078 1300 c 3
 649 1300 420 904 420 563 c 3
 420 398 485 285 590 222 c 1
 668 386 849 459 993 459 c 3
1356 184 m 1
 1369 165 1392 159 1424 159 c 3
 1463 159 1525 176 1578 212 c 1
 1679 93 l 1
 1590 24 1496 -11 1397 -11 c 3
 1311 -11 1218 15 1174 87 c 1
 1056 21 960 -11 818 -11 c 3
 442 -11 236 197 236 528 c 3
 236 986 576 1470 1113 1470 c 3
 1473 1470 1673 1256 1673 928 c 3
 1673 542 1448 230 1356 184 c 1
1096 218 m 1
 1066 265 1024 289 969 289 c 3
 831 289 773 166 773 166 c 1
 789 161 810 159 837 159 c 3
 957 159 1055 189 1096 218 c 1
EndSplineSet
Validated: 1
Layer: 2
SplineSet
993 459 m 3,0,1
 1056 459 1056 459 1108.5 445 c 128,-1,2
 1161 431 1161 431 1193.5 409.5 c 128,-1,3
 1226 388 1226 388 1242 373.5 c 128,-1,4
 1258 359 1258 359 1268 346 c 1,5,6
 1376 448 1376 448 1432.5 604 c 128,-1,7
 1489 760 1489 760 1489 890 c 0,8,9
 1489 1079 1489 1079 1382.5 1189.5 c 128,-1,10
 1276 1300 1276 1300 1078 1300 c 0,11,12
 954 1300 954 1300 845.5 1256 c 128,-1,13
 737 1212 737 1212 660.5 1138.5 c 128,-1,14
 584 1065 584 1065 528.5 969.5 c 128,-1,15
 473 874 473 874 446.5 770.5 c 128,-1,16
 420 667 420 667 420 563 c 0,17,18
 420 324 420 324 590 222 c 1,19,20
 645 337 645 337 759.5 398 c 128,-1,21
 874 459 874 459 993 459 c 3,0,1
1356 184 m 1,22,23
 1373 159 1373 159 1424 159 c 0,24,25
 1500 159 1500 159 1578 212 c 1,26,-1
 1679 93 l 1,27,28
 1545 -11 1545 -11 1397 -11 c 0,29,30
 1326 -11 1326 -11 1265.5 12.5 c 128,-1,31
 1205 36 1205 36 1174 87 c 1,32,33
 1081 35 1081 35 1001 12 c 128,-1,34
 921 -11 921 -11 818 -11 c 0,35,36
 539 -11 539 -11 387.5 133 c 128,-1,37
 236 277 236 277 236 528 c 0,38,39
 236 665 236 665 275 801.5 c 128,-1,40
 314 938 314 938 390.5 1058 c 128,-1,41
 467 1178 467 1178 571.5 1270 c 128,-1,42
 676 1362 676 1362 816.5 1416 c 128,-1,43
 957 1470 957 1470 1113 1470 c 0,44,45
 1379 1470 1379 1470 1526 1324 c 128,-1,46
 1673 1178 1673 1178 1673 928 c 0,47,48
 1673 818 1673 818 1649 707.5 c 128,-1,49
 1625 597 1625 597 1588 512 c 128,-1,50
 1551 427 1551 427 1507.5 355.5 c 128,-1,51
 1464 284 1464 284 1424.5 241 c 128,-1,52
 1385 198 1385 198 1356 184 c 1,22,23
1096 218 m 1,53,54
 1051 289 1051 289 969 289 c 0,55,56
 930 289 930 289 896 276.5 c 128,-1,57
 862 264 862 264 840.5 246 c 128,-1,58
 819 228 819 228 803 209.5 c 128,-1,59
 787 191 787 191 780 178.5 c 2,60,-1
 773 166 l 1,61,62
 795 159 795 159 837 159 c 0,63,64
 921 159 921 159 991.5 176.5 c 128,-1,65
 1062 194 1062 194 1096 218 c 1,53,54
EndSplineSet
EndChar

StartChar: R
Encoding: 82 82 54
Width: 1400
Flags: W
HStem: 0 21G<158 342.241 1097.14 1387> 580 170<497 821> 1280 170<610 1231.29>
VStem: 1322 187<916.672 1203.55>
DStem2: 158 0 338 0 0.207912 0.978148<37.4241 630.323 804.093 1346.01>
LayerCount: 3
Fore
SplineSet
821 580 m 1
 461 580 l 1
 338 0 l 1
 158 0 l 1
 466 1450 l 1
 1019 1450 l 2
 1399 1450 1509 1323 1509 1148 c 3
 1509 847 1312 634 1051 596 c 1
 1387 0 l 1
 1107 0 l 1
 821 580 l 1
890 750 m 2
 1097 750 1322 825 1322 1089 c 3
 1322 1195 1253 1280 999 1280 c 2
 610 1280 l 1
 497 750 l 1
 890 750 l 2
EndSplineSet
Validated: 1
Layer: 2
SplineSet
821 580 m 1,0,-1
 461 580 l 1,1,-1
 338 0 l 1,2,-1
 158 0 l 1,3,-1
 466 1450 l 1,4,-1
 1019 1450 l 2,5,6
 1131 1450 1131 1450 1216 1435 c 128,-1,7
 1301 1420 1301 1420 1356 1394 c 128,-1,8
 1411 1368 1411 1368 1446 1329.5 c 128,-1,9
 1481 1291 1481 1291 1495 1247 c 128,-1,10
 1509 1203 1509 1203 1509 1148 c 0,11,12
 1509 927 1509 927 1380 776 c 128,-1,13
 1251 625 1251 625 1051 596 c 1,14,-1
 1387 0 l 1,15,-1
 1107 0 l 1,16,-1
 821 580 l 1,0,-1
890 750 m 2,17,18
 956 750 956 750 1015 759.5 c 128,-1,19
 1074 769 1074 769 1131.5 793.5 c 128,-1,20
 1189 818 1189 818 1230 855.5 c 128,-1,21
 1271 893 1271 893 1296.5 953 c 128,-1,22
 1322 1013 1322 1013 1322 1089 c 0,23,24
 1322 1178 1322 1178 1249.5 1229 c 128,-1,25
 1177 1280 1177 1280 999 1280 c 2,26,-1
 610 1280 l 1,27,-1
 497 750 l 1,28,-1
 890 750 l 2,17,18
EndSplineSet
EndChar

StartChar: S
Encoding: 83 83 55
Width: 1366
Flags: W
HStem: -11 170<521.844 968.909> 1300 170<719.7 1132.28>
VStem: 187 192<294.753 499> 365 188<945.998 1164.61> 1171 188<324.019 548.669> 1246 190<1015 1191.05>
LayerCount: 3
Fore
SplineSet
715 -11 m 3xd8
 289 -11 187 197 187 386 c 3
 187 425 191 463 198 499 c 1
 381 499 l 1
 380 484 379 470 379 456 c 3
 379 257 516 159 742 159 c 3
 968 159 1171 272 1171 451 c 3xe8
 1171 612 934 620 779 660 c 0
 563 715 365 782 365 984 c 3
 365 1258 632 1470 976 1470 c 3
 1250 1470 1436 1339 1436 1090 c 3
 1436 1066 1435 1041 1431 1015 c 1
 1245 1015 l 1
 1246 1026 1246 1037 1246 1048 c 3xd4
 1246 1199 1142 1300 948 1300 c 3
 726 1300 553 1198 553 1040 c 3
 553 898 755 868 871 840 c 0
 1037 800 1359 778 1359 511 c 3
 1359 206 1046 -11 715 -11 c 3xd8
EndSplineSet
Validated: 1
Layer: 2
SplineSet
715 -11 m 3,0,1
 592 -11 592 -11 497 12.5 c 128,-1,2
 402 36 402 36 344.5 74 c 128,-1,3
 287 112 287 112 250.5 165 c 128,-1,4
 214 218 214 218 200.5 271.5 c 128,-1,5
 187 325 187 325 187 386 c 0,6,7
 187 442 187 442 198 499 c 1,8,-1
 381 499 l 1,9,10
 379 469 379 469 379 456 c 0,11,12
 379 309 379 309 474 234 c 128,-1,13
 569 159 569 159 742 159 c 0,14,15
 856 159 856 159 953 194 c 128,-1,16
 1050 229 1050 229 1110.5 296.5 c 128,-1,17
 1171 364 1171 364 1171 451 c 0,18,19
 1171 490 1171 490 1152 520 c 128,-1,20
 1133 550 1133 550 1105 568 c 128,-1,21
 1077 586 1077 586 1032 601 c 128,-1,22
 987 616 987 616 950.5 623.5 c 128,-1,23
 914 631 914 631 861 642 c 128,-1,24
 808 653 808 653 779 660 c 0,25,26
 726 673 726 673 687.5 684.5 c 128,-1,27
 649 696 649 696 603 713 c 128,-1,28
 557 730 557 730 525 747 c 128,-1,29
 493 764 493 764 460.5 788.5 c 128,-1,30
 428 813 428 813 408.5 841 c 128,-1,31
 389 869 389 869 377 905.5 c 128,-1,32
 365 942 365 942 365 984 c 0,33,34
 365 1119 365 1119 445.5 1230.5 c 128,-1,35
 526 1342 526 1342 666.5 1406 c 128,-1,36
 807 1470 807 1470 976 1470 c 0,37,38
 1187 1470 1187 1470 1311.5 1371.5 c 128,-1,39
 1436 1273 1436 1273 1436 1090 c 0,40,41
 1436 1048 1436 1048 1431 1015 c 1,42,-1
 1245 1015 l 1,43,44
 1246 1026 1246 1026 1246 1048 c 0,45,46
 1246 1164 1246 1164 1168.5 1232 c 128,-1,47
 1091 1300 1091 1300 948 1300 c 0,48,49
 778 1300 778 1300 665.5 1228 c 128,-1,50
 553 1156 553 1156 553 1040 c 0,51,52
 553 1014 553 1014 563 991.5 c 128,-1,53
 573 969 573 969 585.5 953 c 128,-1,54
 598 937 598 937 623.5 921.5 c 128,-1,55
 649 906 649 906 667.5 897 c 128,-1,56
 686 888 686 888 720.5 878 c 128,-1,57
 755 868 755 868 771.5 863.5 c 128,-1,58
 788 859 788 859 824.5 850.5 c 128,-1,59
 861 842 861 842 871 840 c 0,60,61
 893 835 893 835 939 825.5 c 128,-1,62
 985 816 985 816 1018 809 c 128,-1,63
 1051 802 1051 802 1097.5 788.5 c 128,-1,64
 1144 775 1144 775 1178 760.5 c 128,-1,65
 1212 746 1212 746 1248 722 c 128,-1,66
 1284 698 1284 698 1306.5 669.5 c 128,-1,67
 1329 641 1329 641 1344 600 c 128,-1,68
 1359 559 1359 559 1359 511 c 0,69,70
 1359 363 1359 363 1267 242 c 128,-1,71
 1175 121 1175 121 1028 55 c 128,-1,72
 881 -11 881 -11 715 -11 c 3,0,1
EndSplineSet
EndChar

StartChar: T
Encoding: 84 84 56
Width: 1251
Flags: W
HStem: 0 21G<538 722.25> 1280 170<356 810 990 1482>
DStem2: 538 0 718 0 0.207912 0.978148<37.4241 1308.58>
LayerCount: 3
Fore
SplineSet
538 0 m 1
 810 1280 l 1
 320 1280 l 1
 356 1450 l 1
 1518 1450 l 1
 1482 1280 l 1
 990 1280 l 1
 718 0 l 1
 538 0 l 1
EndSplineSet
Validated: 1
Layer: 2
SplineSet
538 0 m 1,0,-1
 810 1280 l 1,1,-1
 320 1280 l 1,2,-1
 356 1450 l 1,3,-1
 1518 1450 l 1,4,-1
 1482 1280 l 1,5,-1
 990 1280 l 1,6,-1
 718 0 l 1,7,-1
 538 0 l 1,0,-1
EndSplineSet
EndChar

StartChar: U
Encoding: 85 85 57
Width: 1479
Flags: W
HStem: -11 170<561.166 1000.01> 1430 20G<464.747 649 1437.76 1622>
VStem: 260 185<267.342 676.938>
DStem2: 158.355 -11 339.142 -11 0.207912 0.978148<486.179 1493.66> 1132.14 -11 1311.35 -11 0.207912 0.978148<346.74 1493.5>
LayerCount: 3
Fore
SplineSet
772 159 m 3
 1090 159 1206 336 1255 567 c 2
 1442 1450 l 1
 1622 1450 l 1
 1434 566 l 2
 1352 181 1118 -11 736 -11 c 3
 420 -11 260 120 260 383 c 3
 260 438 267 499 281 566 c 2
 469 1450 l 1
 649 1450 l 1
 462 567 l 2
 451 516 445 468 445 423 c 3
 445 266 524 159 772 159 c 3
EndSplineSet
Validated: 1
Layer: 2
SplineSet
772 159 m 3,0,1
 888 159 888 159 974 189.5 c 128,-1,2
 1060 220 1060 220 1115 277.5 c 128,-1,3
 1170 335 1170 335 1202.5 404.5 c 128,-1,4
 1235 474 1235 474 1255 567 c 2,5,-1
 1442 1450 l 1,6,-1
 1622 1450 l 1,7,-1
 1434 566 l 2,8,9
 1311 -11 1311 -11 736 -11 c 0,10,11
 260 -11 260 -11 260 383 c 0,12,13
 260 465.5 260 465.5 281 566 c 2,14,-1
 469 1450 l 1,15,-1
 649 1450 l 1,16,-1
 462 567 l 2,17,18
 445 488 445 488 445 423 c 0,19,20
 445 297 445 297 520.5 228 c 128,-1,21
 596 159 596 159 772 159 c 3,0,1
EndSplineSet
EndChar

StartChar: V
Encoding: 86 86 58
Width: 1366
Flags: W
HStem: 0 21G<573.414 788.166> 1430 20G<317 530.57 1447.63 1658>
DStem2: 527 1450 317 1450 0.176495 -0.984301<0 1189.5> 736 279 776 0 0.519685 0.854358<0 1376.71>
LayerCount: 3
Fore
SplineSet
577 0 m 1
 317 1450 l 1
 527 1450 l 1
 736 279 l 1
 1460 1450 l 1
 1658 1450 l 1
 776 0 l 1
 577 0 l 1
EndSplineSet
Validated: 1
Layer: 2
SplineSet
577 0 m 1,0,-1
 317 1450 l 1,1,-1
 527 1450 l 1,2,-1
 736 279 l 1,3,-1
 1460 1450 l 1,4,-1
 1658 1450 l 1,5,-1
 776 0 l 1,6,-1
 577 0 l 1,0,-1
EndSplineSet
EndChar

StartChar: W
Encoding: 87 87 59
Width: 1933
Flags: W
HStem: 0 21G<412.883 622.222 1308.29 1517.61> 1430 20G<333 533.208 1131.7 1397.81 1996.3 2205>
DStem2: 532 1450 333 1450 0.0557751 -0.998443<0 1061.92> 596 390 612 0 0.455111 0.890435<0 973.977> 1396 1450 1210 1170 0.0851596 -0.996367<263.143 1064.32> 1492 390 1508 0 0.433236 0.90128<0 1178.04>
LayerCount: 3
Fore
SplineSet
414 0 m 1
 333 1450 l 1
 532 1450 l 1
 596 390 l 1
 1142 1450 l 1
 1396 1450 l 1
 1492 390 l 1
 2006 1450 l 1
 2205 1450 l 1
 1508 0 l 1
 1310 0 l 1
 1210 1170 l 1
 612 0 l 1
 414 0 l 1
EndSplineSet
Validated: 1
Layer: 2
SplineSet
414 0 m 1,0,-1
 333 1450 l 1,1,-1
 532 1450 l 1,2,-1
 596 390 l 1,3,-1
 1142 1450 l 1,4,-1
 1396 1450 l 1,5,-1
 1492 390 l 1,6,-1
 2006 1450 l 1,7,-1
 2205 1450 l 1,8,-1
 1508 0 l 1,9,-1
 1310 0 l 1,10,-1
 1210 1170 l 1,11,-1
 612 0 l 1,12,-1
 414 0 l 1,0,-1
EndSplineSet
EndChar

StartChar: X
Encoding: 88 88 60
Width: 1366
Flags: W
HStem: 0 21G<9 257.662 1112.82 1353> 1430 20G<384 623.453 1372.09 1621>
DStem2: 9 0 239 0 0.689929 0.723877<158.684 997.06 1249.04 2003.1> 614 1450 384 1450 0.454082 -0.89096<0 605.853 835.188 1523.02>
LayerCount: 3
Fore
SplineSet
9 0 m 1
 725 756 l 1
 384 1450 l 1
 614 1450 l 1
 873 902 l 1
 1391 1450 l 1
 1621 1450 l 1
 959 756 l 1
 1353 0 l 1
 1123 0 l 1
 811 613 l 1
 239 0 l 1
 9 0 l 1
EndSplineSet
Validated: 1
Layer: 2
SplineSet
9 0 m 1,0,-1
 725 756 l 1,1,-1
 384 1450 l 1,2,-1
 614 1450 l 1,3,-1
 873 902 l 1,4,-1
 1391 1450 l 1,5,-1
 1621 1450 l 1,6,-1
 959 756 l 1,7,-1
 1353 0 l 1,8,-1
 1123 0 l 1,9,-1
 811 613 l 1,10,-1
 239 0 l 1,11,-1
 9 0 l 1,0,-1
EndSplineSet
EndChar

StartChar: Y
Encoding: 89 89 61
Width: 1366
Flags: W
HStem: 0 21G<585 769.251> 1431 20G<314 553.717 1409.92 1658>
DStem2: 544 1451 314 1451 0.436779 -0.899569<0 707.09> 585 0 765 0 0.207912 0.978148<37.4241 634.874> 853 815 897 621 0.675805 0.73708<0 857.371>
LayerCount: 3
Fore
SplineSet
585 0 m 1
 717 621 l 1
 314 1451 l 1
 544 1451 l 1
 853 815 l 1
 1428 1451 l 1
 1658 1451 l 1
 897 621 l 1
 765 0 l 1
 585 0 l 1
EndSplineSet
Validated: 1
Layer: 2
SplineSet
585 0 m 1,0,-1
 717 621 l 1,1,-1
 314 1451 l 1,2,-1
 544 1451 l 1,3,-1
 853 815 l 1,4,-1
 1428 1451 l 1,5,-1
 1658 1451 l 1,6,-1
 897 621 l 1,7,-1
 765 0 l 1,8,-1
 585 0 l 1,0,-1
EndSplineSet
EndChar

StartChar: Z
Encoding: 90 90 62
Width: 1251
Flags: W
HStem: 0 170<361 1200> 1280 170<353 1217>
DStem2: 79 177 361 170 0.718063 0.695978<197.622 1584.82>
LayerCount: 3
Fore
SplineSet
41 0 m 1
 79 177 l 1
 1217 1280 l 1
 317 1280 l 1
 353 1450 l 1
 1521 1450 l 1
 1485 1280 l 1
 361 170 l 1
 1236 170 l 1
 1200 0 l 1
 41 0 l 1
EndSplineSet
Validated: 1
Layer: 2
SplineSet
41 0 m 1,0,-1
 79 177 l 1,1,-1
 1217 1280 l 1,2,-1
 317 1280 l 1,3,-1
 353 1450 l 1,4,-1
 1521 1450 l 1,5,-1
 1485 1280 l 1,6,-1
 361 170 l 1,7,-1
 1236 170 l 1,8,-1
 1200 0 l 1,9,-1
 41 0 l 1,0,-1
EndSplineSet
EndChar

StartChar: bracketleft
Encoding: 91 91 63
Width: 569
Flags: W
HStem: -407 148<264 449> 1318 148<599 816>
DStem2: 52 -407 232.542 -407 0.207912 0.978148<188.843 1801.03>
LayerCount: 3
Fore
SplineSet
52 -407 m 1
 451 1466 l 1
 848 1466 l 1
 816 1318 l 1
 599 1318 l 1
 264 -259 l 1
 481 -259 l 1
 449 -407 l 1
 52 -407 l 1
EndSplineSet
Validated: 1
Layer: 2
SplineSet
52 -407 m 1,0,-1
 451 1466 l 1,1,-1
 848 1466 l 1,2,-1
 816 1318 l 1,3,-1
 599 1318 l 1,4,-1
 264 -259 l 1,5,-1
 481 -259 l 1,6,-1
 449 -407 l 1,7,-1
 52 -407 l 1,0,-1
EndSplineSet
EndChar

StartChar: backslash
Encoding: 92 92 64
Width: 569
Flags: W
VStem: 317 247
DStem2: 462 1491 317 1491 0.0677857 -0.9977<0 1509.67>
LayerCount: 3
Fore
SplineSet
420 -25 m 1
 317 1491 l 1
 462 1491 l 1
 564 -25 l 1
 420 -25 l 1
EndSplineSet
Validated: 1
Layer: 2
SplineSet
420 -25 m 1,0,-1
 317 1491 l 1,1,-1
 462 1491 l 1,2,-1
 564 -25 l 1,3,-1
 420 -25 l 1,0,-1
EndSplineSet
EndChar

StartChar: bracketright
Encoding: 93 93 65
Width: 569
Flags: W
HStem: -407 148<-16 201> 1318 148<351 536>
DStem2: 169.542 -407 349 -407 0.207912 0.978148<151.306 1763.5>
LayerCount: 3
Fore
SplineSet
349 -407 m 1
 -48 -407 l 1
 -16 -259 l 1
 201 -259 l 1
 536 1318 l 1
 319 1318 l 1
 351 1466 l 1
 748 1466 l 1
 349 -407 l 1
EndSplineSet
Validated: 1
Layer: 2
SplineSet
349 -407 m 1,0,-1
 -48 -407 l 1,1,-1
 -16 -259 l 1,2,-1
 201 -259 l 1,3,-1
 536 1318 l 1,4,-1
 319 1318 l 1,5,-1
 351 1466 l 1,6,-1
 748 1466 l 1,7,-1
 349 -407 l 1,0,-1
EndSplineSet
EndChar

StartChar: asciicircum
Encoding: 94 94 66
Width: 961
Flags: W
DStem2: 201 690 386 690 0.546714 0.837319<101.142 754.623> 869 1491 742 1238 0.225037 -0.97435<217.931 781.355>
LayerCount: 3
Fore
SplineSet
386 690 m 1
 201 690 l 1
 724 1491 l 1
 869 1491 l 1
 1054 690 l 1
 873 690 l 1
 742 1238 l 1
 386 690 l 1
EndSplineSet
Validated: 1
Layer: 2
SplineSet
386 690 m 1,0,-1
 201 690 l 1,1,-1
 724 1491 l 1,2,-1
 869 1491 l 1,3,-1
 1054 690 l 1,4,-1
 873 690 l 1,5,-1
 742 1238 l 1,6,-1
 386 690 l 1,0,-1
EndSplineSet
EndChar

StartChar: underscore
Encoding: 95 95 67
Width: 1139
Flags: W
HStem: -407 148<-86 1075>
LayerCount: 3
Fore
SplineSet
-118 -407 m 1
 -86 -259 l 1
 1107 -259 l 1
 1075 -407 l 1
 -118 -407 l 1
EndSplineSet
Validated: 1
Layer: 2
SplineSet
-118 -407 m 1,0,-1
 -86 -259 l 1,1,-1
 1107 -259 l 1,2,-1
 1075 -407 l 1,3,-1
 -118 -407 l 1,0,-1
EndSplineSet
EndChar

StartChar: grave
Encoding: 96 96 68
Width: 682
Flags: W
HStem: 1194 280<574 643>
VStem: 402 317
LayerCount: 3
Fore
SplineSet
719 1194 m 1
 574 1194 l 1
 402 1474 l 1
 643 1474 l 1
 719 1194 l 1
EndSplineSet
Validated: 1
Layer: 2
SplineSet
719 1194 m 1,0,-1
 574 1194 l 1,1,-1
 402 1474 l 1,2,-1
 643 1474 l 1,3,-1
 719 1194 l 1,0,-1
EndSplineSet
EndChar

StartChar: a
Encoding: 97 97 69
Width: 1139
Flags: W
HStem: 0 137<358.472 696.393> 934 148<566.021 924.153>
VStem: 129 185<178.978 374.154> 855 179<1.35976 129.611> 972 192<678.109 889.432>
DStem2: 812.248 -11 992.311 -11 0.207912 0.978148<282.429 556.178 684.317 802.617>
LayerCount: 3
Fore
SplineSet
1092 458 m 2xe8
 1052 272 1034 175 1034 105 c 3
 1034 65 1040 34 1052 0 c 1
 866 0 l 1
 859 24 855 52 855 82 c 3xf0
 855 98 856 114 858 131 c 1
 747 62 614 -11 435 -11 c 3
 195 -11 129 113 129 227 c 3
 129 379 244 538 458 592 c 0
 584 623 795 628 960 681 c 1
 967 715 972 747 972 777 c 3
 972 867 927 934 757 934 c 3
 588 934 505 879 437 735 c 1
 266 759 l 1
 355 986 551 1082 814 1082 c 3
 1094 1082 1164 987 1164 853 c 3
 1164 803 1153 747 1141 688 c 2
 1092 458 l 2xe8
314 272 m 3
 314 218 352 137 503 137 c 3
 724 137 869 254 913 463 c 2
 928 533 l 1
 689 442 314 485 314 272 c 3
EndSplineSet
Validated: 1
Layer: 2
SplineSet
1092 458 m 2,0,1
 1034 188 1034 188 1034 105 c 0,2,3
 1034 51 1034 51 1052 0 c 1,4,-1
 866 0 l 1,5,6
 855 38 855 38 855 82 c 0,7,8
 855 106 855 106 858 131 c 1,9,10
 752 65 752 65 653.5 27 c 128,-1,11
 555 -11 555 -11 435 -11 c 0,12,13
 349 -11 349 -11 286.5 9.5 c 128,-1,14
 224 30 224 30 191 65.5 c 128,-1,15
 158 101 158 101 143.5 141 c 128,-1,16
 129 181 129 181 129 227 c 0,17,18
 129 347 129 347 216.5 450 c 128,-1,19
 304 553 304 553 458 592 c 0,20,21
 503 603 503 603 684.5 627 c 128,-1,22
 866 651 866 651 960 681 c 1,23,24
 972 739 972 739 972 777 c 0,25,26
 972 852 972 852 924 893 c 128,-1,27
 876 934 876 934 757 934 c 0,28,29
 631 934 631 934 559.5 889 c 128,-1,30
 488 844 488 844 437 735 c 1,31,-1
 266 759 l 1,32,33
 393 1082 393 1082 814 1082 c 0,34,35
 916 1082 916 1082 986.5 1065.5 c 128,-1,36
 1057 1049 1057 1049 1094.5 1017 c 128,-1,37
 1132 985 1132 985 1148 945.5 c 128,-1,38
 1164 906 1164 906 1164 853 c 0,39,40
 1164 801 1164 801 1141 688 c 2,41,-1
 1092 458 l 2,0,1
314 272 m 3,42,43
 314 220 314 220 358 178.5 c 128,-1,44
 402 137 402 137 503 137 c 0,45,46
 668 137 668 137 774 221.5 c 128,-1,47
 880 306 880 306 913 463 c 2,48,-1
 928 533 l 1,49,50
 867 510 867 510 774 492.5 c 128,-1,51
 681 475 681 475 607 462.5 c 128,-1,52
 533 450 533 450 463 430.5 c 128,-1,53
 393 411 393 411 353.5 371.5 c 128,-1,54
 314 332 314 332 314 272 c 3,42,43
EndSplineSet
EndChar

StartChar: b
Encoding: 98 98 70
Width: 1139
Flags: W
HStem: -11 148<492.145 770.823> 934 148<652.693 918.953> 1446 20G<441.744 626>
VStem: 1005 183<447.672 844.784>
DStem2: 131.662 -11 298.662 -11 0.207912 0.978148<45.967 167.564 456.928 801.406 1007.55 1510.08>
LayerCount: 3
Fore
SplineSet
594 -11 m 3
 417 -11 347 82 326 119 c 1
 301 0 l 1
 134 0 l 1
 446 1466 l 1
 626 1466 l 1
 513 938 l 1
 609 1033 717 1082 835 1082 c 3
 1067 1082 1188 925 1188 700 c 3
 1188 375 961 -11 594 -11 c 3
788 934 m 3
 625 934 470 743 427 540 c 0
 415 485 410 437 410 395 c 3
 410 200 521 137 610 137 c 3
 868 137 1005 435 1005 674 c 3
 1005 873 886 934 788 934 c 3
EndSplineSet
Validated: 1
Layer: 2
SplineSet
594 -11 m 3,0,1
 532 -11 532 -11 481.5 3.5 c 128,-1,2
 431 18 431 18 400.5 41 c 128,-1,3
 370 64 370 64 353.5 82 c 128,-1,4
 337 100 337 100 326 119 c 1,5,-1
 301 0 l 1,6,-1
 134 0 l 1,7,-1
 446 1466 l 1,8,-1
 626 1466 l 1,9,-1
 513 938 l 1,10,11
 659 1082 659 1082 835 1082 c 0,12,13
 1005 1082 1005 1082 1096.5 978 c 128,-1,14
 1188 874 1188 874 1188 700 c 0,15,16
 1188 602 1188 602 1162 501.5 c 128,-1,17
 1136 401 1136 401 1084 309.5 c 128,-1,18
 1032 218 1032 218 962 146 c 128,-1,19
 892 74 892 74 796 31.5 c 128,-1,20
 700 -11 700 -11 594 -11 c 3,0,1
788 934 m 3,21,22
 669 934 669 934 564.5 815.5 c 128,-1,23
 460 697 460 697 427 540 c 0,24,25
 410 462 410 462 410 395 c 0,26,27
 410 262 410 262 470.5 199.5 c 128,-1,28
 531 137 531 137 610 137 c 0,29,30
 703 137 703 137 780 187 c 128,-1,31
 857 237 857 237 905 316.5 c 128,-1,32
 953 396 953 396 979 489 c 128,-1,33
 1005 582 1005 582 1005 674 c 0,34,35
 1005 745 1005 745 985.5 798 c 128,-1,36
 966 851 966 851 933 879.5 c 128,-1,37
 900 908 900 908 864 921 c 128,-1,38
 828 934 828 934 788 934 c 3,21,22
EndSplineSet
EndChar

StartChar: c
Encoding: 99 99 71
Width: 1024
Flags: W
HStem: -11 148<454.397 757.186> 934 148<602.122 899.708>
VStem: 175 183<236.247 630.112> 913 177<295.015 399> 977 182<695 855.048>
LayerCount: 3
Fore
SplineSet
590 137 m 3xe8
 712 137 866 202 913 399 c 1
 1090 399 l 1xf0
 1026 136 827 -11 561 -11 c 3
 346 -11 175 124 175 380 c 3
 175 697 391 1082 794 1082 c 3
 1100 1082 1159 905 1159 778 c 3
 1159 746 1156 717 1151 695 c 1
 976 695 l 1
 977 704 977 712 977 721 c 3
 977 830 903 934 770 934 c 3
 475 934 358 604 358 401 c 3
 358 198 490 137 590 137 c 3xe8
EndSplineSet
Validated: 1
Layer: 2
SplineSet
590 137 m 3,0,1
 639 137 639 137 686 151 c 128,-1,2
 733 165 733 165 779 194 c 128,-1,3
 825 223 825 223 860.5 275.5 c 128,-1,4
 896 328 896 328 913 399 c 1,5,-1
 1090 399 l 1,6,7
 1042 203 1042 203 902 96 c 128,-1,8
 762 -11 762 -11 561 -11 c 0,9,10
 393 -11 393 -11 284 92 c 128,-1,11
 175 195 175 195 175 380 c 0,12,13
 175 476 175 476 200 574.5 c 128,-1,14
 225 673 225 673 277 764 c 128,-1,15
 329 855 329 855 401 926 c 128,-1,16
 473 997 473 997 575 1039.5 c 128,-1,17
 677 1082 677 1082 794 1082 c 0,18,19
 882 1082 882 1082 949 1062 c 128,-1,20
 1016 1042 1016 1042 1055 1012 c 128,-1,21
 1094 982 1094 982 1118.5 939.5 c 128,-1,22
 1143 897 1143 897 1151 858.5 c 128,-1,23
 1159 820 1159 820 1159 778 c 0,24,25
 1159 730 1159 730 1151 695 c 1,26,-1
 976 695 l 1,27,28
 977 704 977 704 977 721 c 0,29,30
 977 808 977 808 921 871 c 128,-1,31
 865 934 865 934 770 934 c 0,32,33
 685 934 685 934 614 898 c 128,-1,34
 543 862 543 862 497 805 c 128,-1,35
 451 748 451 748 418.5 676 c 128,-1,36
 386 604 386 604 372 534.5 c 128,-1,37
 358 465 358 465 358 401 c 0,38,39
 358 329 358 329 379.5 275 c 128,-1,40
 401 221 401 221 437 192.5 c 128,-1,41
 473 164 473 164 511 150.5 c 128,-1,42
 549 137 549 137 590 137 c 3,0,1
EndSplineSet
EndChar

StartChar: d
Encoding: 100 100 72
Width: 1139
Flags: W
HStem: -11 148<435.919 692.243> 934 148<581.34 856.831> 1446 20G<1113.75 1303>
VStem: 165 183<226.431 632.973>
DStem2: 815.662 -11 988.662 -11 0.207912 0.978148<47.2145 135.985 345.404 683.709 983.132 1507.58>
LayerCount: 3
Fore
SplineSet
744 1082 m 3
 920 1082 978 1009 1009 953 c 1
 1118 1466 l 1
 1303 1466 l 1
 991 0 l 1
 818 0 l 1
 844 122 l 1
 765 34 658 -11 520 -11 c 3
 287 -11 165 147 165 373 c 3
 165 732 406 1082 744 1082 c 3
738 934 m 3
 472 934 348 618 348 397 c 3
 348 196 471 137 568 137 c 3
 682 137 872 285 922 521 c 0
 933 573 938 621 938 664 c 3
 938 833 859 934 738 934 c 3
EndSplineSet
Validated: 1
Layer: 2
SplineSet
744 1082 m 3,0,1
 806 1082 806 1082 854 1070.5 c 128,-1,2
 902 1059 902 1059 932 1038 c 128,-1,3
 962 1017 962 1017 978.5 997.5 c 128,-1,4
 995 978 995 978 1009 953 c 1,5,-1
 1118 1466 l 1,6,-1
 1303 1466 l 1,7,-1
 991 0 l 1,8,-1
 818 0 l 1,9,-1
 844 122 l 1,10,11
 725 -11 725 -11 520 -11 c 0,12,13
 350 -11 350 -11 257.5 94 c 128,-1,14
 165 199 165 199 165 373 c 0,15,16
 165 507 165 507 208.5 635 c 128,-1,17
 252 763 252 763 327 862 c 128,-1,18
 402 961 402 961 511.5 1021.5 c 128,-1,19
 621 1082 621 1082 744 1082 c 3,0,1
738 934 m 3,20,21
 661 934 661 934 595.5 899.5 c 128,-1,22
 530 865 530 865 485.5 809 c 128,-1,23
 441 753 441 753 409 681.5 c 128,-1,24
 377 610 377 610 362.5 537.5 c 128,-1,25
 348 465 348 465 348 397 c 0,26,27
 348 325 348 325 368 272 c 128,-1,28
 388 219 388 219 422 191 c 128,-1,29
 456 163 456 163 492.5 150 c 128,-1,30
 529 137 529 137 568 137 c 0,31,32
 612 137 612 137 665 164.5 c 128,-1,33
 718 192 718 192 769 240 c 128,-1,34
 820 288 820 288 862 362.5 c 128,-1,35
 904 437 904 437 922 521 c 0,36,37
 938 597 938 597 938 664 c 0,38,39
 938 790 938 790 884 862 c 128,-1,40
 830 934 830 934 738 934 c 3,20,21
EndSplineSet
EndChar

StartChar: e
Encoding: 101 101 73
Width: 1139
Flags: W
HStem: -11 148<449.386 789.532> 484 148<405 1000.44> 934 148<615.185 920.986>
VStem: 168 191<223.956 482.464> 1001 179<633.398 855.437>
LayerCount: 3
Fore
SplineSet
370 484 m 1
 363 446 359 411 359 380 c 3
 359 192 485 137 611 137 c 3
 761 137 870 214 932 330 c 1
 1118 330 l 1
 1034 124 834 -11 579 -11 c 3
 311 -11 168 126 168 364 c 3
 168 670 374 1082 801 1082 c 3
 1049 1082 1180 949 1180 695 c 3
 1180 632 1172 562 1156 484 c 1
 370 484 l 1
996 632 m 1
 999 652 1001 675 1001 699 c 3
 1001 808 962 934 772 934 c 3
 602 934 449 793 405 632 c 1
 996 632 l 1
EndSplineSet
Validated: 1
Layer: 2
SplineSet
370 484 m 1,0,1
 359 424 359 424 359 380 c 0,2,3
 359 312 359 312 380 263 c 128,-1,4
 401 214 401 214 438 187.5 c 128,-1,5
 475 161 475 161 518 149 c 128,-1,6
 561 137 561 137 611 137 c 0,7,8
 720 137 720 137 802 188.5 c 128,-1,9
 884 240 884 240 932 330 c 1,10,-1
 1118 330 l 1,11,12
 1054 173 1054 173 911 81 c 128,-1,13
 768 -11 768 -11 579 -11 c 0,14,15
 379 -11 379 -11 273.5 86.5 c 128,-1,16
 168 184 168 184 168 364 c 0,17,18
 168 458 168 458 192 556 c 128,-1,19
 216 654 216 654 268 748.5 c 128,-1,20
 320 843 320 843 393 917 c 128,-1,21
 466 991 466 991 572 1036.5 c 128,-1,22
 678 1082 678 1082 801 1082 c 0,23,24
 987 1082 987 1082 1083.5 983.5 c 128,-1,25
 1180 885 1180 885 1180 695 c 0,26,27
 1180 601 1180 601 1156 484 c 1,28,-1
 370 484 l 1,0,1
996 632 m 1,29,30
 1001 665 1001 665 1001 699 c 0,31,32
 1001 934 1001 934 772 934 c 0,33,34
 648 934 648 934 543.5 845 c 128,-1,35
 439 756 439 756 405 632 c 1,36,-1
 996 632 l 1,29,30
EndSplineSet
EndChar

StartChar: f
Encoding: 102 102 74
Width: 569
Flags: W
HStem: 0 21G<177 361.245> 914 148<245 371 583 730> 1367 148<679.991 930.334>
DStem2: 177 0 357 0 0.207912 0.978148<37.4241 934.362 1123.2 1397.28>
LayerCount: 3
Fore
SplineSet
784 1367 m 3
 706 1367 635 1308 604 1160 c 2
 583 1062 l 1
 762 1062 l 1
 730 914 l 1
 551 914 l 1
 357 0 l 1
 177 0 l 1
 371 914 l 1
 213 914 l 1
 245 1062 l 1
 403 1062 l 1
 427 1175 l 2
 485 1447 677 1515 809 1515 c 3
 860 1515 909 1506 956 1488 c 1
 925 1340 l 1
 869 1360 830 1367 784 1367 c 3
EndSplineSet
Validated: 1
Layer: 2
SplineSet
784 1367 m 3,0,1
 722 1367 722 1367 674 1316.5 c 128,-1,2
 626 1266 626 1266 604 1160 c 2,3,-1
 583 1062 l 1,4,-1
 762 1062 l 1,5,-1
 730 914 l 1,6,-1
 551 914 l 1,7,-1
 357 0 l 1,8,-1
 177 0 l 1,9,-1
 371 914 l 1,10,-1
 213 914 l 1,11,-1
 245 1062 l 1,12,-1
 403 1062 l 1,13,-1
 427 1175 l 2,14,15
 444 1253 444 1253 476.5 1314.5 c 128,-1,16
 509 1376 509 1376 548 1412.5 c 128,-1,17
 587 1449 587 1449 634.5 1473 c 128,-1,18
 682 1497 682 1497 724 1506 c 128,-1,19
 766 1515 766 1515 809 1515 c 0,20,21
 885.5 1515 885.5 1515 956 1488 c 1,22,-1
 925 1340 l 1,23,24
 849 1367 849 1367 784 1367 c 3,0,1
EndSplineSet
EndChar

StartChar: g
Encoding: 103 103 75
Width: 1139
Flags: W
HStem: -428 148<310.602 640.371> -11 148<426.3 712.423> 934 148<586.556 864.725> 1042 20G<1043.64 1228>
VStem: 72 184<-227.561 -74> 162 182<220.654 631.21>
DStem2: 730.819 -428 910.756 -428 0.207912 0.978148<288.088 568.421 730.34 1119.9 1420.02 1523.39>
LayerCount: 3
Fore
SplineSet
1030 133 m 2xd4
 939 -296 768 -428 431 -428 c 3
 217 -428 72 -338 72 -158 c 0
 72 -132 75 -104 81 -74 c 1
 261 -74 l 1
 257 -91 256 -106 256 -121 c 0xd8
 256 -233 354 -280 461 -280 c 3
 700 -280 798 -113 849 128 c 1
 750 35 640 -11 523 -11 c 3
 287 -11 162 148 162 376 c 3
 162 722 406 1082 756 1082 c 3xe4
 897 1082 990 1036 1026 961 c 1
 1048 1062 l 1
 1228 1062 l 1
 1030 133 l 2xd4
735 934 m 3xe4
 509 934 344 671 344 393 c 3
 344 243 408 137 568 137 c 3
 755 137 885 294 936 534 c 0
 947 586 951 632 951 672 c 3
 951 873 829 934 735 934 c 3xe4
EndSplineSet
Validated: 1
Layer: 2
SplineSet
1030 133 m 2,0,1
 996 -28 996 -28 946 -135.5 c 128,-1,2
 896 -243 896 -243 822 -308 c 128,-1,3
 748 -373 748 -373 654.5 -400.5 c 128,-1,4
 561 -428 561 -428 431 -428 c 0,5,6
 266 -428 266 -428 169 -359 c 128,-1,7
 72 -290 72 -290 72 -158 c 0,8,9
 72 -119 72 -119 81 -74 c 1,10,-1
 261 -74 l 1,11,12
 256 -95 256 -95 256 -121 c 0,13,14
 256 -200 256 -200 315 -240 c 128,-1,15
 374 -280 374 -280 461 -280 c 128,-1,16
 548 -280 548 -280 614.5 -251 c 128,-1,17
 681 -222 681 -222 726 -165.5 c 128,-1,18
 771 -109 771 -109 800 -38.5 c 128,-1,19
 829 32 829 32 849 128 c 1,20,21
 701 -11 701 -11 523 -11 c 0,22,23
 350 -11 350 -11 256 94.5 c 128,-1,24
 162 200 162 200 162 376 c 0,25,26
 162 479 162 479 189.5 582 c 128,-1,27
 217 685 217 685 270.5 774.5 c 128,-1,28
 324 864 324 864 395.5 933 c 128,-1,29
 467 1002 467 1002 560.5 1042 c 128,-1,30
 654 1082 654 1082 756 1082 c 0,31,32
 860 1082 860 1082 929.5 1050 c 128,-1,33
 999 1018 999 1018 1026 961 c 1,34,-1
 1048 1062 l 1,35,-1
 1228 1062 l 1,36,-1
 1030 133 l 2,0,1
735 934 m 3,37,38
 625 934 625 934 534.5 856.5 c 128,-1,39
 444 779 444 779 394 655.5 c 128,-1,40
 344 532 344 532 344 393 c 0,41,42
 344 274 344 274 398.5 205.5 c 128,-1,43
 453 137 453 137 568 137 c 0,44,45
 705 137 705 137 801 243.5 c 128,-1,46
 897 350 897 350 936 534 c 0,47,48
 951 605 951 605 951 672 c 0,49,50
 951 744 951 744 931 797.5 c 128,-1,51
 911 851 911 851 878 879 c 128,-1,52
 845 907 845 907 809 920.5 c 128,-1,53
 773 934 773 934 735 934 c 3,37,38
EndSplineSet
EndChar

StartChar: h
Encoding: 104 104 76
Width: 1139
Flags: W
HStem: 0 21G<135 319.247 820 1004.24> 934 148<631.023 929.09> 1446 20G<442.744 627>
VStem: 974 180<613.071 892.125>
DStem2: 135 0 315 0 0.207912 0.978148<37.4241 871.577 1015.72 1498.83> 820 0 1000 0 0.207912 0.978148<37.4241 781.017>
LayerCount: 3
Fore
SplineSet
795 934 m 3
 605 934 487 808 439 584 c 2
 315 0 l 1
 135 0 l 1
 447 1466 l 1
 627 1466 l 1
 518 957 l 1
 602 1044 725 1082 830 1082 c 3
 1082 1082 1154 933 1154 781 c 3
 1154 740 1148 699 1140 660 c 2
 1000 0 l 1
 820 0 l 1
 964 676 l 2
 971 710 974 740 974 767 c 3
 974 878 915 934 795 934 c 3
EndSplineSet
Validated: 1
Layer: 2
SplineSet
795 934 m 3,0,1
 654 934 654 934 565 844 c 128,-1,2
 476 754 476 754 439 584 c 2,3,-1
 315 0 l 1,4,-1
 135 0 l 1,5,-1
 447 1466 l 1,6,-1
 627 1466 l 1,7,-1
 518 957 l 1,8,9
 578 1019 578 1019 662 1050.5 c 128,-1,10
 746 1082 746 1082 830 1082 c 0,11,12
 921 1082 921 1082 986.5 1057 c 128,-1,13
 1052 1032 1052 1032 1087 988 c 128,-1,14
 1122 944 1122 944 1138 893 c 128,-1,15
 1154 842 1154 842 1154 781 c 0,16,17
 1154 728 1154 728 1140 660 c 2,18,-1
 1000 0 l 1,19,-1
 820 0 l 1,20,-1
 964 676 l 2,21,22
 974 725 974 725 974 767 c 0,23,24
 974 934 974 934 795 934 c 3,0,1
EndSplineSet
EndChar

StartChar: i
Encoding: 105 105 77
Width: 455
Flags: W
HStem: 0 21G<136 320.256> 1042 20G<357.744 542> 1259 207<448 584>
VStem: 136 492
DStem2: 136 0 316 0 0.207912 0.978148<37.4241 1085.78 1324.63 1498.83>
LayerCount: 3
Fore
SplineSet
404 1259 m 1
 448 1466 l 1
 628 1466 l 1
 584 1259 l 1
 404 1259 l 1
136 0 m 1
 362 1062 l 1
 542 1062 l 1
 316 0 l 1
 136 0 l 1
EndSplineSet
Validated: 1
Layer: 2
SplineSet
404 1259 m 1,0,-1
 448 1466 l 1,1,-1
 628 1466 l 1,2,-1
 584 1259 l 1,3,-1
 404 1259 l 1,0,-1
136 0 m 1,4,-1
 362 1062 l 1,5,-1
 542 1062 l 1,6,-1
 316 0 l 1,7,-1
 136 0 l 1,4,-1
EndSplineSet
EndChar

StartChar: j
Encoding: 106 106 78
Width: 455
Flags: W
HStem: -428 148<-156.409 44.4544> 1042 20G<355.753 540> 1257 209<446 581>
DStem2: 43.5038 -428 223.354 -428 0.207912 0.978148<180.336 1523.24 1759.93 1936.3>
LayerCount: 3
Fore
SplineSet
401 1257 m 1
 446 1466 l 1
 626 1466 l 1
 581 1257 l 1
 401 1257 l 1
302 -58 m 2
 243 -336 113 -428 -52 -428 c 3
 -92 -428 -135 -423 -182 -412 c 1
 -152 -272 l 1
 -118 -277 -90 -280 -67 -280 c 3
 30 -280 87 -223 123 -54 c 2
 360 1062 l 1
 540 1062 l 1
 302 -58 l 2
EndSplineSet
Validated: 1
Layer: 2
SplineSet
401 1257 m 1,0,-1
 446 1466 l 1,1,-1
 626 1466 l 1,2,-1
 581 1257 l 1,3,-1
 401 1257 l 1,0,-1
302 -58 m 2,4,5
 260 -256 260 -256 170 -342 c 128,-1,6
 80 -428 80 -428 -52 -428 c 0,7,8
 -114 -428 -114 -428 -182 -412 c 1,9,-1
 -152 -272 l 1,10,11
 -98 -280 -98 -280 -67 -280 c 0,12,13
 8 -280 8 -280 52.5 -229 c 128,-1,14
 97 -178 97 -178 123 -54 c 2,15,-1
 360 1062 l 1,16,-1
 540 1062 l 1,17,-1
 302 -58 l 2,4,5
EndSplineSet
EndChar

StartChar: k
Encoding: 107 107 79
Width: 1024
Flags: W
HStem: 0 21G<136 320.228 785.308 1016> 1042 20G<944.018 1201> 1446 20G<443.744 628>
DStem2: 136 0 316 0 0.207912 0.978148<37.4241 467.728 681.517 1498.83> 450 630 558 543 0.77886 0.627198<0 29.5507 227.116 674.399> 711 668 558 543 0.415341 -0.909666<50.161 642.13>
LayerCount: 3
Fore
SplineSet
136 0 m 1
 448 1466 l 1
 628 1466 l 1
 450 630 l 1
 968 1062 l 1
 1201 1062 l 1
 711 668 l 1
 1016 0 l 1
 794 0 l 1
 558 543 l 1
 405 421 l 1
 316 0 l 1
 136 0 l 1
EndSplineSet
Validated: 1
Layer: 2
SplineSet
136 0 m 1,0,-1
 448 1466 l 1,1,-1
 628 1466 l 1,2,-1
 450 630 l 1,3,-1
 968 1062 l 1,4,-1
 1201 1062 l 1,5,-1
 711 668 l 1,6,-1
 1016 0 l 1,7,-1
 794 0 l 1,8,-1
 558 543 l 1,9,-1
 405 421 l 1,10,-1
 316 0 l 1,11,-1
 136 0 l 1,0,-1
EndSplineSet
EndChar

StartChar: l
Encoding: 108 108 80
Width: 455
Flags: W
HStem: 0 21G<131 315.256> 1446 20G<438.744 623>
VStem: 131 492
DStem2: 131 0 311 0 0.207912 0.978148<37.4241 1498.83>
LayerCount: 3
Fore
SplineSet
131 0 m 1
 443 1466 l 1
 623 1466 l 1
 311 0 l 1
 131 0 l 1
EndSplineSet
Validated: 1
Layer: 2
SplineSet
131 0 m 1,0,-1
 443 1466 l 1,1,-1
 623 1466 l 1,2,-1
 311 0 l 1,3,-1
 131 0 l 1,0,-1
EndSplineSet
EndChar

StartChar: m
Encoding: 109 109 81
Width: 1706
Flags: W
HStem: 0 21G<135 319.252 764 948.251 1393 1577.26> 934 148<660.22 895.595 1287.52 1521.53> 1042 20G<356.744 541>
VStem: 1551 190<582.898 904.216>
DStem2: 135 0 315 0 0.207912 0.978148<37.4241 873.521 984.147 1085.78> 764 0 944 0 0.207912 0.978148<37.4241 806.464> 1393 0 1573 0 0.207912 0.978148<37.4241 806.024>
LayerCount: 3
Fore
SplineSet
912 694 m 2xd0
 920 732 923 764 923 792 c 3
 923 899 867 934 777 934 c 3xd0
 576 934 480 778 433 555 c 2
 315 0 l 1
 135 0 l 1
 361 1062 l 1
 541 1062 l 1xb0
 512 926 l 1
 550 959 655 1082 848 1082 c 3
 1023 1082 1091 1000 1106 896 c 1
 1216 1020 1340 1082 1475 1082 c 3
 1638 1082 1741 1012 1741 843 c 3
 1741 807 1736 768 1727 723 c 2
 1573 0 l 1
 1393 0 l 1
 1536 673 l 2
 1546 719 1551 759 1551 792 c 3
 1551 892 1505 934 1404 934 c 3
 1314 934 1135 897 1076 621 c 2
 944 0 l 1
 764 0 l 1
 912 694 l 2xd0
EndSplineSet
Validated: 1
Layer: 2
SplineSet
912 694 m 2,0,1
 923 746 923 746 923 792 c 0,2,3
 923 869 923 869 886 901.5 c 128,-1,4
 849 934 849 934 777 934 c 0,5,6
 634 934 634 934 552.5 834.5 c 128,-1,7
 471 735 471 735 433 555 c 2,8,-1
 315 0 l 1,9,-1
 135 0 l 1,10,-1
 361 1062 l 1,11,-1
 541 1062 l 1,12,-1
 512 926 l 2,13,14
 514 927 514 927 536.5 948 c 128,-1,15
 559 969 559 969 574 981.5 c 128,-1,16
 589 994 589 994 621.5 1015.5 c 128,-1,17
 654 1037 654 1037 684 1049.5 c 128,-1,18
 714 1062 714 1062 758 1072 c 128,-1,19
 802 1082 802 1082 848 1082 c 0,20,21
 1079 1082 1079 1082 1106 896 c 1,22,23
 1271 1082 1271 1082 1475 1082 c 0,24,25
 1741 1082 1741 1082 1741 843 c 0,26,27
 1741 793 1741 793 1727 723 c 2,28,-1
 1573 0 l 1,29,-1
 1393 0 l 1,30,-1
 1536 673 l 2,31,32
 1551 742 1551 742 1551 792 c 0,33,34
 1551 867 1551 867 1515.5 900.5 c 128,-1,35
 1480 934 1480 934 1404 934 c 0,36,37
 1372 934 1372 934 1340.5 928.5 c 128,-1,38
 1309 923 1309 923 1267 903 c 128,-1,39
 1225 883 1225 883 1190.5 851 c 128,-1,40
 1156 819 1156 819 1124.5 759.5 c 128,-1,41
 1093 700 1093 700 1076 621 c 2,42,-1
 944 0 l 1,43,-1
 764 0 l 1,44,-1
 912 694 l 2,0,1
EndSplineSet
EndChar

StartChar: n
Encoding: 110 110 82
Width: 1139
Flags: W
HStem: 0 21G<135 319.247 820 1004.24> 934 148<631.023 929.09> 1044 20G<356.752 541>
VStem: 974 180<613.071 892.125>
DStem2: 135 0 315 0 0.207912 0.978148<37.4241 871.577 1015.72 1087.74> 820 0 1000 0 0.207912 0.978148<37.4241 781.017>
LayerCount: 3
Fore
SplineSet
795 934 m 3xd0
 605 934 487 808 439 584 c 2
 315 0 l 1
 135 0 l 1
 361 1064 l 1
 541 1064 l 1xb0
 518 957 l 1
 602 1044 725 1082 830 1082 c 3
 1082 1082 1154 933 1154 781 c 3
 1154 740 1148 699 1140 660 c 2
 1000 0 l 1
 820 0 l 1
 964 676 l 2
 971 710 974 740 974 767 c 3
 974 878 915 934 795 934 c 3xd0
EndSplineSet
Validated: 1
Layer: 2
SplineSet
795 934 m 3,0,1
 654 934 654 934 565 844 c 128,-1,2
 476 754 476 754 439 584 c 2,3,-1
 315 0 l 1,4,-1
 135 0 l 1,5,-1
 361 1064 l 1,6,-1
 541 1064 l 1,7,-1
 518 957 l 1,8,9
 578 1019 578 1019 662 1050.5 c 128,-1,10
 746 1082 746 1082 830 1082 c 0,11,12
 921 1082 921 1082 986.5 1057 c 128,-1,13
 1052 1032 1052 1032 1087 988 c 128,-1,14
 1122 944 1122 944 1138 893 c 128,-1,15
 1154 842 1154 842 1154 781 c 0,16,17
 1154 728 1154 728 1140 660 c 2,18,-1
 1000 0 l 1,19,-1
 820 0 l 1,20,-1
 964 676 l 2,21,22
 974 725 974 725 974 767 c 0,23,24
 974 934 974 934 795 934 c 3,0,1
EndSplineSet
EndChar

StartChar: o
Encoding: 111 111 83
Width: 1139
Flags: W
HStem: -11 148<438.565 761.281> 934 148<598.541 913.809>
VStem: 162 184<232.074 629.092> 1012 185<446.06 837.39>
LayerCount: 3
Fore
SplineSet
564 -11 m 3
 300 -11 162 130 162 367 c 3
 162 715 387 1082 796 1082 c 3
 1062 1082 1197 940 1197 706 c 3
 1197 358 973 -11 564 -11 c 3
765 934 m 3
 495 934 346 647 346 398 c 3
 346 236 428 137 595 137 c 3
 865 137 1012 418 1012 667 c 3
 1012 829 932 934 765 934 c 3
EndSplineSet
Validated: 1
Layer: 2
SplineSet
564 -11 m 3,0,1
 368 -11 368 -11 265 88 c 128,-1,2
 162 187 162 187 162 367 c 0,3,4
 162 472 162 472 188 575 c 128,-1,5
 214 678 214 678 267.5 769.5 c 128,-1,6
 321 861 321 861 395.5 930.5 c 128,-1,7
 470 1000 470 1000 573.5 1041 c 128,-1,8
 677 1082 677 1082 796 1082 c 0,9,10
 993 1082 993 1082 1095 983 c 128,-1,11
 1197 884 1197 884 1197 706 c 0,12,13
 1197 601 1197 601 1171 498 c 128,-1,14
 1145 395 1145 395 1091.5 303 c 128,-1,15
 1038 211 1038 211 964 141 c 128,-1,16
 890 71 890 71 786.5 30 c 128,-1,17
 683 -11 683 -11 564 -11 c 3,0,1
765 934 m 3,18,19
 668 934 668 934 586.5 885.5 c 128,-1,20
 505 837 505 837 453.5 759 c 128,-1,21
 402 681 402 681 374 587 c 128,-1,22
 346 493 346 493 346 398 c 0,23,24
 346 274 346 274 409 205.5 c 128,-1,25
 472 137 472 137 595 137 c 0,26,27
 673 137 673 137 741.5 168 c 128,-1,28
 810 199 810 199 858.5 251.5 c 128,-1,29
 907 304 907 304 942.5 372.5 c 128,-1,30
 978 441 978 441 995 516 c 128,-1,31
 1012 591 1012 591 1012 667 c 0,32,33
 1012 792 1012 792 949.5 863 c 128,-1,34
 887 934 887 934 765 934 c 3,18,19
EndSplineSet
EndChar

StartChar: p
Encoding: 112 112 84
Width: 1139
Flags: W
HStem: -422 21G<32 216.252> -11 148<484.895 755.784> 934 148<628.377 902.217> 1042 20G<343.741 528>
VStem: 992 182<434.475 844.33>
DStem2: 32 -422 212 -422 0.207912 0.978148<37.4241 604.83 896.403 1265.38 1449.37 1517.27>
LayerCount: 3
Fore
SplineSet
591 -11 m 3xe8
 473 -11 386 38 330 133 c 1
 212 -422 l 1
 32 -422 l 1
 348 1062 l 1
 528 1062 l 1xd8
 506 959 l 1
 541 986 637 1082 814 1082 c 3
 1055 1082 1174 925 1174 696 c 3
 1174 331 927 -11 591 -11 c 3xe8
765 934 m 3xe8
 657 934 480 840 415 532 c 0
 406 492 402 452 402 414 c 3
 402 261 470 137 603 137 c 3
 843 137 992 427 992 666 c 3
 992 810 932 934 765 934 c 3xe8
EndSplineSet
Validated: 1
Layer: 2
SplineSet
591 -11 m 3,0,1
 415 -11 415 -11 330 133 c 1,2,-1
 212 -422 l 1,3,-1
 32 -422 l 1,4,-1
 348 1062 l 1,5,-1
 528 1062 l 1,6,-1
 506 959 l 2,7,8
 508 961 508 961 524 974 c 128,-1,9
 540 987 540 987 552 995.5 c 128,-1,10
 564 1004 564 1004 586 1018.5 c 128,-1,11
 608 1033 608 1033 630.5 1042.5 c 128,-1,12
 653 1052 653 1052 681.5 1062 c 128,-1,13
 710 1072 710 1072 744 1077 c 128,-1,14
 778 1082 778 1082 814 1082 c 0,15,16
 990 1082 990 1082 1082 977.5 c 128,-1,17
 1174 873 1174 873 1174 696 c 0,18,19
 1174 560 1174 560 1129.5 431.5 c 128,-1,20
 1085 303 1085 303 1009 205.5 c 128,-1,21
 933 108 933 108 823.5 48.5 c 128,-1,22
 714 -11 714 -11 591 -11 c 3,0,1
765 934 m 3,23,24
 721 934 721 934 673 913.5 c 128,-1,25
 625 893 625 893 574.5 849.5 c 128,-1,26
 524 806 524 806 481 723.5 c 128,-1,27
 438 641 438 641 415 532 c 0,28,29
 402 474 402 474 402 414 c 0,30,31
 402 294 402 294 454.5 215.5 c 128,-1,32
 507 137 507 137 603 137 c 0,33,34
 689 137 689 137 764.5 186 c 128,-1,35
 840 235 840 235 888.5 312 c 128,-1,36
 937 389 937 389 964.5 482 c 128,-1,37
 992 575 992 575 992 666 c 0,38,39
 992 742 992 742 971 800 c 128,-1,40
 950 858 950 858 897.5 896 c 128,-1,41
 845 934 845 934 765 934 c 3,23,24
EndSplineSet
EndChar

StartChar: q
Encoding: 113 113 85
Width: 1139
Flags: W
HStem: -422 21G<738 922.259> -11 148<451.902 718.04> 934 148<612.105 882.126> 1042 20G<1049.73 1234>
VStem: 182 183<230.904 628.026>
DStem2: 738 -422 918 -422 0.207912 0.978148<37.4241 567.406 747.008 1120.75 1411.95 1517.27>
LayerCount: 3
Fore
SplineSet
776 1082 m 3xe8
 953 1082 1009 986 1032 959 c 1
 1054 1062 l 1
 1234 1062 l 1xd8
 918 -422 l 1
 738 -422 l 1
 856 133 l 1
 760 38 653 -11 535 -11 c 3
 303 -11 182 146 182 371 c 3
 182 707 409 1082 776 1082 c 3xe8
585 137 m 3
 748 137 898 328 941 532 c 0
 953 588 958 637 958 679 c 3
 958 871 851 934 763 934 c 3xe8
 502 934 365 620 365 399 c 3
 365 198 487 137 585 137 c 3
EndSplineSet
Validated: 1
Layer: 2
SplineSet
776 1082 m 3,0,1
 812 1082 812 1082 844 1077 c 128,-1,2
 876 1072 876 1072 900.5 1062 c 128,-1,3
 925 1052 925 1052 943.5 1042.5 c 128,-1,4
 962 1033 962 1033 978 1018 c 128,-1,5
 994 1003 994 1003 1001.5 995.5 c 128,-1,6
 1009 988 1009 988 1020 974 c 128,-1,7
 1031 960 1031 960 1032 959 c 2,8,-1
 1054 1062 l 1,9,-1
 1234 1062 l 1,10,-1
 918 -422 l 1,11,-1
 738 -422 l 1,12,-1
 856 133 l 1,13,14
 710 -11 710 -11 535 -11 c 0,15,16
 365 -11 365 -11 273.5 93 c 128,-1,17
 182 197 182 197 182 371 c 0,18,19
 182 472 182 472 208 573.5 c 128,-1,20
 234 675 234 675 286 766.5 c 128,-1,21
 338 858 338 858 408 928.5 c 128,-1,22
 478 999 478 999 573.5 1040.5 c 128,-1,23
 669 1082 669 1082 776 1082 c 3,0,1
585 137 m 3,24,25
 664 137 664 137 739 193.5 c 128,-1,26
 814 250 814 250 866.5 339.5 c 128,-1,27
 919 429 919 429 941 532 c 0,28,29
 958 611 958 611 958 679 c 0,30,31
 958 748 958 748 940.5 799.5 c 128,-1,32
 923 851 923 851 893.5 879 c 128,-1,33
 864 907 864 907 831 920.5 c 128,-1,34
 798 934 798 934 763 934 c 0,35,36
 688 934 688 934 622 899.5 c 128,-1,37
 556 865 556 865 510 809 c 128,-1,38
 464 753 464 753 430.5 682.5 c 128,-1,39
 397 612 397 612 381 539.5 c 128,-1,40
 365 467 365 467 365 399 c 0,41,42
 365 327 365 327 385 274 c 128,-1,43
 405 221 405 221 438.5 192.5 c 128,-1,44
 472 164 472 164 508.5 150.5 c 128,-1,45
 545 137 545 137 585 137 c 3,24,25
EndSplineSet
EndChar

StartChar: r
Encoding: 114 114 86
Width: 682
Flags: W
HStem: 0 21G<133 317.235> 934 148<618.022 864.929> 1042 20G<354.744 539>
DStem2: 133 0 313 0 0.207912 0.978148<37.4241 880.143 1017.88 1085.78>
LayerCount: 3
Fore
SplineSet
717 934 m 3xc0
 594 934 484 808 432 562 c 2
 313 0 l 1
 133 0 l 1
 359 1062 l 1
 539 1062 l 1xa0
 517 959 l 1
 556 995 646 1082 763 1082 c 3
 828 1082 884 1066 930 1033 c 1
 838 895 l 1
 800 921 760 934 717 934 c 3xc0
EndSplineSet
Validated: 1
Layer: 2
SplineSet
717 934 m 3,0,1
 622 934 622 934 546 838 c 128,-1,2
 470 742 470 742 432 562 c 2,3,-1
 313 0 l 1,4,-1
 133 0 l 1,5,-1
 359 1062 l 1,6,-1
 539 1062 l 1,7,-1
 517 959 l 1,8,9
 543 983 543 983 558 995.5 c 128,-1,10
 573 1008 573 1008 608.5 1032.5 c 128,-1,11
 644 1057 644 1057 683 1069.5 c 128,-1,12
 722 1082 722 1082 763 1082 c 0,13,14
 862 1082 862 1082 930 1033 c 1,15,-1
 838 895 l 1,16,17
 781 934 781 934 717 934 c 3,0,1
EndSplineSet
EndChar

StartChar: s
Encoding: 115 115 87
Width: 1024
Flags: W
HStem: -11 148<386.729 717.665> 934 148<529.987 847.575>
VStem: 133 183<203.976 355> 250 185<684.167 853.055> 833 189<235.45 408.969> 891 181<760 889.047>
LayerCount: 3
Fore
SplineSet
515 -11 m 3xd8
 272 -11 133 95 133 288 c 3
 133 309 135 332 138 355 c 1
 316 355 l 1
 316 332 l 2
 316 210 391 137 545 137 c 3
 685 137 833 219 833 332 c 0xe8
 833 416 733 440 616 464 c 0
 424 502 250 534 250 707 c 3
 250 934 460 1082 714 1082 c 3
 1009 1082 1072 924 1072 815 c 3
 1072 794 1070 776 1067 760 c 1
 891 760 l 1
 891 778 l 2xd4
 891 873 835 934 698 934 c 3
 564 934 435 860 435 752 c 3
 435 682 519 659 652 633 c 0
 834 597 1022 571 1022 393 c 3
 1022 154 775 -11 515 -11 c 3xd8
EndSplineSet
Validated: 1
Layer: 2
SplineSet
515 -11 m 3,0,1
 332 -11 332 -11 232.5 66.5 c 128,-1,2
 133 144 133 144 133 288 c 0,3,4
 133 317 133 317 138 355 c 1,5,-1
 316 355 l 1,6,-1
 316 332 l 2,7,8
 316 239 316 239 373.5 188 c 128,-1,9
 431 137 431 137 545 137 c 0,10,11
 655 137 655 137 744 193.5 c 128,-1,12
 833 250 833 250 833 332 c 0,13,14
 833 362 833 362 817 384 c 128,-1,15
 801 406 801 406 766.5 421 c 128,-1,16
 732 436 732 436 701 444.5 c 128,-1,17
 670 453 670 453 616 464 c 0,18,19
 445.4386732 497.756929262 445.4386732 497.756929262 382.77890122 524.693187731 c 0,20,21
 259.141956676 577.842386799 259.141956676 577.842386799 250.681438911 688.696671339 c 0,22,23
 250 697.625252901 250 697.625252901 250 707 c 0,24,25
 250 818 250 818 313 904.5 c 128,-1,26
 376 991 376 991 481.5 1036.5 c 128,-1,27
 587 1082 587 1082 714 1082 c 0,28,29
 799 1082 799 1082 864.5 1064.5 c 128,-1,30
 930 1047 930 1047 968 1020 c 128,-1,31
 1006 993 1006 993 1030.5 956 c 128,-1,32
 1055 919 1055 919 1063.5 885 c 128,-1,33
 1072 851 1072 851 1072 815 c 0,34,35
 1072 787 1072 787 1067 760 c 1,36,-1
 891 760 l 1,37,-1
 891 778 l 2,38,39
 891 934 891 934 698 934 c 0,40,41
 594 934 594 934 514.5 882 c 128,-1,42
 435 830 435 830 435 752 c 0,43,44
 435 704 435 704 486 679.5 c 128,-1,45
 537 655 537 655 652 633 c 0,46,47
 812.495220369 601.253692674 812.495220369 601.253692674 863.383531084 583.35279253 c 0,48,49
 993.744390904 537.495960152 993.744390904 537.495960152 1016.55863688 441.982592156 c 0,50,51
 1022 419.201961178 1022 419.201961178 1022 393 c 0,52,53
 1022 306 1022 306 979.5 229.5 c 128,-1,54
 937 153 937 153 866.5 101 c 128,-1,55
 796 49 796 49 704 19 c 128,-1,56
 612 -11 612 -11 515 -11 c 3,0,1
EndSplineSet
EndChar

StartChar: t
Encoding: 116 116 88
Width: 569
Flags: W
HStem: -11 148<401.08 554.109> 914 148<244 361 573 691>
VStem: 213 184<142.673 423.211>
DStem2: 165.132 -11 344.958 -11 0.207912 0.978148<263.528 945.51 1134.35 1476.25>
LayerCount: 3
Fore
SplineSet
410 295 m 2
 403 262 397 232 397 208 c 3
 397 164 416 137 478 137 c 3
 495 137 522 140 559 145 c 1
 555 4 l 1
 505 -6 456 -11 409 -11 c 3
 262 -11 213 46 213 154 c 3
 213 198 221 252 234 313 c 2
 361 914 l 1
 212 914 l 1
 244 1062 l 1
 393 1062 l 1
 472 1433 l 1
 652 1433 l 1
 573 1062 l 1
 723 1062 l 1
 691 914 l 1
 541 914 l 1
 410 295 l 2
EndSplineSet
Validated: 1
Layer: 2
SplineSet
410 295 m 2,0,1
 397 234 397 234 397 208 c 0,2,3
 397 173 397 173 415.5 155 c 128,-1,4
 434 137 434 137 478 137 c 0,5,6
 500 137 500 137 559 145 c 1,7,-1
 555 4 l 1,8,9
 480 -11 480 -11 409 -11 c 0,10,11
 302 -11 302 -11 257.5 29.5 c 128,-1,12
 213 70 213 70 213 154 c 0,13,14
 213 214 213 214 234 313 c 2,15,-1
 361 914 l 1,16,-1
 212 914 l 1,17,-1
 244 1062 l 1,18,-1
 393 1062 l 1,19,-1
 472 1433 l 1,20,-1
 652 1433 l 1,21,-1
 573 1062 l 1,22,-1
 723 1062 l 1,23,-1
 691 914 l 1,24,-1
 541 914 l 1,25,-1
 410 295 l 2,0,1
EndSplineSet
EndChar

StartChar: u
Encoding: 117 117 89
Width: 1139
Flags: W
HStem: -11 148<417.012 737.678> 1042 20G<325.73 510 1010.73 1195>
VStem: 178 181<194.756 553.133>
DStem2: 101.301 -11 281.277 -11 0.207912 0.978148<377.424 1097.1> 786.662 -11 966.662 -11 0.207912 0.978148<48.6698 75.5719 228.964 1097.03>
LayerCount: 3
Fore
SplineSet
368 397 m 2
 362 368 359 342 359 319 c 3
 359 176 467 137 563 137 c 3
 733 137 836 222 872 392 c 2
 1015 1062 l 1
 1195 1062 l 1
 969 0 l 1
 789 0 l 1
 802 63 l 1
 749 15 660 -11 539 -11 c 3
 298 -11 178 113 178 300 c 3
 178 335 183 372 191 411 c 2
 330 1062 l 1
 510 1062 l 1
 368 397 l 2
EndSplineSet
Validated: 1
Layer: 2
SplineSet
368 397 m 2,0,1
 359 353.5 359 353.5 359 319 c 0,2,3
 359 268 359 268 377 230.5 c 128,-1,4
 395 193 395 193 425.5 173.5 c 128,-1,5
 456 154 456 154 490 145.5 c 128,-1,6
 524 137 524 137 563 137 c 0,7,8
 818 137 818 137 872 392 c 2,9,-1
 1015 1062 l 1,10,-1
 1195 1062 l 1,11,-1
 969 0 l 1,12,-1
 789 0 l 1,13,-1
 802 63 l 1,14,15
 720 -11 720 -11 539 -11 c 0,16,17
 363 -11 363 -11 270.5 72.5 c 128,-1,18
 178 156 178 156 178 300 c 0,19,20
 178 348 178 348 191 411 c 2,21,-1
 330 1062 l 1,22,-1
 510 1062 l 1,23,-1
 368 397 l 2,0,1
EndSplineSet
EndChar

StartChar: v
Encoding: 118 118 90
Width: 1024
Flags: W
HStem: 0 21G<425.667 610.808> 1042 20G<252 445.405 1024.42 1226>
DStem2: 442 1062 252 1062 0.164399 -0.986394<0 804.404> 577 269 599 0 0.508401 0.86112<0 916.225>
LayerCount: 3
Fore
SplineSet
429 0 m 1
 252 1062 l 1
 442 1062 l 1
 577 269 l 1
 1036 1062 l 1
 1226 1062 l 1
 599 0 l 1
 429 0 l 1
EndSplineSet
Validated: 1
Layer: 2
SplineSet
429 0 m 1,0,-1
 252 1062 l 1,1,-1
 442 1062 l 1,2,-1
 577 269 l 1,3,-1
 1036 1062 l 1,4,-1
 1226 1062 l 1,5,-1
 599 0 l 1,6,-1
 429 0 l 1,0,-1
EndSplineSet
EndChar

StartChar: w
Encoding: 119 119 91
Width: 1479
Flags: W
HStem: 0 21G<329.136 528.669 973.641 1172.91> 1042 20G<232 419.422 864.245 1059.54 1504.37 1689>
DStem2: 418 1062 232 1062 0.0928179 -0.995683<0 817.861> 476 246 519 0 0.43838 0.89879<0 705.219> 1058 1062 914 817 0.0744562 -0.997224<233.598 818.426> 1121 246 1163 0 0.443835 0.896108<0 905.652>
LayerCount: 3
Fore
SplineSet
331 0 m 1
 232 1062 l 1
 418 1062 l 1
 476 246 l 1
 874 1062 l 1
 1058 1062 l 1
 1121 246 l 1
 1514 1062 l 1
 1689 1062 l 1
 1163 0 l 1
 975 0 l 1
 957 265 l 1
 930 623 916 807 914 817 c 1
 519 0 l 1
 331 0 l 1
EndSplineSet
Validated: 1
Layer: 2
SplineSet
331 0 m 1,0,-1
 232 1062 l 1,1,-1
 418 1062 l 1,2,-1
 476 246 l 1,3,-1
 874 1062 l 1,4,-1
 1058 1062 l 1,5,-1
 1121 246 l 1,6,-1
 1514 1062 l 1,7,-1
 1689 1062 l 1,8,-1
 1163 0 l 1,9,-1
 975 0 l 1,10,-1
 957 265 l 1,11,12
 916 806 916 806 914 817 c 1,13,-1
 519 0 l 1,14,-1
 331 0 l 1,0,-1
EndSplineSet
EndChar

StartChar: x
Encoding: 120 120 92
Width: 1024
Flags: W
HStem: 0 21G<15 250.232 778.74 1009> 1042 20G<270 503.261 973.25 1207>
DStem2: 15 0 233 0 0.677042 0.735945<147.595 147.595 938.636 1443.04> 726 562 594 419 0.43839 -0.898785<70.6587 532.297>
LayerCount: 3
Fore
SplineSet
15 0 m 1
 513 552 l 1
 270 1062 l 1
 495 1062 l 1
 647 694 l 1
 992 1062 l 1
 1207 1062 l 1
 726 562 l 1
 1009 0 l 1
 788 0 l 1
 594 419 l 1
 233 0 l 1
 15 0 l 1
EndSplineSet
Validated: 1
Layer: 2
SplineSet
15 0 m 1,0,-1
 513 552 l 1,1,-1
 270 1062 l 1,2,-1
 495 1062 l 1,3,-1
 647 694 l 1,4,-1
 992 1062 l 1,5,-1
 1207 1062 l 1,6,-1
 726 562 l 1,7,-1
 1009 0 l 1,8,-1
 788 0 l 1,9,-1
 594 419 l 1,10,-1
 233 0 l 1,11,-1
 15 0 l 1,0,-1
EndSplineSet
EndChar

StartChar: y
Encoding: 121 121 93
Width: 1024
Flags: W
HStem: -428 148<49.9726 302.923> 1042 20G<259 455.671 1040.76 1232>
VStem: 259 194<975.822 1062>
DStem2: 568 201 602 -1 0.509847 0.860265<0 987.454>
LayerCount: 3
Fore
SplineSet
39 -415 m 1
 50 -266 l 1
 82 -275 117 -280 154 -280 c 3
 352 -280 408 -111 436 -2 c 1
 259 1062 l 1
 453 1062 l 1
 568 201 l 1
 1052 1062 l 1
 1232 1062 l 1
 602 -1 l 1
 545 -181 441 -428 148 -428 c 3
 106 -428 66 -427 39 -415 c 1
EndSplineSet
Validated: 1
Layer: 2
SplineSet
39 -415 m 1,0,-1
 50 -266 l 1,1,2
 100 -280 100 -280 154 -280 c 0,3,4
 211 -280 211 -280 257 -260.5 c 128,-1,5
 303 -241 303 -241 331 -214.5 c 128,-1,6
 359 -188 359 -188 381.5 -146.5 c 128,-1,7
 404 -105 404 -105 415 -74 c 128,-1,8
 426 -43 426 -43 436 -2 c 1,9,-1
 259 1062 l 1,10,-1
 453 1062 l 1,11,-1
 568 201 l 1,12,-1
 1052 1062 l 1,13,-1
 1232 1062 l 1,14,-1
 602 -1 l 1,15,16
 588 -46 588 -46 574.5 -82 c 128,-1,17
 561 -118 561 -118 538.5 -164 c 128,-1,18
 516 -210 516 -210 491.5 -245 c 128,-1,19
 467 -280 467 -280 431.5 -316 c 128,-1,20
 396 -352 396 -352 356 -375.5 c 128,-1,21
 316 -399 316 -399 262.5 -413.5 c 128,-1,22
 209 -428 209 -428 148 -428 c 0,23,24
 68 -428 68 -428 39 -415 c 1,0,-1
EndSplineSet
EndChar

StartChar: z
Encoding: 122 122 94
Width: 1024
Flags: W
HStem: 0 148<293 980> 914 148<286 910>
DStem2: 71 148 293 148 0.742467 0.669882<164.828 1136.06>
LayerCount: 3
Fore
SplineSet
40 0 m 1
 71 148 l 1
 910 914 l 1
 254 914 l 1
 286 1062 l 1
 1174 1062 l 1
 1142 914 l 1
 293 148 l 1
 1011 148 l 1
 980 0 l 1
 40 0 l 1
EndSplineSet
Validated: 1
Layer: 2
SplineSet
40 0 m 1,0,-1
 71 148 l 1,1,-1
 910 914 l 1,2,-1
 254 914 l 1,3,-1
 286 1062 l 1,4,-1
 1174 1062 l 1,5,-1
 1142 914 l 1,6,-1
 293 148 l 1,7,-1
 1011 148 l 1,8,-1
 980 0 l 1,9,-1
 40 0 l 1,0,-1
EndSplineSet
EndChar

StartChar: braceleft
Encoding: 123 123 95
Width: 684
Flags: W
HStem: -431 148<428.762 544> 456 148<185 267.35> 1343 148<752.917 921>
VStem: 233 186<-273.042 62.9824> 312 178<7.97865 413.507>
CounterMasks: 1 e0
LayerCount: 3
Fore
SplineSet
233 -225 m 3xf0
 233 -102 312 173 312 295 c 3
 312 391 273 440 154 456 c 1
 185 604 l 1
 384 626 425 757 476 998 c 0
 548 1335 597 1491 897 1491 c 2
 953 1491 l 1
 921 1343 l 1
 890 1343 l 2
 746 1343 723 1330 648 975 c 0
 586 685 527 620 348 530 c 1
 449 479 490 413 490 297 c 3xe8
 490 187 419 -106 419 -184 c 3
 419 -270 457 -283 545 -283 c 2
 576 -283 l 1
 544 -431 l 1
 488 -431 l 2
 293 -431 233 -360 233 -225 c 3xf0
EndSplineSet
Validated: 1
Layer: 2
SplineSet
233 -225 m 3,0,1
 233 -163 233 -163 272.5 35.5 c 128,-1,2
 312 234 312 234 312 295 c 0,3,4
 312 369 312 369 276.5 406.5 c 128,-1,5
 241 444 241 444 154 456 c 1,6,-1
 185 604 l 1,7,8
 227 609 227 609 261 621 c 128,-1,9
 295 633 295 633 320.5 649 c 128,-1,10
 346 665 346 665 367 693 c 128,-1,11
 388 721 388 721 402.5 748 c 128,-1,12
 417 775 417 775 431 818.5 c 128,-1,13
 445 862 445 862 454.5 900.5 c 128,-1,14
 464 939 464 939 476 998 c 0,15,16
 492 1071 492 1071 503 1117 c 128,-1,17
 514 1163 514 1163 530 1216.5 c 128,-1,18
 546 1270 546 1270 562 1302.5 c 128,-1,19
 578 1335 578 1335 601 1370 c 128,-1,20
 624 1405 624 1405 651 1424.5 c 128,-1,21
 678 1444 678 1444 714.5 1461 c 128,-1,22
 751 1478 751 1478 796 1484.5 c 128,-1,23
 841 1491 841 1491 897 1491 c 2,24,-1
 953 1491 l 1,25,-1
 921 1343 l 1,26,-1
 890 1343 l 2,27,28
 859 1343 859 1343 841 1342 c 128,-1,29
 823 1341 823 1341 802 1335 c 128,-1,30
 781 1329 781 1329 769.5 1320.5 c 128,-1,31
 758 1312 758 1312 743 1292 c 128,-1,32
 728 1272 728 1272 719 1247.5 c 128,-1,33
 710 1223 710 1223 697.5 1182 c 128,-1,34
 685 1141 685 1141 674 1093 c 128,-1,35
 663 1045 663 1045 648 975 c 0,36,37
 617 829 617 829 580.5 748.5 c 128,-1,38
 544 668 544 668 494 623 c 128,-1,39
 444 578 444 578 348 530 c 1,40,41
 424 492 424 492 457 438 c 128,-1,42
 490 384 490 384 490 297 c 0,43,44
 490 238 490 238 454.5 44.5 c 128,-1,45
 419 -149 419 -149 419 -184 c 0,46,47
 419 -245 419 -245 446.5 -264 c 128,-1,48
 474 -283 474 -283 545 -283 c 2,49,-1
 576 -283 l 1,50,-1
 544 -431 l 1,51,-1
 488 -431 l 2,52,53
 347 -431 347 -431 290 -381 c 128,-1,54
 233 -331 233 -331 233 -225 c 3,0,1
EndSplineSet
EndChar

StartChar: bar
Encoding: 124 124 96
Width: 532
Flags: W
VStem: 84 589
DStem2: 84 -431 264 -431 0.207912 0.978148<37.4241 1965.04>
LayerCount: 3
Fore
SplineSet
84 -431 m 1
 493 1491 l 1
 673 1491 l 1
 264 -431 l 1
 84 -431 l 1
EndSplineSet
Validated: 1
Layer: 2
SplineSet
84 -431 m 1,0,-1
 493 1491 l 1,1,-1
 673 1491 l 1,2,-1
 264 -431 l 1,3,-1
 84 -431 l 1,0,-1
EndSplineSet
EndChar

StartChar: braceright
Encoding: 125 125 97
Width: 684
Flags: W
HStem: -431 148<-12 146.039> 456 148<639.964 724> 1343 148<365 479.977>
VStem: 420 179<646.54 1054.1> 494 182<1007.47 1333.34>
CounterMasks: 1 e0
LayerCount: 3
Fore
SplineSet
755 604 m 1xf0
 724 456 l 1
 518 430 487 315 430 49 c 0
 364 -262 312 -431 12 -431 c 2
 -44 -431 l 1
 -12 -283 l 1
 19 -283 l 2
 163 -283 187 -248 257 80 c 0
 313 344 379 454 562 530 c 1
 466 591 420 641 420 758 c 3xf0
 420 862 494 1180 494 1250 c 3
 494 1338 453 1343 364 1343 c 2
 333 1343 l 1
 365 1491 l 1
 421 1491 l 2
 615 1491 676 1426 676 1289 c 3xe8
 676 1172 599 902 599 772 c 3
 599 673 637 618 755 604 c 1xf0
EndSplineSet
Validated: 1
Layer: 2
SplineSet
755 604 m 1,0,-1
 724 456 l 1,1,2
 685 451 685 451 654.5 442.5 c 128,-1,3
 624 434 624 434 599 418 c 128,-1,4
 574 402 574 402 555.5 386.5 c 128,-1,5
 537 371 537 371 521 342 c 128,-1,6
 505 313 505 313 494 288.5 c 128,-1,7
 483 264 483 264 471 220.5 c 128,-1,8
 459 177 459 177 451 142.5 c 128,-1,9
 443 108 443 108 430 49 c 128,-1,10
 417 -10 417 -10 408 -49.5 c 128,-1,11
 399 -89 399 -89 385.5 -136.5 c 128,-1,12
 372 -184 372 -184 359 -214.5 c 128,-1,13
 346 -245 346 -245 327.5 -279 c 128,-1,14
 309 -313 309 -313 288 -334 c 128,-1,15
 267 -355 267 -355 239 -375.5 c 128,-1,16
 211 -396 211 -396 178 -407 c 128,-1,17
 145 -418 145 -418 103.5 -424.5 c 128,-1,18
 62 -431 62 -431 12 -431 c 2,19,-1
 -44 -431 l 1,20,-1
 -12 -283 l 1,21,-1
 19 -283 l 2,22,23
 58 -283 58 -283 82 -279.5 c 128,-1,24
 106 -276 106 -276 129 -261 c 128,-1,25
 152 -246 152 -246 166 -225 c 128,-1,26
 180 -204 180 -204 196 -159 c 128,-1,27
 212 -114 212 -114 225 -61.5 c 128,-1,28
 238 -9 238 -9 257 80 c 0,29,30
 300 282 300 282 363.5 378 c 128,-1,31
 427 474 427 474 562 530 c 1,32,33
 485 579 485 579 452.5 627 c 128,-1,34
 420 675 420 675 420 758 c 0,35,36
 420 814 420 814 457 1016.5 c 128,-1,37
 494 1219 494 1219 494 1250 c 0,38,39
 494 1311 494 1311 466.5 1327 c 128,-1,40
 439 1343 439 1343 364 1343 c 2,41,-1
 333 1343 l 1,42,-1
 365 1491 l 1,43,-1
 421 1491 l 2,44,45
 563 1491 563 1491 619.5 1443 c 128,-1,46
 676 1395 676 1395 676 1289 c 0,47,48
 676 1232 676 1232 637.5 1035.5 c 128,-1,49
 599 839 599 839 599 772 c 0,50,51
 599 695 599 695 634 654.5 c 128,-1,52
 669 614 669 614 755 604 c 1,0,-1
EndSplineSet
EndChar

StartChar: asciitilde
Encoding: 126 126 98
Width: 1196
Flags: W
HStem: 568 170<853.67 1145.37> 702 170<355.398 660.679>
LayerCount: 3
Fore
SplineSet
497 702 m 3x40
 395 702 317 654 207 566 c 1
 247 752 l 1
 335 832 435 872 550 872 c 3x40
 744 872 873 738 1009 738 c 3
 1112 738 1228 816 1296 875 c 1
 1255 682 l 1
 1153 603 1065 568 954 568 c 3x80
 756 568 659 702 497 702 c 3x40
EndSplineSet
Validated: 1
Layer: 2
SplineSet
497 702 m 3,0,1
 425 702 425 702 361 670 c 128,-1,2
 297 638 297 638 207 566 c 1,3,-1
 247 752 l 1,4,5
 379 872 379 872 550 872 c 0,6,7
 615 872 615 872 684 851 c 128,-1,8
 753 830 753 830 801.5 805 c 128,-1,9
 850 780 850 780 907 759 c 128,-1,10
 964 738 964 738 1009 738 c 0,11,12
 1079 738 1079 738 1156 779 c 128,-1,13
 1233 820 1233 820 1296 875 c 1,14,-1
 1255 682 l 1,15,16
 1178 622 1178 622 1107 595 c 128,-1,17
 1036 568 1036 568 954 568 c 0,18,19
 888 568 888 568 822 589 c 128,-1,20
 756 610 756 610 711.5 635 c 128,-1,21
 667 660 667 660 609 681 c 128,-1,22
 551 702 551 702 497 702 c 3,0,1
EndSplineSet
EndChar

StartChar: exclamdown
Encoding: 161 161 100
Width: 569
Flags: W
HStem: 0 21G<198 382.257> 1065 20G<467.353 565> 1256 194<506 645>
VStem: 473 92<1034.22 1085>
DStem2: 198 0 378 0 0.207912 0.978148<37.4241 461.104 1321.49 1482.35>
LayerCount: 3
Fore
SplineSet
294 451 m 1
 473 1085 l 1
 565 1085 l 1
 474 451 l 1
 378 0 l 1
 198 0 l 1
 294 451 l 1
465 1256 m 1
 506 1450 l 1
 686 1450 l 1
 645 1256 l 1
 465 1256 l 1
EndSplineSet
Validated: 1
Layer: 2
SplineSet
294 451 m 1,0,-1
 473 1085 l 1,1,-1
 565 1085 l 1,2,-1
 474 451 l 1,3,-1
 378 0 l 1,4,-1
 198 0 l 1,5,-1
 294 451 l 1,0,-1
465 1256 m 1,6,-1
 506 1450 l 1,7,-1
 686 1450 l 1,8,-1
 645 1256 l 1,9,-1
 465 1256 l 1,6,-1
EndSplineSet
EndChar

StartChar: cent
Encoding: 162 162 101
Width: 1118
Flags: W
HStem: 6 153<476.76 525> 965 149<941 1034.35> 1455 20G<833.702 1018>
VStem: 213 183<244.665 651.703>
DStem2: 447 -361 627 -361 0.207912 0.978148<37.4241 375.197 563.062 1351.53 1545.48 1877.17>
LayerCount: 3
Fore
SplineSet
838 1475 m 1
 1018 1475 l 1
 941 1114 l 1
 1046 1102 1135 1072 1195 1037 c 1
 1153 837 l 1
 1143 837 l 1
 1059 922 982 954 909 965 c 1
 737 153 l 1
 816 163 904 194 1025 281 c 1
 1035 281 l 1
 993 83 l 1
 862 28 779 9 705 3 c 1
 627 -361 l 1
 447 -361 l 1
 525 6 l 1
 310 37 213 186 213 390 c 3
 213 759 459 1067 760 1112 c 1
 838 1475 l 1
728 961 m 1
 595 929 396 755 396 415 c 3
 396 274 455 188 558 159 c 1
 728 961 l 1
EndSplineSet
Validated: 1
Layer: 2
SplineSet
838 1475 m 1,0,-1
 1018 1475 l 1,1,-1
 941 1114 l 1,2,3
 1093 1097 1093 1097 1195 1037 c 1,4,-1
 1153 837 l 1,5,-1
 1143 837 l 1,6,7
 1035 946 1035 946 909 965 c 1,8,-1
 737 153 l 1,9,10
 870 170 870 170 1025 281 c 1,11,-1
 1035 281 l 1,12,-1
 993 83 l 1,13,14
 826 13 826 13 705 3 c 1,15,-1
 627 -361 l 1,16,-1
 447 -361 l 1,17,-1
 525 6 l 1,18,19
 369 29 369 29 291 130 c 128,-1,20
 213 231 213 231 213 390 c 0,21,22
 213 526 213 526 256.5 652 c 128,-1,23
 300 778 300 778 373.5 873 c 128,-1,24
 447 968 447 968 547.5 1031.5 c 128,-1,25
 648 1095 648 1095 760 1112 c 1,26,-1
 838 1475 l 1,0,-1
728 961 m 1,27,28
 686 951 686 951 642 925 c 128,-1,29
 598 899 598 899 553.5 852.5 c 128,-1,30
 509 806 509 806 474.5 745.5 c 128,-1,31
 440 685 440 685 418 599 c 128,-1,32
 396 513 396 513 396 415 c 0,33,34
 396 205 396 205 558 159 c 1,35,-1
 728 961 l 1,27,28
EndSplineSet
EndChar

StartChar: sterling
Encoding: 163 163 102
Width: 1118
Flags: W
HStem: 0 206<133 226.688> 0 170<297 1031> 597 170<293 418 634 974> 1264 206<1191.43 1270> 1348 170<853.214 1196.66>
DStem2: 291.104 0 470.669 0 0.207912 0.978148<396.833 610.337 821.531 1310.83>
LayerCount: 3
Fore
SplineSet
588 552 m 1x28
 541 330 368 217 299 181 c 1
 297 170 l 1
 1067 170 l 1
 1031 0 l 1
 89 0 l 1x68
 133 206 l 1
 307 255 376 398 418 597 c 1
 257 597 l 1
 293 767 l 1
 454 767 l 1
 519 1071 l 2
 576 1340 782 1518 1031 1518 c 3xa8
 1112 1518 1160 1516 1313 1470 c 1
 1270 1264 l 1
 1260 1264 l 1x30
 1185 1325 1093 1348 1014 1348 c 3
 840 1348 733 1232 695 1052 c 2
 634 767 l 1
 1010 767 l 1
 974 597 l 1
 598 597 l 1
 588 552 l 1x28
EndSplineSet
Validated: 1
Layer: 2
SplineSet
588 552 m 1,0,1
 572 474 572 474 534.5 407 c 128,-1,2
 497 340 497 340 450.5 295 c 128,-1,3
 404 250 404 250 368.5 224.5 c 128,-1,4
 333 199 333 199 299 181 c 1,5,-1
 297 170 l 1,6,-1
 1067 170 l 1,7,-1
 1031 0 l 1,8,-1
 89 0 l 1,9,-1
 133 206 l 1,10,11
 256 241 256 241 319.5 337 c 128,-1,12
 383 433 383 433 418 597 c 1,13,-1
 257 597 l 1,14,-1
 293 767 l 1,15,-1
 454 767 l 1,16,-1
 519 1071 l 2,17,18
 562 1272 562 1272 703 1395 c 128,-1,19
 844 1518 844 1518 1031 1518 c 0,20,21
 1100 1518 1100 1518 1153.5 1510 c 128,-1,22
 1207 1502 1207 1502 1313 1470 c 1,23,-1
 1270 1264 l 1,24,-1
 1260 1264 l 1,25,26
 1157 1348 1157 1348 1014 1348 c 0,27,28
 887 1348 887 1348 805.5 1269.5 c 128,-1,29
 724 1191 724 1191 695 1052 c 2,30,-1
 634 767 l 1,31,-1
 1010 767 l 1,32,-1
 974 597 l 1,33,-1
 598 597 l 1,34,-1
 588 552 l 1,0,1
EndSplineSet
EndChar

StartChar: currency
Encoding: 164 164 103
Width: 1118
Flags: W
HStem: 326 170<569.606 779.699> 826 170<621.593 831.785>
VStem: 360 182<523.891 748.047> 860 184<575.559 798.07>
DStem2: 123 273 205 164 0.771268 0.636511<0 347.014 1038.78 1388.7> 418 1157 288 1051 0.61927 -0.785178<2.72372 280.272 850.286 1126.51>
LayerCount: 3
Fore
SplineSet
360 597 m 3
 360 702 406 776 455 835 c 1
 288 1051 l 1
 418 1157 l 1
 587 944 l 1
 654 982 720 996 772 996 c 3
 842 996 899 971 937 945 c 1
 1194 1157 l 1
 1281 1052 l 1
 1021 836 l 1
 1036 800 1044 767 1044 729 c 3
 1044 630 1011 562 946 486 c 1
 1115 272 l 1
 986 166 l 1
 817 378 l 1
 746 340 700 326 629 326 c 3
 559 326 501 353 466 379 c 1
 205 164 l 1
 123 273 l 1
 380 486 l 1
 365 522 360 561 360 597 c 3
736 826 m 3
 651 826 542 744 542 624 c 3
 542 549 594 496 665 496 c 3
 751 496 860 578 860 698 c 3
 860 773 808 826 736 826 c 3
EndSplineSet
Validated: 1
Layer: 2
SplineSet
360 597 m 3,0,1
 360 721 360 721 455 835 c 1,2,-1
 288 1051 l 1,3,-1
 418 1157 l 1,4,-1
 587 944 l 1,5,6
 679 996 679 996 772 996 c 0,7,8
 862 996 862 996 937 945 c 1,9,-1
 1194 1157 l 1,10,-1
 1281 1052 l 1,11,-1
 1021 836 l 1,12,13
 1044 781 1044 781 1044 729 c 0,14,15
 1044 657 1044 657 1020.5 601.5 c 128,-1,16
 997 546 997 546 946 486 c 1,17,-1
 1115 272 l 1,18,-1
 986 166 l 1,19,-1
 817 378 l 1,20,21
 763 349 763 349 722 337.5 c 128,-1,22
 681 326 681 326 629 326 c 0,23,24
 537 326 537 326 466 379 c 1,25,-1
 205 164 l 1,26,-1
 123 273 l 1,27,-1
 380 486 l 1,28,29
 360 534 360 534 360 597 c 3,0,1
736 826 m 3,30,31
 667 826 667 826 604.5 767.5 c 128,-1,32
 542 709 542 709 542 624 c 0,33,34
 542 568 542 568 577 532 c 128,-1,35
 612 496 612 496 665 496 c 0,36,37
 735 496 735 496 797.5 554.5 c 128,-1,38
 860 613 860 613 860 698 c 0,39,40
 860 754 860 754 825 790 c 128,-1,41
 790 826 790 826 736 826 c 3,30,31
EndSplineSet
EndChar

StartChar: yen
Encoding: 165 165 104
Width: 1118
Flags: W
HStem: 0 21G<469 653.245> 424 170<251 559 773 1083>
DStem2: 582 1489 372 1489 0.276094 -0.961131<0 658.061> 469 0 649 0 0.207912 0.978148<37.4241 433.447 644.225 672.166> 741 850 791 678 0.584357 0.811496<0 771.573>
LayerCount: 3
Fore
SplineSet
1375 1489 m 1
 791 678 l 1
 773 594 l 1
 1119 594 l 1
 1083 424 l 1
 739 424 l 1
 649 0 l 1
 469 0 l 1
 559 424 l 1
 215 424 l 1
 251 594 l 1
 597 594 l 1
 611 657 l 1
 372 1489 l 1
 582 1489 l 1
 741 850 l 1
 1174 1489 l 1
 1375 1489 l 1
EndSplineSet
Validated: 1
Layer: 2
SplineSet
1375 1489 m 1,0,-1
 791 678 l 1,1,-1
 773 594 l 1,2,-1
 1119 594 l 1,3,-1
 1083 424 l 1,4,-1
 739 424 l 1,5,-1
 649 0 l 1,6,-1
 469 0 l 1,7,-1
 559 424 l 1,8,-1
 215 424 l 1,9,-1
 251 594 l 1,10,-1
 597 594 l 1,11,-1
 611 657 l 1,12,-1
 372 1489 l 1,13,-1
 582 1489 l 1,14,-1
 741 850 l 1,15,-1
 1174 1489 l 1,16,-1
 1375 1489 l 1,0,-1
EndSplineSet
EndChar

StartChar: brokenbar
Encoding: 166 166 105
Width: 783
Flags: W
VStem: 219 594
DStem2: 219 -392 399 -392 0.207912 0.978148<37.4241 815.699 1213.02 1991.51>
LayerCount: 3
Fore
SplineSet
643 758 m 1
 463 758 l 1
 633 1556 l 1
 813 1556 l 1
 643 758 l 1
399 -392 m 1
 219 -392 l 1
 388 406 l 1
 568 406 l 1
 399 -392 l 1
EndSplineSet
Validated: 1
Layer: 2
SplineSet
643 758 m 1,0,-1
 463 758 l 1,1,-1
 633 1556 l 1,2,-1
 813 1556 l 1,3,-1
 643 758 l 1,0,-1
399 -392 m 1,4,-1
 219 -392 l 1,5,-1
 388 406 l 1,6,-1
 568 406 l 1,7,-1
 399 -392 l 1,4,-1
EndSplineSet
EndChar

StartChar: section
Encoding: 167 167 106
Width: 1118
Flags: W
HStem: -385 170<240.459 663.328> -327 194<144 255.149> 1268 194<1108.21 1216> 1349 170<691.899 1125.62>
VStem: 223 193<425.258 638.077> 383 190<1034.89 1251.58> 786 190<-111.855 98.7305> 942 193<492.836 707.111>
DStem2: 570 369 501 192 0.949835 -0.312751<-158.754 207.318>
LayerCount: 3
Fore
SplineSet
734 315 m 1x09
 775 337 942 438 942 607 c 3
 942 718 844 745 716 788 c 2
 624 819 l 1
 462 731 416 609 416 526 c 3
 416 432 485 397 570 369 c 2
 734 315 l 1x09
894 1349 m 3x14
 743 1349 573 1294 573 1129 c 3
 573 1026 668 993 857 942 c 0
 1026 896 1135 828 1135 680 c 3x15
 1135 548 1078 394 858 277 c 1
 856 270 l 1
 910 238 976 181 976 67 c 3
 976 -147 790 -385 408 -385 c 3x92
 286 -385 186 -360 102 -327 c 1
 144 -133 l 1
 154 -133 l 1x42
 211 -160 324 -215 463 -215 c 3
 581 -215 786 -175 786 6 c 3
 786 88 722 125 627 154 c 2
 501 192 l 2
 359 235 223 291 223 455 c 3x8a
 223 581 278 739 500 858 c 1
 502 865 l 1
 451 896 383 954 383 1071 c 3
 383 1306 586 1519 951 1519 c 3x94
 1078 1519 1166 1497 1257 1462 c 1
 1216 1268 l 1
 1206 1268 l 1x24
 1052 1348 947 1349 894 1349 c 3x14
EndSplineSet
Validated: 1
Layer: 2
SplineSet
734 315 m 1,0,1
 758 328 758 328 785 347.5 c 128,-1,2
 812 367 812 367 851.5 404 c 128,-1,3
 891 441 891 441 916.5 494.5 c 128,-1,4
 942 548 942 548 942 607 c 0,5,6
 942 645 942 645 927.5 672.5 c 128,-1,7
 913 700 913 700 881.5 719.5 c 128,-1,8
 850 739 850 739 818.5 752 c 128,-1,9
 787 765 787 765 734.526849616 781.804190611 c 0,10,11
 722 786 722 786 716 788 c 2,12,-1
 624 819 l 1,13,14
 548 778 548 778 499 722.5 c 128,-1,15
 450 667 450 667 433 619.5 c 128,-1,16
 416 572 416 572 416 526 c 0,17,18
 416 462 416 462 455.5 428 c 128,-1,19
 495 394 495 394 570 369 c 2,20,-1
 734 315 l 1,0,1
894 1349 m 3,21,22
 834 1349 834 1349 779.5 1337.5 c 128,-1,23
 725 1326 725 1326 677.5 1301.5 c 128,-1,24
 630 1277 630 1277 601.5 1232.5 c 128,-1,25
 573 1188 573 1188 573 1129 c 0,26,27
 573 1098 573 1098 585.5 1074.5 c 128,-1,28
 598 1051 598 1051 617.5 1034 c 128,-1,29
 637 1017 637 1017 676.5 1000 c 128,-1,30
 716 983 716 983 754 971.5 c 128,-1,31
 792 960 792 960 857 942 c 0,32,33
 994 905 994 905 1064.5 845 c 128,-1,34
 1135 785 1135 785 1135 680 c 0,35,36
 1135 424 1135 424 858 277 c 1,37,-1
 856 270 l 1,38,39
 976 199 976 199 976 67 c 0,40,41
 976 -15 976 -15 940 -94 c 128,-1,42
 904 -173 904 -173 836 -239 c 128,-1,43
 768 -305 768 -305 656.5 -345 c 128,-1,44
 545 -385 545 -385 408 -385 c 0,45,46
 250 -385 250 -385 102 -327 c 1,47,-1
 144 -133 l 1,48,-1
 154 -133 l 1,49,50
 327 -215 327 -215 463 -215 c 0,51,52
 495 -215 495 -215 528 -211 c 128,-1,53
 561 -207 561 -207 599 -198 c 128,-1,54
 637 -189 637 -189 669 -172 c 128,-1,55
 701 -155 701 -155 728 -132 c 128,-1,56
 755 -109 755 -109 770.5 -73 c 128,-1,57
 786 -37 786 -37 786 6 c 0,58,59
 786 63 786 63 746 96.5 c 128,-1,60
 706 130 706 130 627 154 c 2,61,-1
 501 192 l 2,62,63
 451 207 451 207 416.5 220 c 128,-1,64
 382 233 382 233 342.5 255.5 c 128,-1,65
 303 278 303 278 279 304 c 128,-1,66
 255 330 255 330 239 368.5 c 128,-1,67
 223 407 223 407 223 455 c 0,68,69
 223 710 223 710 500 858 c 1,70,-1
 502 865 l 1,71,72
 383 937 383 937 383 1071 c 0,73,74
 383 1160 383 1160 421 1240.5 c 128,-1,75
 459 1321 459 1321 529.5 1383 c 128,-1,76
 600 1445 600 1445 709 1482 c 128,-1,77
 818 1519 818 1519 951 1519 c 0,78,79
 1109 1519 1109 1519 1257 1462 c 1,80,-1
 1216 1268 l 1,81,-1
 1206 1268 l 1,82,83
 1050 1349 1050 1349 894 1349 c 3,21,22
EndSplineSet
EndChar

StartChar: dieresis
Encoding: 168 168 107
Width: 1118
Flags: W
HStem: 1304 195<572 731 985 1144>
VStem: 530 656
LayerCount: 3
Fore
SplineSet
1144 1304 m 1
 943 1304 l 1
 985 1499 l 1
 1186 1499 l 1
 1144 1304 l 1
731 1304 m 1
 530 1304 l 1
 572 1499 l 1
 773 1499 l 1
 731 1304 l 1
EndSplineSet
Validated: 1
Layer: 2
SplineSet
1144 1304 m 1,0,-1
 943 1304 l 1,1,-1
 985 1499 l 1,2,-1
 1186 1499 l 1,3,-1
 1144 1304 l 1,0,-1
731 1304 m 1,4,-1
 530 1304 l 1,5,-1
 572 1499 l 1,6,-1
 773 1499 l 1,7,-1
 731 1304 l 1,4,-1
EndSplineSet
EndChar

StartChar: copyright
Encoding: 169 169 108
Width: 1902
Flags: W
HStem: -210 110<692.906 1173.61> 180 148<907.285 1233.11> 889 181<1400.2 1463> 995 148<1038.03 1354.66> 1409 110<1006.4 1486.89>
VStem: 206 118<265.374 742.732> 654 183<401.907 766.025> 1856 118<569.645 1043.86>
LayerCount: 3
Fore
SplineSet
906 -210 m 3xcf
 493 -210 206 87 206 477 c 3
 206 1055 768 1519 1274 1519 c 3
 1687 1519 1974 1221 1974 832 c 3
 1974 263 1411 -210 906 -210 c 3xcf
1856 811 m 3
 1856 1151 1608 1409 1250 1409 c 3
 811 1409 324 999 324 499 c 3
 324 159 571 -100 930 -100 c 3
 1370 -100 1856 319 1856 811 c 3
1056 328 m 3
 1194 328 1329 427 1350 434 c 1
 1366 434 l 1
 1328 255 l 1
 1177 194 1114 180 1020 180 c 3
 848 180 654 251 654 513 c 3
 654 905 929 1143 1225 1143 c 3xdf
 1342 1143 1437 1106 1501 1070 c 1
 1463 889 l 1
 1447 889 l 1xef
 1400 926 1306 995 1197 995 c 3xdf
 1013 995 837 839 837 545 c 3
 837 362 965 328 1056 328 c 3
EndSplineSet
Validated: 1
Layer: 2
SplineSet
906 -210 m 3,0,1
 754 -210 754 -210 623 -157 c 128,-1,2
 492 -104 492 -104 401 -13 c 128,-1,3
 310 78 310 78 258 205 c 128,-1,4
 206 332 206 332 206 477 c 0,5,6
 206 645 206 645 268 806.5 c 128,-1,7
 330 968 330 968 436.5 1094.5 c 128,-1,8
 543 1221 543 1221 678.5 1318 c 128,-1,9
 814 1415 814 1415 969 1467 c 128,-1,10
 1124 1519 1124 1519 1274 1519 c 0,11,12
 1426 1519 1426 1519 1557 1466 c 128,-1,13
 1688 1413 1688 1413 1779 1321.5 c 128,-1,14
 1870 1230 1870 1230 1922 1103 c 128,-1,15
 1974 976 1974 976 1974 832 c 0,16,17
 1974 693 1974 693 1930 557.5 c 128,-1,18
 1886 422 1886 422 1809.5 308.5 c 128,-1,19
 1733 195 1733 195 1629 98 c 128,-1,20
 1525 1 1525 1 1407.5 -66.5 c 128,-1,21
 1290 -134 1290 -134 1160.5 -172 c 128,-1,22
 1031 -210 1031 -210 906 -210 c 3,0,1
1856 811 m 3,23,24
 1856 980 1856 980 1780 1116 c 128,-1,25
 1704 1252 1704 1252 1565 1330.5 c 128,-1,26
 1426 1409 1426 1409 1250 1409 c 0,27,28
 1142 1409 1142 1409 1029.5 1376 c 128,-1,29
 917 1343 917 1343 815 1284.5 c 128,-1,30
 713 1226 713 1226 622.5 1141 c 128,-1,31
 532 1056 532 1056 466 957.5 c 128,-1,32
 400 859 400 859 362 740 c 128,-1,33
 324 621 324 621 324 499 c 0,34,35
 324 330 324 330 400 193.5 c 128,-1,36
 476 57 476 57 615 -21.5 c 128,-1,37
 754 -100 754 -100 930 -100 c 0,38,39
 1039 -100 1039 -100 1151.5 -66.5 c 128,-1,40
 1264 -33 1264 -33 1366 26.5 c 128,-1,41
 1468 86 1468 86 1558 171.5 c 128,-1,42
 1648 257 1648 257 1714 356 c 128,-1,43
 1780 455 1780 455 1818 573 c 128,-1,44
 1856 691 1856 691 1856 811 c 3,23,24
1056 328 m 3,45,46
 1103 328 1103 328 1157 344 c 128,-1,47
 1211 360 1211 360 1247 378.5 c 128,-1,48
 1283 397 1283 397 1314.5 415 c 128,-1,49
 1346 433 1346 433 1350 434 c 2,50,-1
 1366 434 l 1,51,-1
 1328 255 l 1,52,53
 1216 210 1216 210 1154 195 c 128,-1,54
 1092 180 1092 180 1020 180 c 0,55,56
 965 180 965 180 915.5 189 c 128,-1,57
 866 198 866 198 817 222 c 128,-1,58
 768 246 768 246 733 282.5 c 128,-1,59
 698 319 698 319 676 378 c 128,-1,60
 654 437 654 437 654 513 c 0,61,62
 654 656 654 656 701.5 776.5 c 128,-1,63
 749 897 749 897 828.5 976 c 128,-1,64
 908 1055 908 1055 1011 1099 c 128,-1,65
 1114 1143 1114 1143 1225 1143 c 0,66,67
 1371 1143 1371 1143 1501 1070 c 1,68,-1
 1463 889 l 1,69,-1
 1447 889 l 1,70,71
 1312 995 1312 995 1197 995 c 0,72,73
 1127 995 1127 995 1063 965.5 c 128,-1,74
 999 936 999 936 948 881 c 128,-1,75
 897 826 897 826 867 739 c 128,-1,76
 837 652 837 652 837 545 c 0,77,78
 837 492 837 492 851.5 452 c 128,-1,79
 866 412 866 412 887.5 389 c 128,-1,80
 909 366 909 366 939.5 352 c 128,-1,81
 970 338 970 338 998 333 c 128,-1,82
 1026 328 1026 328 1056 328 c 3,45,46
EndSplineSet
EndChar

StartChar: ordfeminine
Encoding: 170 170 109
Width: 1010
Flags: W
HStem: 541 148<492.088 714.175> 1031 148<611.5 913> 1371 148<553.296 927.644>
VStem: 284 185<715.153 926.171> 953 186<1179 1339.37>
DStem2: 808.686 541 988.686 541 0.207912 0.978148<62.9826 118.728 223.422 500.98 643.267 719.658>
LayerCount: 3
Fore
SplineSet
806 1519 m 3
 1050 1519 1139 1430 1139 1289 c 3
 1139 1260 1135 1228 1128 1194 c 2
 994 566 l 1
 814 566 l 1
 834 657 l 1
 726 586 652 541 519 541 c 3
 377 541 284 629 284 766 c 3
 284 1091 566 1161 945 1179 c 1
 951 1205 953 1227 953 1247 c 3
 953 1339 894 1371 773 1371 c 3
 716 1371 657 1361 481 1304 c 1
 466 1304 l 1
 502 1474 l 1
 536 1484 688 1519 806 1519 c 3
607 689 m 3
 641 689 721 702 864 802 c 1
 913 1031 l 1
 701 1015 469 1007 469 806 c 3
 469 745 502 689 607 689 c 3
EndSplineSet
Validated: 1
Layer: 2
SplineSet
806 1519 m 3,0,1
 982 1519 982 1519 1060.5 1459.5 c 128,-1,2
 1139 1400 1139 1400 1139 1289 c 0,3,4
 1139 1247 1139 1247 1128 1194 c 2,5,-1
 994 566 l 1,6,-1
 814 566 l 1,7,-1
 834 657 l 1,8,9
 738 594 738 594 674 567.5 c 128,-1,10
 610 541 610 541 519 541 c 0,11,12
 412 541 412 541 348 602 c 128,-1,13
 284 663 284 663 284 766 c 0,14,15
 284 834 284 834 301 890 c 128,-1,16
 318 946 318 946 348 987 c 128,-1,17
 378 1028 378 1028 425 1059.5 c 128,-1,18
 472 1091 472 1091 525 1111.5 c 128,-1,19
 578 1132 578 1132 648.5 1146 c 128,-1,20
 719 1160 719 1160 788.5 1167.5 c 128,-1,21
 858 1175 858 1175 945 1179 c 1,22,23
 953 1214 953 1214 953 1247 c 0,24,25
 953 1314 953 1314 909.5 1342.5 c 128,-1,26
 866 1371 866 1371 773 1371 c 0,27,28
 688 1371 688 1371 481 1304 c 1,29,-1
 466 1304 l 1,30,-1
 502 1474 l 1,31,32
 545 1487 545 1487 637 1503 c 128,-1,33
 729 1519 729 1519 806 1519 c 3,0,1
607 689 m 3,34,35
 702 689 702 689 864 802 c 1,36,-1
 913 1031 l 1,37,38
 727.559362824 1017.00448021 727.559362824 1017.00448021 662.091662883 1002.09243283 c 0,39,40
 501.747993287 965.569805621 501.747993287 965.569805621 474.940386571 857.732250668 c 0,41,42
 469.114427374 833.211952889 469.114427374 833.211952889 469 806 c 0,43,44
 469 755 469 755 501.5 722 c 128,-1,45
 534 689 534 689 607 689 c 3,34,35
EndSplineSet
EndChar

StartChar: guillemotleft
Encoding: 171 171 110
Width: 1174
Flags: W
HStem: 1122 20G<828.809 851.714>
DStem2: 421 652 232 608 0.681206 -0.732092<0 397.798> 251 697 421 652 0.805558 0.592518<110.281 601.066> 865 652 685 610 0.689612 -0.724179<0 376.31> 703 695 865 652 0.809827 0.586669<105.965 569.811>
LayerCount: 3
Fore
SplineSet
1084 191 m 1
 685 610 l 1
 703 695 l 1
 1280 1113 l 1
 1240 925 l 1
 865 652 l 1
 1124 379 l 1
 1084 191 l 1
647 162 m 1
 232 608 l 1
 251 697 l 1
 856 1142 l 1
 814 946 l 1
 421 652 l 1
 689 358 l 1
 647 162 l 1
EndSplineSet
Validated: 1
Layer: 2
SplineSet
1084 191 m 1,0,-1
 685 610 l 1,1,-1
 703 695 l 1,2,-1
 1280 1113 l 1,3,-1
 1240 925 l 1,4,-1
 865 652 l 1,5,-1
 1124 379 l 1,6,-1
 1084 191 l 1,0,-1
647 162 m 1,7,-1
 232 608 l 1,8,-1
 251 697 l 1,9,-1
 856 1142 l 1,10,-1
 814 946 l 1,11,-1
 421 652 l 1,12,-1
 689 358 l 1,13,-1
 647 162 l 1,7,-1
EndSplineSet
EndChar

StartChar: logicalnot
Encoding: 172 172 111
Width: 1490
Flags: W
HStem: 592 170<319 1269>
DStem2: 1155 57 1335 57 0.207912 0.978148<37.4241 547.011>
LayerCount: 3
Fore
SplineSet
1335 57 m 1
 1155 57 l 1
 1269 592 l 1
 283 592 l 1
 319 762 l 1
 1485 762 l 1
 1335 57 l 1
EndSplineSet
Validated: 1
Layer: 2
SplineSet
1335 57 m 1,0,-1
 1155 57 l 1,1,-1
 1269 592 l 1,2,-1
 283 592 l 1,3,-1
 319 762 l 1,4,-1
 1485 762 l 1,5,-1
 1335 57 l 1,0,-1
EndSplineSet
EndChar

StartChar: registered
Encoding: 174 174 113
Width: 1902
Flags: W
HStem: -210 110<693.406 1174.11> 570 148<983 1059> 982 148<1039 1281.99> 1409 110<1006.9 1487.39>
VStem: 206 119<265.374 742.025> 1307 189<776.067 956.644> 1857 117<568.927 1043.86>
DStem2: 605.663 -210 785.663 -210 0.207912 0.978148<471.919 834.755 986.174 1256.05> 1233 615 1059 570 0.546459 -0.837486<0 353.574>
LayerCount: 3
Fore
SplineSet
906 -210 m 3
 493 -210 206 87 206 477 c 3
 206 1055 768 1519 1274 1519 c 3
 1687 1519 1974 1221 1974 832 c 3
 1974 264 1411 -210 906 -210 c 3
1857 811 m 3
 1857 1151 1609 1409 1251 1409 c 3
 812 1409 325 995 325 499 c 3
 325 159 572 -100 931 -100 c 3
 1371 -100 1857 314 1857 811 c 3
1233 615 m 1
 1494 215 l 1
 1267 215 l 1
 1059 570 l 1
 951 570 l 1
 876 215 l 1
 696 215 l 1
 890 1130 l 1
 1169 1130 l 2
 1392 1130 1496 1071 1496 943 c 3
 1496 787 1412 682 1233 615 c 1
1066 718 m 2
 1233 718 1307 770 1307 883 c 3
 1307 964 1223 982 1139 982 c 2
 1039 982 l 1
 983 718 l 1
 1066 718 l 2
EndSplineSet
Validated: 1
Layer: 2
SplineSet
906 -210 m 3,0,1
 754 -210 754 -210 623 -157 c 128,-1,2
 492 -104 492 -104 401 -13 c 128,-1,3
 310 78 310 78 258 205 c 128,-1,4
 206 332 206 332 206 477 c 0,5,6
 206 645 206 645 268 806.5 c 128,-1,7
 330 968 330 968 436.5 1094.5 c 128,-1,8
 543 1221 543 1221 678.5 1318 c 128,-1,9
 814 1415 814 1415 969 1467 c 128,-1,10
 1124 1519 1124 1519 1274 1519 c 0,11,12
 1426 1519 1426 1519 1557 1466 c 128,-1,13
 1688 1413 1688 1413 1779 1321.5 c 128,-1,14
 1870 1230 1870 1230 1922 1103 c 128,-1,15
 1974 976 1974 976 1974 832 c 0,16,17
 1974 694 1974 694 1930 558 c 128,-1,18
 1886 422 1886 422 1809.5 309 c 128,-1,19
 1733 196 1733 196 1629 98.5 c 128,-1,20
 1525 1 1525 1 1407.5 -66.5 c 128,-1,21
 1290 -134 1290 -134 1160.5 -172 c 128,-1,22
 1031 -210 1031 -210 906 -210 c 3,0,1
1857 811 m 3,23,24
 1857 980 1857 980 1781 1116 c 128,-1,25
 1705 1252 1705 1252 1566 1330.5 c 128,-1,26
 1427 1409 1427 1409 1251 1409 c 0,27,28
 1088 1409 1088 1409 921.5 1335.5 c 128,-1,29
 755 1262 755 1262 623.5 1141 c 128,-1,30
 492 1020 492 1020 408.5 849.5 c 128,-1,31
 325 679 325 679 325 499 c 0,32,33
 325 330 325 330 401 193.5 c 128,-1,34
 477 57 477 57 616 -21.5 c 128,-1,35
 755 -100 755 -100 931 -100 c 0,36,37
 1061 -100 1061 -100 1195.5 -53.5 c 128,-1,38
 1330 -7 1330 -7 1447.5 78.5 c 128,-1,39
 1565 164 1565 164 1657.5 275 c 128,-1,40
 1750 386 1750 386 1803.5 526 c 128,-1,41
 1857 666 1857 666 1857 811 c 3,23,24
1233 615 m 1,42,-1
 1494 215 l 1,43,-1
 1267 215 l 1,44,-1
 1059 570 l 1,45,-1
 951 570 l 1,46,-1
 876 215 l 1,47,-1
 696 215 l 1,48,-1
 890 1130 l 1,49,-1
 1169 1130 l 2,50,51
 1336 1130 1336 1130 1416 1084.5 c 128,-1,52
 1496 1039 1496 1039 1496 943 c 0,53,54
 1496 826 1496 826 1431.5 745.5 c 128,-1,55
 1367 665 1367 665 1233 615 c 1,42,-1
1066 718 m 2,56,57
 1191 718 1191 718 1249 758 c 128,-1,58
 1307 798 1307 798 1307 883 c 0,59,60
 1307 982 1307 982 1139 982 c 2,61,-1
 1039 982 l 1,62,-1
 983 718 l 1,63,-1
 1066 718 l 2,56,57
EndSplineSet
EndChar

StartChar: macron
Encoding: 175 175 114
Width: 1118
Flags: W
HStem: 1650 148<366 1485>
LayerCount: 3
Fore
SplineSet
1485 1650 m 1
 335 1650 l 1
 366 1798 l 1
 1516 1798 l 1
 1485 1650 l 1
EndSplineSet
Validated: 1
Layer: 2
SplineSet
1485 1650 m 1,0,-1
 335 1650 l 1,1,-1
 366 1798 l 1,2,-1
 1516 1798 l 1,3,-1
 1485 1650 l 1,0,-1
EndSplineSet
EndChar

StartChar: degree
Encoding: 176 176 115
Width: 964
Flags: W
HStem: 755 170<572.664 803.813> 1345 170<641.243 877.113>
VStem: 333 185<979.066 1225.08> 929 184<1049.34 1292.18>
LayerCount: 3
Fore
SplineSet
804 1515 m 3
 988 1515 1113 1394 1113 1220 c 3
 1113 947 871 755 642 755 c 3
 458 755 333 875 333 1050 c 3
 333 1323 575 1515 804 1515 c 3
768 1345 m 3
 653 1345 518 1230 518 1094 c 3
 518 996 594 925 679 925 c 3
 799 925 929 1046 929 1178 c 3
 929 1273 857 1345 768 1345 c 3
EndSplineSet
Validated: 1
Layer: 2
SplineSet
804 1515 m 3,0,1
 942 1515 942 1515 1027.5 1433 c 128,-1,2
 1113 1351 1113 1351 1113 1220 c 0,3,4
 1113 1121 1113 1121 1071.5 1032.5 c 128,-1,5
 1030 944 1030 944 963.5 884.5 c 128,-1,6
 897 825 897 825 812.5 790 c 128,-1,7
 728 755 728 755 642 755 c 0,8,9
 504 755 504 755 418.5 837 c 128,-1,10
 333 919 333 919 333 1050 c 0,11,12
 333 1149 333 1149 374.5 1237.5 c 128,-1,13
 416 1326 416 1326 482.5 1385.5 c 128,-1,14
 549 1445 549 1445 633.5 1480 c 128,-1,15
 718 1515 718 1515 804 1515 c 3,0,1
768 1345 m 3,16,17
 678 1345 678 1345 598 1269 c 128,-1,18
 518 1193 518 1193 518 1094 c 0,19,20
 518 1022 518 1022 566 973.5 c 128,-1,21
 614 925 614 925 679 925 c 0,22,23
 771 925 771 925 850 1003 c 128,-1,24
 929 1081 929 1081 929 1178 c 0,25,26
 929 1249 929 1249 882 1297 c 128,-1,27
 835 1345 835 1345 768 1345 c 3,16,17
EndSplineSet
EndChar

StartChar: plusminus
Encoding: 177 177 116
Width: 1490
Flags: W
HStem: 159 170<232 725 905 1362> 733 170<354 811 1027 1484>
DStem2: 688.865 159 868.865 159 0.207912 0.978148<211.222 586.85 798.044 1270.75>
LayerCount: 3
Fore
SplineSet
1362 159 m 1
 196 159 l 1
 232 329 l 1
 725 329 l 1
 811 733 l 1
 318 733 l 1
 354 903 l 1
 847 903 l 1
 953 1402 l 1
 1133 1402 l 1
 1027 903 l 1
 1520 903 l 1
 1484 733 l 1
 991 733 l 1
 905 329 l 1
 1398 329 l 1
 1362 159 l 1
EndSplineSet
Validated: 1
Layer: 2
SplineSet
1362 159 m 1,0,-1
 196 159 l 1,1,-1
 232 329 l 1,2,-1
 725 329 l 1,3,-1
 811 733 l 1,4,-1
 318 733 l 1,5,-1
 354 903 l 1,6,-1
 847 903 l 1,7,-1
 953 1402 l 1,8,-1
 1133 1402 l 1,9,-1
 1027 903 l 1,10,-1
 1520 903 l 1,11,-1
 1484 733 l 1,12,-1
 991 733 l 1,13,-1
 905 329 l 1,14,-1
 1398 329 l 1,15,-1
 1362 159 l 1,0,-1
EndSplineSet
EndChar

StartChar: uni00B2
Encoding: 178 178 117
Width: 1010
Flags: W
HStem: 566 148<539 939> 1370 148<698.33 894.739>
VStem: 464 180<1210 1315.12> 907 182<1140.52 1357.57>
LayerCount: 3
Fore
SplineSet
807 1370 m 3
 733 1370 670 1334 644 1210 c 1
 464 1210 l 1
 504 1397 650 1518 841 1518 c 3
 986 1518 1089 1441 1089 1302 c 3
 1089 1072 885 967 725 851 c 0
 656 801 594 754 539 714 c 1
 971 714 l 1
 939 566 l 1
 305 566 l 1
 334 702 456 814 621 931 c 0
 788 1050 907 1128 907 1276 c 3
 907 1331 878 1370 807 1370 c 3
EndSplineSet
Validated: 1
Layer: 2
SplineSet
807 1370 m 3,0,1
 678 1370 678 1370 644 1210 c 1,2,-1
 464 1210 l 1,3,4
 494 1351 494 1351 596 1434.5 c 128,-1,5
 698 1518 698 1518 841 1518 c 0,6,7
 952 1518 952 1518 1020.5 1461 c 128,-1,8
 1089 1404 1089 1404 1089 1302 c 0,9,10
 1089 1254 1089 1254 1078.5 1211.5 c 128,-1,11
 1068 1169 1068 1169 1044 1131.5 c 128,-1,12
 1020 1094 1020 1094 997.5 1065.5 c 128,-1,13
 975 1037 975 1037 934.5 1004 c 128,-1,14
 894 971 894 971 868 952 c 128,-1,15
 842 933 842 933 794 900 c 128,-1,16
 746 867 746 867 725 851 c 0,17,18
 688 824 688 824 625.5 778 c 128,-1,19
 563 732 563 732 539 714 c 1,20,-1
 971 714 l 1,21,-1
 939 566 l 1,22,-1
 305 566 l 1,23,24
 325 661 325 661 404.5 747.5 c 128,-1,25
 484 834 484 834 621 931 c 0,26,27
 762.161576331 1031.58818912 762.161576331 1031.58818912 804.794956388 1071.18196711 c 0,28,29
 901.094436338 1160.61565085 901.094436338 1160.61565085 906.607098389 1261.44997541 c 0,30,31
 907 1268.63669722 907 1268.63669722 907 1276 c 0,32,33
 907 1320 907 1320 882.5 1345 c 128,-1,34
 858 1370 858 1370 807 1370 c 3,0,1
EndSplineSet
EndChar

StartChar: uni00B3
Encoding: 179 179 118
Width: 1010
Flags: W
HStem: 559 148<561.225 745.787> 1003 128<645.656 798.25> 1370 148<692.588 850.495>
VStem: 360 183<723.375 863.04> 819 184<779.936 986.53> 860 183<1192.26 1360.76>
LayerCount: 3
Fore
SplineSet
687 1131 m 3xf8
 753 1131 860 1197 860 1288 c 3
 860 1336 822 1370 779 1370 c 3
 721 1370 668 1316 636 1230 c 1
 456 1230 l 1
 491 1395 640 1518 808 1518 c 3
 940 1518 1043 1439 1043 1316 c 3xf4
 1043 1205 973 1125 896 1079 c 1
 965 1050 1003 998 1003 922 c 3
 1003 705 800 559 609 559 c 3
 456 559 360 651 360 791 c 3
 360 814 363 838 368 864 c 1
 548 864 l 1
 545 849 543 834 543 821 c 3
 543 752 584 707 640 707 c 3
 719 707 819 788 819 896 c 3
 819 963 777 1003 718 1003 c 3
 686 1003 646 995 614 986 c 1
 645 1134 l 1
 659 1133 673 1131 687 1131 c 3xf8
EndSplineSet
Validated: 1
Layer: 2
SplineSet
687 1131 m 3,0,1
 743 1131 743 1131 801.5 1178 c 128,-1,2
 860 1225 860 1225 860 1288 c 0,3,4
 860 1323 860 1323 836 1346.5 c 128,-1,5
 812 1370 812 1370 779 1370 c 0,6,7
 736 1370 736 1370 698 1332.5 c 128,-1,8
 660 1295 660 1295 636 1230 c 1,9,-1
 456 1230 l 1,10,11
 482 1354 482 1354 582 1436 c 128,-1,12
 682 1518 682 1518 808 1518 c 0,13,14
 909 1518 909 1518 976 1462.5 c 128,-1,15
 1043 1407 1043 1407 1043 1316 c 0,16,17
 1043 1238 1043 1238 1001.5 1177.5 c 128,-1,18
 960 1117 960 1117 896 1079 c 1,19,20
 1003 1034 1003 1034 1003 922 c 0,21,22
 1003 818 1003 818 944 733 c 128,-1,23
 885 648 885 648 795.5 603.5 c 128,-1,24
 706 559 706 559 609 559 c 0,25,26
 495 559 495 559 427.5 622.5 c 128,-1,27
 360 686 360 686 360 791 c 0,28,29
 360 822 360 822 368 864 c 1,30,-1
 548 864 l 1,31,32
 543 839 543 839 543 821 c 0,33,34
 543 770 543 770 570.5 738.5 c 128,-1,35
 598 707 598 707 640 707 c 0,36,37
 703 707 703 707 761 763 c 128,-1,38
 819 819 819 819 819 896 c 0,39,40
 819 945 819 945 791 974 c 128,-1,41
 763 1003 763 1003 718 1003 c 0,42,43
 674 1003 674 1003 614 986 c 1,44,-1
 645 1134 l 1,45,46
 650 1134 650 1134 658.5 1133 c 128,-1,47
 667 1132 667 1132 674 1131.5 c 128,-1,48
 681 1131 681 1131 687 1131 c 3,0,1
EndSplineSet
EndChar

StartChar: acute
Encoding: 180 180 119
Width: 1118
Flags: W
HStem: 1194 374
VStem: 703 501
LayerCount: 3
Fore
SplineSet
1204 1568 m 1
 852 1194 l 1
 703 1194 l 1
 961 1568 l 1
 1204 1568 l 1
EndSplineSet
Validated: 1
Layer: 2
SplineSet
1204 1568 m 1,0,-1
 852 1194 l 1,1,-1
 703 1194 l 1,2,-1
 961 1568 l 1,3,-1
 1204 1568 l 1,0,-1
EndSplineSet
EndChar

StartChar: micro
Encoding: 181 181 120
Width: 1163
Flags: W
HStem: -17 148<467.931 745.71> 0 21G<847 1031.24>
DStem2: 48 -412 228 -412 0.207912 0.978148<37.4241 576.194 702.818 1563.16> 759.427 -412 939.427 -412 0.207912 0.978148<458.628 539.867 647.139 1563.07>
LayerCount: 3
Fore
SplineSet
606 131 m 3x80
 718 131 819 199 905 275 c 1
 1084 1117 l 1
 1264 1117 l 1
 1027 0 l 1
 847 0 l 1x40
 872 116 l 1
 737 0 657 -17 574 -17 c 3
 472 -17 412 11 340 115 c 1
 228 -412 l 1
 48 -412 l 1
 373 1117 l 1
 553 1117 l 1
 374 275 l 1
 422 199 502 131 606 131 c 3x80
EndSplineSet
Validated: 1
Layer: 2
SplineSet
606 131 m 3,0,1
 742 131 742 131 905 275 c 1,2,-1
 1084 1117 l 1,3,-1
 1264 1117 l 1,4,-1
 1027 0 l 1,5,-1
 847 0 l 1,6,-1
 872 116 l 1,7,8
 779 36 779 36 712.5 9.5 c 128,-1,9
 646 -17 646 -17 574 -17 c 0,10,11
 495 -17 495 -17 444 11 c 128,-1,12
 393 39 393 39 340 115 c 1,13,-1
 228 -412 l 1,14,-1
 48 -412 l 1,15,-1
 373 1117 l 1,16,-1
 553 1117 l 1,17,-1
 374 275 l 1,18,19
 414 212 414 212 473.5 171.5 c 128,-1,20
 533 131 533 131 606 131 c 3,0,1
EndSplineSet
EndChar

StartChar: paragraph
Encoding: 182 182 121
Width: 1118
Flags: W
HStem: 1341 148<940 1087>
DStem2: 398 -363 578 -363 0.207912 0.978148<37.4241 977.315> 725 -363 905 -363 0.207912 0.978148<37.4241 1742.03>
LayerCount: 3
Fore
SplineSet
836 1489 m 2
 1298 1489 l 1
 905 -363 l 1
 725 -363 l 1
 1087 1341 l 1
 940 1341 l 1
 578 -363 l 1
 398 -363 l 1
 601 593 l 1
 402 598 267 726 267 934 c 3
 267 1296 543 1489 836 1489 c 2
EndSplineSet
Validated: 1
Layer: 2
SplineSet
836 1489 m 2,0,-1
 1298 1489 l 1,1,-1
 905 -363 l 1,2,-1
 725 -363 l 1,3,-1
 1087 1341 l 1,4,-1
 940 1341 l 1,5,-1
 578 -363 l 1,6,-1
 398 -363 l 1,7,-1
 601 593 l 1,8,9
 450 597 450 597 358.5 688.5 c 128,-1,10
 267 780 267 780 267 934 c 0,11,12
 267 1065 267 1065 314.5 1172.5 c 128,-1,13
 362 1280 362 1280 442 1348 c 128,-1,14
 522 1416 522 1416 623.5 1452.5 c 128,-1,15
 725 1489 725 1489 836 1489 c 2,0,-1
EndSplineSet
EndChar

StartChar: periodcentered
Encoding: 183 183 122
Width: 724
Flags: W
HStem: 832 285<480 659>
VStem: 420 299
LayerCount: 3
Fore
SplineSet
659 832 m 1
 420 832 l 1
 480 1117 l 1
 719 1117 l 1
 659 832 l 1
EndSplineSet
Validated: 1
Layer: 2
SplineSet
659 832 m 1,0,-1
 420 832 l 1,1,-1
 480 1117 l 1,2,-1
 719 1117 l 1,3,-1
 659 832 l 1,0,-1
EndSplineSet
EndChar

StartChar: cedilla
Encoding: 184 184 123
Width: 1118
Flags: W
HStem: -423 148<235.561 519.704> -399 158<238 374.332>
VStem: 603 178<-169.345 20>
LayerCount: 3
Fore
SplineSet
580 -107 m 0xa0
 591 -56 587 -69 603 20 c 1
 781 20 l 1
 777 -12 770 -61 764 -89 c 0
 707 -355 501 -423 376 -423 c 3xa0
 341 -423 268 -419 204 -399 c 1
 238 -241 l 1
 247 -241 l 1x60
 288 -261 332 -275 382 -275 c 3
 503 -275 554 -227 580 -107 c 0xa0
EndSplineSet
Validated: 1
Layer: 2
SplineSet
580 -107 m 0,0,1
 581 -102 581 -102 603 20 c 1,2,-1
 781 20 l 1,3,4
 772 -51 772 -51 764 -89 c 0,5,6
 748 -165 748 -165 713.5 -225.5 c 128,-1,7
 679 -286 679 -286 639 -322 c 128,-1,8
 599 -358 599 -358 550 -381.5 c 128,-1,9
 501 -405 501 -405 459 -414 c 128,-1,10
 417 -423 417 -423 376 -423 c 0,11,12
 281 -423 281 -423 204 -399 c 1,13,-1
 238 -241 l 1,14,-1
 247 -241 l 1,15,16
 317 -275 317 -275 382 -275 c 0,17,18
 472 -275 472 -275 516 -236.5 c 128,-1,19
 560 -198 560 -198 580 -107 c 0,0,1
EndSplineSet
EndChar

StartChar: uni0E01
Encoding: 3585 3585 124
Width: 1240
Flags: W
HStem: 0 21G<188 352.266 922 1086.26> 1001 148<644.383 988.684>
VStem: 1074 168<543.805 917.338>
DStem2: 188 0 348 0 0.207912 0.978148<33.2659 584.417> 922 0 1082 0 0.207912 0.978148<33.2659 778.369>
LayerCount: 3
Fore
SplineSet
1225 671 m 2
 1082 0 l 1
 922 0 l 1
 1061 655 l 2
 1070 695 1074 732 1074 765 c 0
 1074 920 985 1001 837 1001 c 0
 699 1001 578 944 471 823 c 1
 550 802 602 748 626 661 c 1
 521 596 453 496 425 361 c 2
 348 0 l 1
 188 0 l 1
 265 361 l 2
 293 492 357 595 458 669 c 1
 425 738 367 778 286 790 c 1
 433 1026 628 1149 868 1149 c 0
 1121 1149 1242 1027 1242 818 c 0
 1242 773 1236 724 1225 671 c 2
EndSplineSet
Validated: 1
Layer: 2
SplineSet
1225 671 m 2,0,-1
 1082 0 l 1,1,-1
 922 0 l 1,2,-1
 1061 655 l 2,3,4
 1074 713 1074 713 1074 765 c 0,5,6
 1074 880 1074 880 1011.5 940.5 c 128,-1,7
 949 1001 949 1001 837 1001 c 0,8,9
 628 1001 628 1001 471 823 c 1,10,11
 590 791 590 791 626 661 c 1,12,13
 467 562 467 562 425 361 c 2,14,-1
 348 0 l 1,15,-1
 188 0 l 1,16,-1
 265 361 l 2,17,18
 307 559 307 559 458 669 c 1,19,20
 409 772 409 772 286 790 c 1,21,22
 510 1149 510 1149 868 1149 c 0,23,24
 1055 1149 1055 1149 1148.5 1063.5 c 128,-1,25
 1242 978 1242 978 1242 818 c 0,26,27
 1242 753 1242 753 1225 671 c 2,0,-1
EndSplineSet
EndChar

StartChar: uni0E02
Encoding: 3586 3586 125
Width: 1400
Flags: W
HStem: 0 148<738 1088> 545 113<383.92 532.348> 823 102<520 548.736> 1001 148<547.673 805.104>
VStem: 255 126<661.124 804.911> 552 112<676.35 820.23> 853 158<760.933 954.686>
DStem2: 547 0 706.542 0 0.207912 0.978148<184.477 727.395> 1056.54 0 1217 0 0.207912 0.978148<151.306 1164.52>
LayerCount: 3
Fore
SplineSet
488 823 m 0
 393 823 381 744 381 716 c 0
 381 681 402 658 447 658 c 0
 531 658 552 729 552 762 c 0
 552 799 529 823 488 823 c 0
255 708 m 0
 255 905 425 1149 704 1149 c 0
 842 1149 1011 1094 1011 881 c 0
 1011 848 1007 812 998 771 c 1
 904 718 846 654 829 575 c 2
 738 148 l 1
 1088 148 l 1
 1299 1139 l 1
 1459 1139 l 1
 1217 0 l 1
 547 0 l 1
 669 575 l 2
 687 658 752 730 847 783 c 1
 851 801 853 820 853 840 c 0
 853 919 813 1001 669 1001 c 0
 602 1001 552 973 520 925 c 1
 612 925 664 880 664 806 c 0
 664 652 559 545 414 545 c 0
 308 545 255 603 255 708 c 0
EndSplineSet
Validated: 1
Layer: 2
SplineSet
488 823 m 0,0,1
 461 823 461 823 440.5 814.5 c 128,-1,2
 420 806 420 806 409 793.5 c 128,-1,3
 398 781 398 781 391.5 765.5 c 128,-1,4
 385 750 385 750 383 738.5 c 128,-1,5
 381 727 381 727 381 716 c 0,6,7
 381 658 381 658 447 658 c 0,8,9
 502 658 502 658 527 692.5 c 128,-1,10
 552 727 552 727 552 762 c 0,11,12
 552 790 552 790 535 806.5 c 128,-1,13
 518 823 518 823 488 823 c 0,0,1
255 708 m 0,14,15
 255 783 255 783 286.5 860 c 128,-1,16
 318 937 318 937 374 1002 c 128,-1,17
 430 1067 430 1067 517 1108 c 128,-1,18
 604 1149 604 1149 704 1149 c 0,19,20
 748 1149 748 1149 789 1142 c 128,-1,21
 830 1135 830 1135 871.5 1116 c 128,-1,22
 913 1097 913 1097 943 1067.5 c 128,-1,23
 973 1038 973 1038 992 990 c 128,-1,24
 1011 942 1011 942 1011 881 c 0,25,26
 1011 830 1011 830 998 771 c 1,27,28
 854 690 854 690 829 575 c 2,29,-1
 738 148 l 1,30,-1
 1088 148 l 1,31,-1
 1299 1139 l 1,32,-1
 1459 1139 l 1,33,-1
 1217 0 l 1,34,-1
 547 0 l 1,35,-1
 669 575 l 2,36,37
 696 699 696 699 847 783 c 1,38,39
 853 810 853 810 853 840 c 0,40,41
 853 909 853 909 810.5 955 c 128,-1,42
 768 1001 768 1001 669 1001 c 0,43,44
 571 1001 571 1001 520 925 c 1,45,46
 589 925 589 925 626.5 893.5 c 128,-1,47
 664 862 664 862 664 806 c 0,48,49
 664 691 664 691 593.5 618 c 128,-1,50
 523 545 523 545 414 545 c 0,51,52
 335 545 335 545 295 587 c 128,-1,53
 255 629 255 629 255 708 c 0,14,15
EndSplineSet
EndChar

StartChar: uni0E03
Encoding: 3587 3587 126
Width: 1450
Flags: W
HStem: 0 148<815 1165> 507 116<387.95 529.994> 790 104<446.898 548.65> 1130 9G<462 604 876.358 956.5 1371.74 1536>
VStem: 253 133<625.659 771.309> 551 112<644.235 787.55> 932 159<791.51 961.361>
DStem2: 624 0 783.542 0 0.207912 0.978148<184.477 742.378> 1133.54 0 1294 0 0.207912 0.978148<151.306 1164.52>
LayerCount: 3
Fore
SplineSet
490 790 m 0
 404 790 386 716 386 682 c 0
 386 646 409 623 454 623 c 0
 512 623 551 685 551 731 c 0
 551 764 531 790 490 790 c 0
663 776 m 0
 663 701 614 507 411 507 c 0
 312 507 253 562 253 661 c 0
 253 754 320 1041 604 1150 c 1
 604 1149 650 1113 740 1041 c 1
 907 1150 l 1
 1006 1133 1091 1008 1091 872 c 0
 1091 842 1086 808 1077 783 c 1
 979 721 923 656 909 587 c 2
 815 148 l 1
 1165 148 l 1
 1376 1139 l 1
 1536 1139 l 1
 1294 0 l 1
 624 0 l 1
 749 587 l 2
 766 670 824 738 926 798 c 1
 930 816 932 832 932 848 c 0
 932 901 912 945 871 979 c 1
 871 978 816 946 706 881 c 1
 568 979 l 1
 533 958 507 927 489 886 c 1
 506 892 521 894 537 894 c 0
 615 894 663 853 663 776 c 0
EndSplineSet
Validated: 1
Layer: 2
SplineSet
490 790 m 0,0,1
 451 790 451 790 425.5 769 c 128,-1,2
 400 748 400 748 393 726 c 128,-1,3
 386 704 386 704 386 682 c 0,4,5
 386 654 386 654 403.5 638.5 c 128,-1,6
 421 623 421 623 454 623 c 0,7,8
 495 623 495 623 523 658 c 128,-1,9
 551 693 551 693 551 731 c 0,10,11
 551 757 551 757 535.5 773.5 c 128,-1,12
 520 790 520 790 490 790 c 0,0,1
663 776 m 0,13,14
 663 750 663 750 656.5 719 c 128,-1,15
 650 688 650 688 632.5 649.5 c 128,-1,16
 615 611 615 611 588 580 c 128,-1,17
 561 549 561 549 515 528 c 128,-1,18
 469 507 469 507 411 507 c 0,19,20
 336 507 336 507 294.5 547 c 128,-1,21
 253 587 253 587 253 661 c 0,22,23
 253 693 253 693 261.5 737 c 128,-1,24
 270 781 270 781 295 841.5 c 128,-1,25
 320 902 320 902 357 957.5 c 128,-1,26
 394 1013 394 1013 458.5 1066 c 128,-1,27
 523 1119 523 1119 604 1150 c 1,28,-1
 740 1041 l 1,29,-1
 907 1150 l 1,30,31
 982 1137 982 1137 1036.5 1055 c 128,-1,32
 1091 973 1091 973 1091 872 c 0,33,34
 1091 822 1091 822 1077 783 c 1,35,36
 930 690 930 690 909 587 c 2,37,-1
 815 148 l 1,38,-1
 1165 148 l 1,39,-1
 1376 1139 l 1,40,-1
 1536 1139 l 1,41,-1
 1294 0 l 1,42,-1
 624 0 l 1,43,-1
 749 587 l 2,44,45
 774 709 774 709 926 798 c 1,46,47
 932 825 932 825 932 848 c 0,48,49
 932 928 932 928 871 979 c 1,50,51
 871 978 871 978 706 881 c 1,52,-1
 568 979 l 1,53,54
 516 948 516 948 489 886 c 1,55,56
 512 894 512 894 537 894 c 0,57,58
 596 894 596 894 629.5 863.5 c 128,-1,59
 663 833 663 833 663 776 c 0,13,14
EndSplineSet
EndChar

StartChar: uni0E04
Encoding: 3588 3588 127
Width: 1370
Flags: W
HStem: 0 21G<245 492.5 1035 1199.24> 342 118<771.051 917.526> 625 121<788.724 937.367> 1001 148<692.653 1079.82>
VStem: 284 149<257.766 693.26> 939 105<479.482 622.372> 1184 166<523.445 900.352>
DStem2: 1035 0 1195 0 0.207912 0.978148<33.2659 764.099>
LayerCount: 3
Fore
SplineSet
284 453 m 0
 284 978 593 1149 920 1149 c 0
 1205 1149 1350 1027 1350 799 c 0
 1350 754 1344 704 1333 651 c 2
 1195 0 l 1
 1035 0 l 1
 1173 650 l 2
 1181 686 1184 719 1184 751 c 0
 1184 905 1091 1001 894 1001 c 0
 655 1001 507 863 461 646 c 0
 441 551 433 447 433 334 c 0
 433 308 433 282 434 256 c 1
 592 700 810 746 879 746 c 0
 1007 746 1044 681 1044 608 c 0
 1044 485 952 342 807 342 c 0
 746 342 693 372 679 424 c 1
 604 319 530 177 455 0 c 1
 245 0 l 1
 268 108 l 2
 283 180 287 243 287 304 c 0
 287 353 284 402 284 453 c 0
876 625 m 0
 790 625 769 555 769 522 c 0
 769 484 792 460 835 460 c 0
 900 460 939 514 939 565 c 0
 939 599 919 625 876 625 c 0
EndSplineSet
Validated: 1
Layer: 2
SplineSet
284 453 m 0,0,1
 284 606 284 606 319 726.5 c 128,-1,2
 354 847 354 847 413 925 c 128,-1,3
 472 1003 472 1003 555 1054.5 c 128,-1,4
 638 1106 638 1106 728 1127.5 c 128,-1,5
 818 1149 818 1149 920 1149 c 0,6,7
 1133 1149 1133 1149 1241.5 1060 c 128,-1,8
 1350 971 1350 971 1350 799 c 0,9,10
 1350 733 1350 733 1333 651 c 2,11,-1
 1195 0 l 1,12,-1
 1035 0 l 1,13,-1
 1173 650 l 2,14,15
 1184 699 1184 699 1184 751 c 0,16,17
 1184 869 1184 869 1111 935 c 128,-1,18
 1038 1001 1038 1001 894 1001 c 0,19,20
 718 1001 718 1001 607 907 c 128,-1,21
 496 813 496 813 461 646 c 0,22,23
 433 513 433 513 433 334 c 0,24,25
 433 282 433 282 434 256 c 1,26,27
 479 382 479 382 535 477 c 128,-1,28
 591 572 591 572 639 621 c 128,-1,29
 687 670 687 670 738.5 700.5 c 128,-1,30
 790 731 790 731 821 738.5 c 128,-1,31
 852 746 852 746 879 746 c 0,32,33
 1044 746 1044 746 1044 608 c 0,34,35
 1044 509 1044 509 977 425.5 c 128,-1,36
 910 342 910 342 807 342 c 0,37,38
 760 342 760 342 724.5 364 c 128,-1,39
 689 386 689 386 679 424 c 1,40,41
 570 271 570 271 455 0 c 1,42,-1
 245 0 l 1,43,-1
 268 108 l 2,44,45
 287 199 287 199 287 304 c 0,46,47
 287 328 287 328 285.5 377.5 c 128,-1,48
 284 427 284 427 284 453 c 0,0,1
876 625 m 0,49,50
 819 625 819 625 794 591 c 128,-1,51
 769 557 769 557 769 522 c 0,52,53
 769 493 769 493 786 476.5 c 128,-1,54
 803 460 803 460 835 460 c 0,55,56
 881 460 881 460 910 492 c 128,-1,57
 939 524 939 524 939 565 c 0,58,59
 939 592 939 592 923 608.5 c 128,-1,60
 907 625 907 625 876 625 c 0,49,50
EndSplineSet
EndChar

StartChar: uni0E05
Encoding: 3589 3589 128
Width: 1370
Flags: W
HStem: 0 21G<235 482.5 1025 1189.27> 342 118<761.087 910.087> 625 121<780.323 926.402> 1129 20G<625 770.793 1054.6 1171.5>
VStem: 929 105<477.682 622.547> 1177 166<536.656 912.415>
DStem2: 1025 0 1185 0 0.207912 0.978148<33.2659 779.393>
LayerCount: 3
Fore
SplineSet
1034 606 m 0
 1034 481 939 342 797 342 c 0
 736 342 683 371 669 424 c 1
 594 319 520 177 445 0 c 1
 235 0 l 1
 258 108 l 2
 289 255 256 484 298 683 c 0
 352 938 504 1094 746 1149 c 1
 896 1028 l 1
 1086 1149 l 1
 1257 1103 1343 990 1343 812 c 0
 1343 766 1337 716 1326 661 c 2
 1185 0 l 1
 1025 0 l 1
 1165 660 l 2
 1173 698 1177 734 1177 766 c 0
 1177 872 1132 944 1042 981 c 1
 866 868 l 1
 728 981 l 1
 490 902 423 687 423 329 c 0
 423 305 423 280 424 256 c 1
 583 703 803 746 871 746 c 0
 977 746 1034 695 1034 606 c 0
866 625 m 0
 811 625 759 581 759 523 c 0
 759 485 783 460 825 460 c 0
 894 460 929 515 929 564 c 0
 929 600 907 625 866 625 c 0
EndSplineSet
Validated: 1
Layer: 2
SplineSet
1034 606 m 0,0,1
 1034 542 1034 542 1005 482 c 128,-1,2
 976 422 976 422 920.5 382 c 128,-1,3
 865 342 865 342 797 342 c 0,4,5
 750 342 750 342 714.5 363.5 c 128,-1,6
 679 385 679 385 669 424 c 1,7,8
 560 271 560 271 445 0 c 1,9,-1
 235 0 l 1,10,-1
 258 108 l 2,11,12
 272 175 272 175 274 376 c 128,-1,13
 276 577 276 577 298 683 c 0,14,15
 379 1066 379 1066 746 1149 c 1,16,-1
 896 1028 l 1,17,-1
 1086 1149 l 1,18,19
 1343 1080 1343 1080 1343 812 c 0,20,21
 1343 746 1343 746 1326 661 c 2,22,-1
 1185 0 l 1,23,-1
 1025 0 l 1,24,-1
 1165 660 l 2,25,26
 1177 717 1177 717 1177 766 c 0,27,28
 1177 926 1177 926 1042 981 c 1,29,-1
 866 868 l 1,30,-1
 728 981 l 1,31,32
 557 924 557 924 490 768 c 128,-1,33
 423 612 423 612 423 329 c 0,34,35
 423 280 423 280 424 256 c 1,36,37
 469 383 469 383 525.5 478 c 128,-1,38
 582 573 582 573 630 622.5 c 128,-1,39
 678 672 678 672 730 701.5 c 128,-1,40
 782 731 782 731 813 738.5 c 128,-1,41
 844 746 844 746 871 746 c 0,42,43
 950 746 950 746 992 709.5 c 128,-1,44
 1034 673 1034 673 1034 606 c 0,0,1
866 625 m 0,45,46
 824 625 824 625 791.5 595.5 c 128,-1,47
 759 566 759 566 759 523 c 0,48,49
 759 494 759 494 776.5 477 c 128,-1,50
 794 460 794 460 825 460 c 0,51,52
 873 460 873 460 901 492 c 128,-1,53
 929 524 929 524 929 564 c 0,54,55
 929 592 929 592 912.5 608.5 c 128,-1,56
 896 625 896 625 866 625 c 0,45,46
EndSplineSet
EndChar

StartChar: uni0E06
Encoding: 3590 3590 129
Width: 1520
Flags: W
HStem: -10 119<582.758 674.153> 328 118<630.793 714> 508 112<394.421 540.128> 789 99<464.5 557.928> 1129 10G<476.5 640.185 887.074 978 1442.75 1607>
VStem: 266 126<622.577 767.776> 473 108<110.843 278.511> 561 113<640.379 785.843> 939 159<783.804 967.322>
DStem2: 641.59 -10 793.223 -10 0.207912 0.978148<115.061 290.178 459.828 774.28> 882 409 847 243 0.827399 -0.561614<64.269 432.681> 1202.59 -10 1362.87 -10 0.207912 0.978148<179.932 1174.71>
LayerCount: 3
Fore
SplineSet
496 789 m 0xfd80
 433 789 392 741 392 685 c 0
 392 649 410 620 456 620 c 0
 540 620 561 702 561 729 c 0
 561 760 542 789 496 789 c 0xfd80
674 755 m 0
 674 685 627 508 433 508 c 0
 324 508 266 571 266 679 c 0
 266 798 338 1041 615 1149 c 1
 751 1041 l 1
 918 1149 l 1
 1038 1089 1098 998 1098 876 c 0
 1098 847 1095 816 1088 783 c 1
 992 728 936 663 920 587 c 2
 882 409 l 1
 1240 166 l 1
 1447 1139 l 1
 1607 1139 l 1
 1365 0 l 1
 1205 0 l 1
 847 243 l 1
 826 146 l 2
 804 42 738 -10 630 -10 c 0
 533 -10 473 57 473 157 c 0xfe80
 473 290 576 446 730 446 c 1
 760 587 l 2
 777 668 835 743 933 814 c 1
 937 831 939 848 939 863 c 0
 939 912 919 951 882 979 c 1
 717 881 l 1
 579 979 l 1
 546 961 520 930 500 886 c 1
 511 887 521 888 531 888 c 0
 611 888 674 840 674 755 c 0
714 328 m 1
 646 328 581 246 581 169 c 0
 581 129 601 109 623 109 c 0
 646 109 671 128 679 166 c 2
 714 328 l 1
EndSplineSet
Validated: 1
Layer: 2
SplineSet
496 789 m 0,0,1
 450 789 450 789 421 758.5 c 128,-1,2
 392 728 392 728 392 685 c 0,3,4
 392 620 392 620 456 620 c 0,5,6
 485 620 485 620 507.5 633 c 128,-1,7
 530 646 530 646 540.5 665 c 128,-1,8
 551 684 551 684 556 700.5 c 128,-1,9
 561 717 561 717 561 729 c 0,10,11
 561 754 561 754 544.5 771.5 c 128,-1,12
 528 789 528 789 496 789 c 0,0,1
674 755 m 0,13,14
 674 731 674 731 668 702 c 128,-1,15
 662 673 662 673 645 638 c 128,-1,16
 628 603 628 603 602 574.5 c 128,-1,17
 576 546 576 546 532 527 c 128,-1,18
 488 508 488 508 433 508 c 0,19,20
 352 508 352 508 309 552.5 c 128,-1,21
 266 597 266 597 266 679 c 0,22,23
 266 730 266 730 282.5 789 c 128,-1,24
 299 848 299 848 335.5 916.5 c 128,-1,25
 372 985 372 985 444.5 1048 c 128,-1,26
 517 1111 517 1111 615 1149 c 1,27,-1
 751 1041 l 1,28,-1
 918 1149 l 1,29,30
 1098 1059 1098 1059 1098 876 c 0,31,32
 1098 830 1098 830 1088 783 c 1,33,34
 944 700 944 700 920 587 c 2,35,-1
 882 409 l 1,36,-1
 1240 166 l 1,37,-1
 1447 1139 l 1,38,-1
 1607 1139 l 1,39,-1
 1365 0 l 1,40,-1
 1205 0 l 1,41,-1
 847 243 l 1,42,-1
 826 146 l 2,43,44
 793 -10 793 -10 630 -10 c 0,45,46
 558 -10 558 -10 515.5 35.5 c 128,-1,47
 473 81 473 81 473 157 c 0,48,49
 473 225 473 225 504.5 290.5 c 128,-1,50
 536 356 536 356 596.5 401 c 128,-1,51
 657 446 657 446 730 446 c 1,52,-1
 760 587 l 2,53,54
 785 707 785 707 933 814 c 1,55,56
 939 839 939 839 939 863 c 0,57,58
 939 936 939 936 882 979 c 1,59,-1
 717 881 l 1,60,-1
 579 979 l 1,61,62
 530 952 530 952 500 886 c 1,63,64
 522 888 522 888 531 888 c 0,65,66
 593 888 593 888 633.5 852.5 c 128,-1,67
 674 817 674 817 674 755 c 0,13,14
714 328 m 1,68,69
 664 328 664 328 622.5 277.5 c 128,-1,70
 581 227 581 227 581 169 c 0,71,72
 581 140 581 140 593 124.5 c 128,-1,73
 605 109 605 109 623 109 c 128,-1,74
 641 109 641 109 657 124 c 128,-1,75
 673 139 673 139 679 166 c 2,76,-1
 714 328 l 1,68,69
EndSplineSet
EndChar

StartChar: uni0E07
Encoding: 3591 3591 130
Width: 1000
Flags: W
HStem: -10 148<473.564 704.122> 741 113<740.238 858.345> 1021 129<756.105 904.478>
VStem: 285 161<164.984 672.962> 298 164<270.905 640> 631 106<857.838 1003.27> 906 147<878.034 1016.36>
DStem2: 693.059 -10 853.059 -10 0.207912 0.978148<170.675 797.456>
LayerCount: 3
Fore
SplineSet
631 874 m 0xf6
 631 1035 749 1150 895 1150 c 0
 998 1150 1053 1086 1053 975 c 0
 1053 947 1049 915 1042 881 c 2
 913 272 l 2
 873 85 752 -10 551 -10 c 0
 377 -10 285 79 285 258 c 0xf6
 285 412 294 565 298 719 c 1
 462 640 l 1xee
 457 515 446 391 446 265 c 0
 446 183 496 138 582 138 c 0
 677 138 735 188 753 272 c 2
 859 770 l 1
 839 751 806 741 763 741 c 0
 678 741 631 790 631 874 c 0xf6
840 1021 m 0
 787 1021 737 983 737 921 c 0
 737 884 761 854 802 854 c 0
 856 854 906 901 906 962 c 0
 906 999 879 1021 840 1021 c 0
EndSplineSet
Validated: 1
Layer: 2
SplineSet
631 874 m 0,0,1
 631 993 631 993 707.5 1071.5 c 128,-1,2
 784 1150 784 1150 895 1150 c 0,3,4
 972 1150 972 1150 1012.5 1104.5 c 128,-1,5
 1053 1059 1053 1059 1053 975 c 0,6,7
 1053 934 1053 934 1042 881 c 2,8,-1
 913 272 l 2,9,10
 853 -10 853 -10 551 -10 c 0,11,12
 285 -10 285 -10 285 258 c 0,13,14
 285 349 285 349 291 521 c 128,-1,15
 297 693 297 693 298 719 c 1,16,-1
 462 640 l 1,17,18
 461 622 461 622 453.5 481 c 128,-1,19
 446 340 446 340 446 265 c 0,20,21
 446 204 446 204 481.5 171 c 128,-1,22
 517 138 517 138 582 138 c 0,23,24
 652 138 652 138 695.5 173 c 128,-1,25
 739 208 739 208 753 272 c 2,26,-1
 859 770 l 1,27,28
 828 741 828 741 763 741 c 0,29,30
 700 741 700 741 665.5 776 c 128,-1,31
 631 811 631 811 631 874 c 0,0,1
840 1021 m 0,32,33
 798 1021 798 1021 767.5 993.5 c 128,-1,34
 737 966 737 966 737 921 c 0,35,36
 737 892 737 892 754.5 873 c 128,-1,37
 772 854 772 854 802 854 c 0,38,39
 843 854 843 854 874.5 885.5 c 128,-1,40
 906 917 906 917 906 962 c 0,41,42
 906 989 906 989 888 1005 c 128,-1,43
 870 1021 870 1021 840 1021 c 0,32,33
EndSplineSet
EndChar

StartChar: uni0E08
Encoding: 3592 3592 131
Width: 1200
Flags: W
HStem: -10 148<692.338 880.565> 345 110<435.234 547.566> 623 130<450.272 597.616> 1001 148<589.251 943.53>
VStem: 323 109<456.03 604.448> 518 165<149.577 372.023> 601 147<475.202 618.546> 1028 169<587.148 918.747>
DStem2: 865.571 -10 1025.57 -10 0.207912 0.978148<167.549 811.366>
LayerCount: 3
Fore
SplineSet
323 488 m 0xfd
 323 599 406 753 586 753 c 0
 694 753 748 701 748 598 c 0xfb
 748 573 745 544 738 512 c 2
 689 283 l 2
 685 264 683 246 683 231 c 0
 683 170 714 138 777 138 c 0
 857 138 908 187 927 279 c 2
 1020 715 l 2
 1025 740 1028 764 1028 786 c 0
 1028 917 940 1001 786 1001 c 0
 637 1001 496 944 365 843 c 1
 290 912 l 1
 459 1067 635 1149 817 1149 c 0
 1062 1149 1197 1043 1197 849 c 0
 1197 815 1193 779 1185 740 c 2
 1087 279 l 2
 1046 87 933 -10 746 -10 c 0
 594 -10 518 56 518 187 c 0
 518 215 522 248 529 283 c 2
 548 373 l 1
 533 357 505 345 466 345 c 0
 383 345 323 398 323 488 c 0xfd
535 623 m 0
 473 623 432 574 432 521 c 0
 432 485 452 455 488 455 c 0
 588 455 601 543 601 563 c 0
 601 597 577 623 535 623 c 0
EndSplineSet
Validated: 1
Layer: 2
SplineSet
323 488 m 0,0,1
 323 531 323 531 339.5 576.5 c 128,-1,2
 356 622 356 622 386.5 662 c 128,-1,3
 417 702 417 702 469.5 727.5 c 128,-1,4
 522 753 522 753 586 753 c 0,5,6
 748 753 748 753 748 598 c 0,7,8
 748 558 748 558 738 512 c 2,9,-1
 689 283 l 2,10,11
 683 254 683 254 683 231 c 0,12,13
 683 138 683 138 777 138 c 0,14,15
 898 138 898 138 927 279 c 2,16,-1
 1020 715 l 2,17,18
 1028 755 1028 755 1028 786 c 0,19,20
 1028 885 1028 885 964 943 c 128,-1,21
 900 1001 900 1001 786 1001 c 0,22,23
 570 1001 570 1001 365 843 c 1,24,-1
 290 912 l 1,25,26
 548 1149 548 1149 817 1149 c 0,27,28
 1001 1149 1001 1149 1099 1071.5 c 128,-1,29
 1197 994 1197 994 1197 849 c 0,30,31
 1197 798 1197 798 1185 740 c 2,32,-1
 1087 279 l 2,33,34
 1025 -10 1025 -10 746 -10 c 0,35,36
 518 -10 518 -10 518 187 c 0,37,38
 518 228 518 228 529 283 c 2,39,-1
 548 373 l 1,40,41
 522 345 522 345 466 345 c 0,42,43
 402 345 402 345 362.5 383.5 c 128,-1,44
 323 422 323 422 323 488 c 0,0,1
535 623 m 0,45,46
 490 623 490 623 461 592.5 c 128,-1,47
 432 562 432 562 432 521 c 0,48,49
 432 493 432 493 447 474 c 128,-1,50
 462 455 462 455 488 455 c 0,51,52
 523 455 523 455 547.5 468.5 c 128,-1,53
 572 482 572 482 582.5 502 c 128,-1,54
 593 522 593 522 597 537 c 128,-1,55
 601 552 601 552 601 563 c 0,56,57
 601 589 601 589 583.5 606 c 128,-1,58
 566 623 566 623 535 623 c 0,45,46
EndSplineSet
EndChar

StartChar: uni0E09
Encoding: 3593 3593 132
Width: 1395
Flags: W
HStem: -10 113<1076.51 1220.96> 328 118<1199 1235.98> 362 111<370.062 481.383> 641 130<382.584 531.399> 1001 148<659.925 1021.93>
VStem: 260 106<474.296 623.554> 535 143<494.639 638.077> 981 145<107.067 219.225> 1105 168<584.859 924.122> 1245 113<119.175 315.994>
DStem2: 596 176 559 0 0.88151 0.472165<0 374.04> 942.624 -10 1092.72 -10 0.207912 0.978148<186.011 242.295 499.339 816.199>
AnchorPoint: "AboveBase" 1344 1227 basechar 0
LayerCount: 3
Fore
SplineSet
1358 280 m 0xde40
 1358 178 1306 -10 1101 -10 c 0
 1027 -10 981 31 981 129 c 0xdf40
 981 157 985 189 993 227 c 1
 559 0 l 1
 399 0 l 1
 482 391 l 1
 459 369 437 362 401 362 c 0
 306 362 260 418 260 506 c 0
 260 654 359 771 520 771 c 0
 626 771 678 713 678 604 c 0
 678 574 674 540 666 502 c 2
 596 176 l 1
 1031 409 l 1
 1096 715 l 2
 1102 742 1105 768 1105 791 c 0
 1105 921 1019 1001 847 1001 c 0
 714 1001 578 945 441 843 c 1
 366 912 l 1
 536 1069 707 1149 878 1149 c 0
 1137 1149 1273 1043 1273 849 c 0xbe80
 1273 815 1269 779 1261 740 c 2
 1199 446 l 1
 1304 434 1358 379 1358 280 c 0xde40
1165 103 m 0
 1214 103 1245 187 1245 242 c 0
 1245 292 1218 319 1165 328 c 1
 1128 156 l 2
 1127 150 1126 145 1126 141 c 0
 1126 116 1141 103 1165 103 c 0
469 641 m 0
 386 641 366 572 366 539 c 0
 366 503 387 473 422 473 c 0xbe
 522 473 535 562 535 581 c 0
 535 618 507 641 469 641 c 0
EndSplineSet
Validated: 1
Layer: 2
SplineSet
1358 280 m 0,0,1
 1358 246 1358 246 1351.5 210.5 c 128,-1,2
 1345 175 1345 175 1326.5 134.5 c 128,-1,3
 1308 94 1308 94 1280.5 62.5 c 128,-1,4
 1253 31 1253 31 1206.5 10.5 c 128,-1,5
 1160 -10 1160 -10 1101 -10 c 0,6,7
 981 -10 981 -10 981 129 c 0,8,9
 981 170 981 170 993 227 c 1,10,-1
 559 0 l 1,11,-1
 399 0 l 1,12,-1
 482 391 l 1,13,14
 452 362 452 362 401 362 c 0,15,16
 331 362 331 362 295.5 400 c 128,-1,17
 260 438 260 438 260 506 c 0,18,19
 260 620 260 620 331 695.5 c 128,-1,20
 402 771 402 771 520 771 c 0,21,22
 678 771 678 771 678 604 c 0,23,24
 678 559 678 559 666 502 c 2,25,-1
 596 176 l 1,26,-1
 1031 409 l 1,27,-1
 1096 715 l 2,28,29
 1105 756 1105 756 1105 791 c 0,30,31
 1105 890 1105 890 1039.5 945.5 c 128,-1,32
 974 1001 974 1001 847 1001 c 0,33,34
 653 1001 653 1001 441 843 c 1,35,-1
 366 912 l 1,36,37
 623 1149 623 1149 878 1149 c 0,38,39
 1072 1149 1072 1149 1172.5 1072 c 128,-1,40
 1273 995 1273 995 1273 849 c 0,41,42
 1273 798 1273 798 1261 740 c 2,43,-1
 1199 446 l 1,44,45
 1358 428 1358 428 1358 280 c 0,0,1
1165 103 m 0,46,47
 1199 103 1199 103 1222 149 c 128,-1,48
 1245 195 1245 195 1245 242 c 0,49,50
 1245 314 1245 314 1165 328 c 1,51,-1
 1128 156 l 2,52,53
 1126 144 1126 144 1126 141 c 0,54,55
 1126 103 1126 103 1165 103 c 0,46,47
469 641 m 0,56,57
 414 641 414 641 390 607.5 c 128,-1,58
 366 574 366 574 366 539 c 0,59,60
 366 511 366 511 381.5 492 c 128,-1,61
 397 473 397 473 422 473 c 0,62,63
 457 473 457 473 481.5 486.5 c 128,-1,64
 506 500 506 500 516.5 520.5 c 128,-1,65
 527 541 527 541 531 555.5 c 128,-1,66
 535 570 535 570 535 581 c 0,67,68
 535 608 535 608 516.5 624.5 c 128,-1,69
 498 641 498 641 469 641 c 0,56,57
EndSplineSet
EndChar

StartChar: uni0E0A
Encoding: 3594 3594 133
Width: 1390
Flags: W
HStem: 0 148<773 1079> 545 113<420.92 570.228> 823 102<557 585.476> 1001 148<588.667 823.818>
VStem: 292 126<661.124 807.053> 589 112<677.561 819.756> 1173 165<404.125 706.117> 1384 166<1072.64 1188>
DStem2: 582 0 741.542 0 0.207912 0.978148<184.477 733.435> 1047.54 0 1208 0 0.207912 0.978148<151.306 611.674>
LayerCount: 3
Fore
SplineSet
292 708 m 0
 292 890 441 1149 741 1149 c 0
 892 1149 997 1072 1037 921 c 1
 1245 972 1361 1052 1384 1163 c 1
 1390 1188 l 1
 1556 1188 l 1
 1550 1161 l 1
 1520 1020 1390 905 1197 858 c 1
 1284 818 1338 725 1338 635 c 0
 1338 619 1336 604 1333 589 c 2
 1208 0 l 1
 582 0 l 1
 704 575 l 2
 721 655 779 726 879 789 c 1
 879 917 819 1001 725 1001 c 0
 658 1001 588 968 557 925 c 1
 648 925 701 885 701 808 c 0
 701 656 600 545 451 545 c 0
 345 545 292 603 292 708 c 0
864 572 m 2
 773 148 l 1
 1079 148 l 1
 1171 578 l 2
 1172 585 1173 592 1173 599 c 0
 1173 663 1120 741 1033 768 c 1
 938 715 880 650 864 572 c 2
525 823 m 0
 430 823 418 744 418 716 c 0
 418 681 439 658 484 658 c 0
 568 658 589 729 589 762 c 0
 589 799 566 823 525 823 c 0
EndSplineSet
Validated: 1
Layer: 2
SplineSet
292 708 m 0,0,1
 292 764 292 764 309.5 824 c 128,-1,2
 327 884 327 884 364 942 c 128,-1,3
 401 1000 401 1000 453 1046 c 128,-1,4
 505 1092 505 1092 580 1120.5 c 128,-1,5
 655 1149 655 1149 741 1149 c 0,6,7
 855 1149 855 1149 931 1091 c 128,-1,8
 1007 1033 1007 1033 1037 921 c 1,9,10
 1350 998 1350 998 1384 1163 c 1,11,-1
 1390 1188 l 1,12,-1
 1556 1188 l 1,13,-1
 1550 1161 l 2,14,15
 1527 1054 1527 1054 1434 973.5 c 128,-1,16
 1341 893 1341 893 1197 858 c 1,17,18
 1261 829 1261 829 1299.5 766.5 c 128,-1,19
 1338 704 1338 704 1338 635 c 0,20,21
 1338 614 1338 614 1333 589 c 2,22,-1
 1208 0 l 1,23,-1
 582 0 l 1,24,-1
 704 575 l 2,25,26
 729 695 729 695 879 789 c 1,27,28
 879 885 879 885 837 943 c 128,-1,29
 795 1001 795 1001 725 1001 c 0,30,31
 675 1001 675 1001 628 979.5 c 128,-1,32
 581 958 581 958 557 925 c 1,33,34
 626 925 626 925 663.5 895 c 128,-1,35
 701 865 701 865 701 808 c 0,36,37
 701 693 701 693 631.5 619 c 128,-1,38
 562 545 562 545 451 545 c 0,39,40
 372 545 372 545 332 587 c 128,-1,41
 292 629 292 629 292 708 c 0,0,1
864 572 m 2,42,-1
 773 148 l 1,43,-1
 1079 148 l 1,44,-1
 1171 578 l 2,45,46
 1173 592 1173 592 1173 599 c 0,47,48
 1173 650 1173 650 1134.5 699.5 c 128,-1,49
 1096 749 1096 749 1033 768 c 1,50,51
 888 687 888 687 864 572 c 2,42,-1
525 823 m 0,52,53
 498 823 498 823 477.5 814.5 c 128,-1,54
 457 806 457 806 446 793.5 c 128,-1,55
 435 781 435 781 428.5 765.5 c 128,-1,56
 422 750 422 750 420 738.5 c 128,-1,57
 418 727 418 727 418 716 c 0,58,59
 418 658 418 658 484 658 c 0,60,61
 539 658 539 658 564 692.5 c 128,-1,62
 589 727 589 727 589 762 c 0,63,64
 589 790 589 790 572 806.5 c 128,-1,65
 555 823 555 823 525 823 c 0,52,53
EndSplineSet
EndChar

StartChar: uni0E0B
Encoding: 3595 3595 134
Width: 1390
Flags: W
HStem: 0 148<778 1084> 507 116<349.584 497.512> 790 104<423.398 516.455> 1130 20G<432 575 845.725 923.5>
VStem: 219 128<627.892 766.018> 519 111<643.068 786.873> 1179 165<527.214 708.908> 1388 166<1070.1 1188>
DStem2: 587 0 746.542 0 0.207912 0.978148<184.477 718.788> 1052.54 0 1213 0 0.207912 0.978148<151.306 620.593>
LayerCount: 3
Fore
SplineSet
458 790 m 0
 389 790 347 735 347 685 c 0
 347 648 375 623 422 623 c 0
 480 623 519 685 519 731 c 0
 519 764 499 790 458 790 c 0
630 771 m 0
 630 698 580 507 379 507 c 0
 287 507 219 577 219 677 c 0
 219 761 289 1041 575 1150 c 1
 575 1149 621 1113 711 1041 c 1
 876 1150 l 1
 971 1116 1026 1039 1041 921 c 1
 1245 957 1362 1040 1388 1163 c 1
 1394 1188 l 1
 1560 1188 l 1
 1554 1164 l 1
 1525 1024 1394 908 1201 861 c 1
 1289 821 1344 728 1344 637 c 0
 1344 622 1342 607 1339 592 c 2
 1213 0 l 1
 587 0 l 1
 709 575 l 2
 724 646 783 713 883 776 c 1
 889 807 893 834 893 858 c 0
 893 907 878 945 840 979 c 1
 677 881 l 1
 536 979 l 1
 501 958 475 927 457 886 c 1
 474 892 489 894 505 894 c 0
 580 894 630 849 630 771 c 0
1176 581 m 2
 1178 590 1179 599 1179 608 c 0
 1179 678 1123 744 1037 771 c 1
 942 718 886 653 869 575 c 2
 778 148 l 1
 1084 148 l 1
 1176 581 l 2
EndSplineSet
Validated: 1
Layer: 2
SplineSet
458 790 m 0,0,1
 409 790 409 790 378 757.5 c 128,-1,2
 347 725 347 725 347 685 c 0,3,4
 347 657 347 657 367 640 c 128,-1,5
 387 623 387 623 422 623 c 0,6,7
 463 623 463 623 491 658 c 128,-1,8
 519 693 519 693 519 731 c 0,9,10
 519 757 519 757 503.5 773.5 c 128,-1,11
 488 790 488 790 458 790 c 0,0,1
630 771 m 0,12,13
 630 746 630 746 623.5 715.5 c 128,-1,14
 617 685 617 685 599 647 c 128,-1,15
 581 609 581 609 554.5 578.5 c 128,-1,16
 528 548 528 548 482 527.5 c 128,-1,17
 436 507 436 507 379 507 c 0,18,19
 310 507 310 507 264.5 554.5 c 128,-1,20
 219 602 219 602 219 677 c 0,21,22
 219 706 219 706 228 748 c 128,-1,23
 237 790 237 790 262.5 848.5 c 128,-1,24
 288 907 288 907 325.5 961 c 128,-1,25
 363 1015 363 1015 428.5 1067 c 128,-1,26
 494 1119 494 1119 575 1150 c 1,27,-1
 711 1041 l 1,28,-1
 876 1150 l 1,29,30
 1018 1099 1018 1099 1041 921 c 1,31,32
 1348 975 1348 975 1388 1163 c 1,33,-1
 1394 1188 l 1,34,-1
 1560 1188 l 1,35,-1
 1554 1164 l 1,36,37
 1532 1058 1532 1058 1438.5 977 c 128,-1,38
 1345 896 1345 896 1201 861 c 1,39,40
 1266 831 1266 831 1305 768.5 c 128,-1,41
 1344 706 1344 706 1344 637 c 0,42,43
 1344 617 1344 617 1339 592 c 2,44,-1
 1213 0 l 1,45,-1
 587 0 l 1,46,-1
 709 575 l 2,47,48
 731 680 731 680 883 776 c 1,49,50
 893 828 893 828 893 858 c 0,51,52
 893 932 893 932 840 979 c 1,53,-1
 677 881 l 1,54,-1
 536 979 l 1,55,56
 484 948 484 948 457 886 c 1,57,58
 480 894 480 894 505 894 c 0,59,60
 562 894 562 894 596 861.5 c 128,-1,61
 630 829 630 829 630 771 c 0,12,13
1176 581 m 2,62,63
 1179 594.5 1179 594.5 1179 608 c 0,64,65
 1179 661 1179 661 1140 706 c 128,-1,66
 1101 751 1101 751 1037 771 c 1,67,68
 894 691 894 691 869 575 c 2,69,-1
 778 148 l 1,70,-1
 1084 148 l 1,71,-1
 1176 581 l 2,62,63
EndSplineSet
EndChar

StartChar: uni0E0C
Encoding: 3596 3596 135
Width: 1750
Flags: W
HStem: -11 116<375.991 518.03 872.129 964.249> 273 124<430.101 538.598> 328 118<911.712 1004> 1001 148<643.11 1001.47>
VStem: 234 138<107.824 254.177> 541 115<126.929 308.599> 760 110<110.474 286.709> 1079 167<548.727 927.3>
DStem2: 932.102 -11 1083.01 -11 0.207912 0.978148<116.342 291.05 460.7 800.645> 1172 409 1137 243 0.827399 -0.561614<64.269 428.72> 1492.25 -11 1652.66 -11 0.207912 0.978148<191.178 1175.76>
LayerCount: 3
Fore
SplineSet
1065 657 m 2xbf
 1074 701 1079 742 1079 778 c 0
 1079 922 1003 1001 841 1001 c 0
 695 1001 573 940 475 825 c 1
 551 808 602 754 630 663 c 1
 523 592 458 505 437 403 c 1
 429 369 l 1
 449 387 476 397 511 397 c 0xdf
 613 397 656 347 656 270 c 0
 656 83 533 -11 392 -11 c 0
 286 -11 234 48 234 157 c 0
 234 187 238 221 246 258 c 2
 277 403 l 2
 299 508 361 598 463 671 c 1
 448 730 391 770 290 792 c 1
 446 1030 640 1149 872 1149 c 0
 1118 1149 1246 1039 1246 825 c 0
 1246 779 1240 728 1228 673 c 2
 1172 409 l 1
 1532 176 l 1
 1737 1139 l 1
 1897 1139 l 1
 1655 0 l 1
 1495 0 l 1
 1137 243 l 1
 1116 146 l 2
 1096 52 1024 -10 924 -10 c 0
 818 -10 760 41 760 138 c 0
 760 204 793 427 1020 446 c 1
 1065 657 l 2xbf
1004 328 m 1xbf
 897 328 870 213 870 161 c 0
 870 127 883 109 909 109 c 0
 941 109 962 130 971 172 c 2
 1004 328 l 1xbf
475 273 m 0xdf
 423 273 372 231 372 171 c 0
 372 135 393 105 427 105 c 0
 528 105 541 192 541 212 c 0
 541 245 519 273 475 273 c 0xdf
EndSplineSet
Validated: 1
Layer: 2
SplineSet
1065 657 m 2,0,1
 1079 725 1079 725 1079 778 c 0,2,3
 1079 1001 1079 1001 841 1001 c 0,4,5
 625 1001 625 1001 475 825 c 1,6,7
 588 800 588 800 630 663 c 1,8,9
 468 556 468 556 437 403 c 1,10,-1
 429 369 l 1,11,12
 460 397 460 397 511 397 c 0,13,14
 656 397 656 397 656 270 c 0,15,16
 656 136 656 136 580 62.5 c 128,-1,17
 504 -11 504 -11 392 -11 c 0,18,19
 234 -11 234 -11 234 157 c 0,20,21
 234 203 234 203 246 258 c 2,22,-1
 277 403 l 2,23,24
 310 562 310 562 463 671 c 1,25,26
 441 759 441 759 290 792 c 1,27,28
 524 1149 524 1149 872 1149 c 0,29,30
 1057 1149 1057 1149 1151.5 1067 c 128,-1,31
 1246 985 1246 985 1246 825 c 0,32,33
 1246 756 1246 756 1228 673 c 2,34,-1
 1172 409 l 1,35,-1
 1532 176 l 1,36,-1
 1737 1139 l 1,37,-1
 1897 1139 l 1,38,-1
 1655 0 l 1,39,-1
 1495 0 l 1,40,-1
 1137 243 l 1,41,-1
 1116 146 l 2,42,43
 1101 75 1101 75 1049.5 32.5 c 128,-1,44
 998 -10 998 -10 924 -10 c 0,45,46
 844 -10 844 -10 802 27.5 c 128,-1,47
 760 65 760 65 760 138 c 0,48,49
 760 163 760 163 765 194 c 128,-1,50
 770 225 770 225 786.5 269 c 128,-1,51
 803 313 803 313 830 349 c 128,-1,52
 857 385 857 385 906.5 413 c 128,-1,53
 956 441 956 441 1020 446 c 1,54,-1
 1065 657 l 2,0,1
1004 328 m 1,55,56
 966 328 966 328 938 309.5 c 128,-1,57
 910 291 910 291 896.5 263 c 128,-1,58
 883 235 883 235 876.5 209.5 c 128,-1,59
 870 184 870 184 870 161 c 0,60,61
 870 109 870 109 909 109 c 0,62,63
 958 109 958 109 971 172 c 2,64,-1
 1004 328 l 1,55,56
475 273 m 0,65,66
 434 273 434 273 403 244 c 128,-1,67
 372 215 372 215 372 171 c 0,68,69
 372 143 372 143 387 124 c 128,-1,70
 402 105 402 105 427 105 c 0,71,72
 462 105 462 105 487 118.5 c 128,-1,73
 512 132 512 132 522.5 152 c 128,-1,74
 533 172 533 172 537 186.5 c 128,-1,75
 541 201 541 201 541 212 c 0,76,77
 541 238 541 238 524 255.5 c 128,-1,78
 507 273 507 273 475 273 c 0,65,66
EndSplineSet
EndChar

StartChar: uni0E0D
Encoding: 3597 3597 136
Width: 1745
Flags: W
HStem: -466 118<1097.06 1311.42> -143 82<966.66 1098> -11 116<343.223 484.554> 0 148<1084 1494> 273 124<398.214 506.562> 1001 148<611.11 965.454>
VStem: 202 137<107.79 254.88> 509 113<128.124 269.799> 844 106<-284.708 -155.551> 1046 168<552.148 919.579> 1100 91<-275.885 -145.04> 1485 116<-156.018 -65>
DStem2: 793.949 -466 953.49 -466 0.207912 0.978148<660.888 1258.85> 1363.49 -466 1523.95 -466 0.207912 0.978148<627.717 1640.93>
LayerCount: 3
Fore
SplineSet
622 265 m 0xdfd0
 622 169 570 -11 360 -11 c 0xefd0
 254 -11 202 48 202 157 c 0
 202 187 206 221 214 258 c 2
 245 403 l 2
 267 508 329 598 431 671 c 1
 416 730 359 770 258 792 c 1
 414 1030 608 1149 840 1149 c 0
 1087 1149 1214 1039 1214 825 c 0
 1214 779 1208 729 1196 673 c 2
 1084 148 l 1
 1494 148 l 1
 1705 1139 l 1
 1865 1139 l 1
 1623 0 l 1
 893 0 l 1
 1033 657 l 2
 1042 698 1046 735 1046 769 c 0
 1046 919 962 1001 809 1001 c 0
 663 1001 541 940 443 825 c 1
 519 808 570 754 598 663 c 1
 491 592 426 505 405 403 c 1
 397 369 l 1
 417 387 444 397 479 397 c 0
 579 397 622 348 622 265 c 0xdfd0
443 273 m 0
 376 273 339 221 339 168 c 0
 339 133 358 105 395 105 c 0
 486 105 509 186 509 215 c 0
 509 251 483 273 443 273 c 0
844 -279 m 0
 844 -221 887 -61 1058 -61 c 0
 1140 -61 1191 -110 1191 -180 c 0xcfb0
 1191 -206 1181 -298 1094 -345 c 1
 1112 -347 1130 -348 1147 -348 c 0
 1303 -348 1416 -253 1485 -65 c 1
 1601 -65 l 1
 1538 -322 1363 -466 1107 -466 c 0
 941 -466 844 -378 844 -279 c 0
1043 -143 m 0
 974 -143 950 -195 950 -235 c 0
 950 -266 969 -287 1011 -287 c 0
 1082 -287 1100 -226 1100 -197 c 0
 1100 -163 1075 -143 1043 -143 c 0
EndSplineSet
Validated: 1
Layer: 2
SplineSet
622 265 m 0,0,1
 622 224 622 224 610 180.5 c 128,-1,2
 598 137 598 137 570.5 92 c 128,-1,3
 543 47 543 47 488.5 18 c 128,-1,4
 434 -11 434 -11 360 -11 c 0,5,6
 202 -11 202 -11 202 157 c 0,7,8
 202 203 202 203 214 258 c 2,9,-1
 245 403 l 2,10,11
 278 562 278 562 431 671 c 1,12,13
 409 759 409 759 258 792 c 1,14,15
 492 1149 492 1149 840 1149 c 0,16,17
 1025 1149 1025 1149 1119.5 1067 c 128,-1,18
 1214 985 1214 985 1214 825 c 0,19,20
 1214 757 1214 757 1196 673 c 2,21,-1
 1084 148 l 1,22,-1
 1494 148 l 1,23,-1
 1705 1139 l 1,24,-1
 1865 1139 l 1,25,-1
 1623 0 l 1,26,-1
 893 0 l 1,27,-1
 1033 657 l 2,28,29
 1046 716 1046 716 1046 769 c 0,30,31
 1046 881 1046 881 985 941 c 128,-1,32
 924 1001 924 1001 809 1001 c 0,33,34
 593 1001 593 1001 443 825 c 1,35,36
 556 800 556 800 598 663 c 1,37,38
 436 556 436 556 405 403 c 1,39,-1
 397 369 l 1,40,41
 428 397 428 397 479 397 c 0,42,43
 622 397 622 397 622 265 c 0,0,1
443 273 m 0,44,45
 395 273 395 273 367 241.5 c 128,-1,46
 339 210 339 210 339 168 c 0,47,48
 339 141 339 141 353.5 123 c 128,-1,49
 368 105 368 105 395 105 c 0,50,51
 454 105 454 105 481.5 143 c 128,-1,52
 509 181 509 181 509 215 c 0,53,54
 509 242 509 242 491 257.5 c 128,-1,55
 473 273 473 273 443 273 c 0,44,45
844 -279 m 0,56,57
 844 -259 844 -259 849.5 -234 c 128,-1,58
 855 -209 855 -209 870.5 -177.5 c 128,-1,59
 886 -146 886 -146 908.5 -121 c 128,-1,60
 931 -96 931 -96 970 -78.5 c 128,-1,61
 1009 -61 1009 -61 1058 -61 c 0,62,63
 1119 -61 1119 -61 1155 -94 c 128,-1,64
 1191 -127 1191 -127 1191 -180 c 0,65,66
 1191 -194 1191 -194 1187.5 -211 c 128,-1,67
 1184 -228 1184 -228 1175.5 -253.5 c 128,-1,68
 1167 -279 1167 -279 1145.5 -304 c 128,-1,69
 1124 -329 1124 -329 1094 -345 c 1,70,71
 1121 -348 1121 -348 1147 -348 c 0,72,73
 1381 -348 1381 -348 1485 -65 c 1,74,-1
 1601 -65 l 1,75,76
 1554 -258 1554 -258 1426.5 -362 c 128,-1,77
 1299 -466 1299 -466 1107 -466 c 0,78,79
 987 -466 987 -466 915.5 -411.5 c 128,-1,80
 844 -357 844 -357 844 -279 c 0,56,57
1043 -143 m 0,81,82
 996 -143 996 -143 973 -171 c 128,-1,83
 950 -199 950 -199 950 -235 c 0,84,85
 950 -287 950 -287 1011 -287 c 0,86,87
 1058 -287 1058 -287 1079 -257.5 c 128,-1,88
 1100 -228 1100 -228 1100 -197 c 0,89,90
 1100 -172 1100 -172 1084 -157.5 c 128,-1,91
 1068 -143 1068 -143 1043 -143 c 0,81,82
EndSplineSet
Substitution2: "'ccmp' Pali-Sanskrit Descender Removal" uni0E0D.descless
Substitution2: "Thai Descender Removal Single Substitution" uni0E0D.descless
EndChar

StartChar: uni0E0E
Encoding: 3598 3598 137
Width: 1375
Flags: W
HStem: -413 125<426.092 606.58> -112 104<487.763 701.207> -10 122<225.514 366.713> 280 119<239.921 388.683> 1002 148<792.324 1134.76>
VStem: 111 110<113.776 260.172> 279 146<-336.5 -172.486> 1217 167<552.531 920.984>
DStem2: 242.568 -413 402.341 -413 0.207912 0.978148<800.493 1023.16> 976.638 -413 1136.36 -413 0.207912 0.978148<208.557 1203.65>
AnchorPoint: "BelowBase" 1224 -453 basechar 0
LayerCount: 3
Fore
SplineSet
279 -299 m 0xbf
 279 -129 499 -8 645 -8 c 0xdf
 690 -8 731 -18 767 -34 c 1
 897 140 l 1
 995 105 l 1
 866 -76 l 1
 923 -103 975 -148 1020 -209 c 1
 1204 658 l 2
 1212 698 1217 735 1217 768 c 0
 1217 917 1134 1002 980 1002 c 0
 849 1002 727 943 615 826 c 1
 694 801 746 747 769 664 c 1
 662 591 597 505 576 404 c 2
 545 259 l 2
 508 84 418 -10 283 -10 c 0
 173 -10 111 39 111 136 c 0
 111 276 211 399 331 399 c 0
 368 399 394 389 409 370 c 1
 416 404 l 2
 440 516 502 603 602 672 c 1
 577 731 520 771 430 793 c 1
 584 1031 778 1150 1011 1150 c 0
 1248 1150 1384 1036 1384 818 c 0
 1384 774 1378 726 1367 674 c 2
 1137 -410 l 1
 977 -410 l 1
 933 -319 873 -248 797 -196 c 1
 697 -339 578 -413 442 -413 c 0
 334 -413 279 -374 279 -299 c 0xbf
610 -112 m 0
 540 -112 425 -176 425 -244 c 0
 425 -275 456 -288 486 -288 c 0
 555 -288 661 -224 702 -147 c 1
 675 -123 644 -112 610 -112 c 0
325 280 m 0
 273 280 221 239 221 181 c 0
 221 143 245 112 277 112 c 0xbf
 370 112 390 191 390 223 c 0
 390 256 370 280 325 280 c 0
EndSplineSet
Validated: 1
Layer: 2
SplineSet
279 -299 m 0,0,1
 279 -238 279 -238 315.5 -182 c 128,-1,2
 352 -126 352 -126 407.5 -89 c 128,-1,3
 463 -52 463 -52 526.5 -30 c 128,-1,4
 590 -8 590 -8 645 -8 c 0,5,6
 708 -8 708 -8 767 -34 c 1,7,-1
 897 140 l 1,8,-1
 995 105 l 1,9,-1
 866 -76 l 1,10,11
 952 -117 952 -117 1020 -209 c 1,12,-1
 1204 658 l 2,13,14
 1217 723 1217 723 1217 768 c 0,15,16
 1217 880 1217 880 1156 941 c 128,-1,17
 1095 1002 1095 1002 980 1002 c 0,18,19
 783 1002 783 1002 615 826 c 1,20,21
 735 788 735 788 769 664 c 1,22,23
 607 554 607 554 576 404 c 2,24,-1
 545 259 l 2,25,26
 517 127 517 127 450.5 58.5 c 128,-1,27
 384 -10 384 -10 283 -10 c 0,28,29
 200 -10 200 -10 155.5 27 c 128,-1,30
 111 64 111 64 111 136 c 0,31,32
 111 242 111 242 176 320.5 c 128,-1,33
 241 399 241 399 331 399 c 0,34,35
 386 399 386 399 409 370 c 1,36,-1
 416 404 l 2,37,38
 451 568 451 568 602 672 c 1,39,40
 565 760 565 760 430 793 c 1,41,42
 661 1150 661 1150 1011 1150 c 0,43,44
 1190 1150 1190 1150 1287 1065 c 128,-1,45
 1384 980 1384 980 1384 818 c 0,46,47
 1384 754 1384 754 1367 674 c 2,48,-1
 1137 -410 l 1,49,-1
 977 -410 l 1,50,51
 911 -274 911 -274 797 -196 c 1,52,53
 645 -413 645 -413 442 -413 c 0,54,55
 279 -413 279 -413 279 -299 c 0,0,1
610 -112 m 0,56,57
 553 -112 553 -112 489 -154 c 128,-1,58
 425 -196 425 -196 425 -244 c 0,59,60
 425 -266 425 -266 443 -277 c 128,-1,61
 461 -288 461 -288 486 -288 c 0,62,63
 539 -288 539 -288 605.5 -245.5 c 128,-1,64
 672 -203 672 -203 702 -147 c 1,65,66
 663 -112 663 -112 610 -112 c 0,56,57
325 280 m 0,67,68
 284 280 284 280 252.5 251.5 c 128,-1,69
 221 223 221 223 221 181 c 0,70,71
 221 152 221 152 237 132 c 128,-1,72
 253 112 253 112 277 112 c 0,73,74
 310 112 310 112 333.5 124.5 c 128,-1,75
 357 137 357 137 368.5 156 c 128,-1,76
 380 175 380 175 385 192 c 128,-1,77
 390 209 390 209 390 223 c 0,78,79
 390 249 390 249 373.5 264.5 c 128,-1,80
 357 280 357 280 325 280 c 0,67,68
EndSplineSet
EndChar

StartChar: uni0E0F
Encoding: 3599 3599 138
Width: 1375
Flags: W
HStem: -413 125<276.134 466.684> -121 112<339.936 556.064> -10 122<226.737 368.759> 280 120<240.812 390.53> 1002 148<792.63 1130.39>
VStem: 117 106<114.806 261.992> 137 138<-336.5 -181.312> 1216 168<552.531 919.297>
DStem2: 242.568 -413 402.341 -413 0.207912 0.978148<800.493 1021.92> 622 -34 721 -76 0.580387 0.814341<15.7667 217.146> 976.638 -413 1136.36 -413 0.207912 0.978148<208.557 1201.44>
AnchorPoint: "BelowBase" 1224 -453 basechar 0
LayerCount: 3
Fore
SplineSet
137 -300 m 0xbb
 137 -146 323 -9 513 -9 c 0xdb
 558 -9 594 -18 622 -34 c 1
 752 140 l 1
 850 105 l 1
 721 -76 l 1
 748 -97 768 -124 779 -156 c 1
 920 -38 l 1
 1020 -209 l 1
 1204 658 l 2
 1212 696 1216 732 1216 766 c 0
 1216 910 1139 1002 980 1002 c 0
 846 1002 724 941 615 826 c 1
 705 795 757 741 769 664 c 1
 664 601 599 514 576 404 c 2
 545 259 l 2
 508 83 420 -10 285 -10 c 0
 175 -10 117 42 117 144 c 0xbd
 117 313 241 400 316 400 c 0
 362 400 394 393 409 370 c 1
 416 404 l 2
 440 518 503 607 602 672 c 1
 568 743 510 783 430 793 c 1
 589 1030 782 1150 1011 1150 c 0
 1257 1150 1384 1038 1384 824 c 0
 1384 778 1379 728 1367 674 c 2
 1137 -410 l 1
 977 -410 l 1
 874 -252 l 1
 735 -362 l 1
 715 -287 685 -234 646 -203 c 1
 578 -328 432 -413 297 -413 c 0
 188 -413 137 -373 137 -300 c 0xbb
472 -121 m 0
 360 -121 275 -204 275 -256 c 0
 275 -285 312 -288 336 -288 c 0
 427 -288 529 -211 557 -147 c 1
 533 -130 505 -121 472 -121 c 0
327 280 m 0
 260 280 223 230 223 176 c 0
 223 140 240 112 279 112 c 0xbd
 377 112 392 198 392 224 c 0
 392 258 371 280 327 280 c 0
EndSplineSet
Validated: 1
Layer: 2
SplineSet
137 -300 m 0,0,1
 137 -186 137 -186 253 -97.5 c 128,-1,2
 369 -9 369 -9 513 -9 c 0,3,4
 578 -9 578 -9 622 -34 c 1,5,-1
 752 140 l 1,6,-1
 850 105 l 1,7,-1
 721 -76 l 1,8,9
 763 -108 763 -108 779 -156 c 1,10,-1
 920 -38 l 1,11,-1
 1020 -209 l 1,12,-1
 1204 658 l 2,13,14
 1216 715 1216 715 1216 766 c 0,15,16
 1216 877 1216 877 1156.5 939.5 c 128,-1,17
 1097 1002 1097 1002 980 1002 c 0,18,19
 782 1002 782 1002 615 826 c 1,20,21
 751 779 751 779 769 664 c 1,22,23
 610 569 610 569 576 404 c 2,24,-1
 545 259 l 2,25,26
 488 -10 488 -10 285 -10 c 0,27,28
 117 -10 117 -10 117 144 c 0,29,30
 117 204 117 204 137.5 254.5 c 128,-1,31
 158 305 158 305 189 335.5 c 128,-1,32
 220 366 220 366 253.5 383 c 128,-1,33
 287 400 287 400 316 400 c 0,34,35
 389 400 389 400 409 370 c 1,36,-1
 416 404 l 2,37,38
 452 573 452 573 602 672 c 1,39,40
 551 778 551 778 430 793 c 1,41,42
 670 1150 670 1150 1011 1150 c 0,43,44
 1195 1150 1195 1150 1289.5 1067.5 c 128,-1,45
 1384 985 1384 985 1384 824 c 0,46,47
 1384 750 1384 750 1367 674 c 2,48,-1
 1137 -410 l 1,49,-1
 977 -410 l 1,50,-1
 874 -252 l 1,51,-1
 735 -362 l 1,52,53
 705 -250 705 -250 646 -203 c 1,54,55
 595 -296 595 -296 497 -354.5 c 128,-1,56
 399 -413 399 -413 297 -413 c 0,57,58
 137 -413 137 -413 137 -300 c 0,0,1
472 -121 m 0,59,60
 394 -121 394 -121 334.5 -167 c 128,-1,61
 275 -213 275 -213 275 -256 c 0,62,63
 275 -288 275 -288 336 -288 c 0,64,65
 401 -288 401 -288 468 -243 c 128,-1,66
 535 -198 535 -198 557 -147 c 1,67,68
 520 -121 520 -121 472 -121 c 0,59,60
327 280 m 0,69,70
 279 280 279 280 251 249.5 c 128,-1,71
 223 219 223 219 223 176 c 0,72,73
 223 147 223 147 237 129.5 c 128,-1,74
 251 112 251 112 279 112 c 0,75,76
 313 112 313 112 337.5 125.5 c 128,-1,77
 362 139 362 139 372.5 159 c 128,-1,78
 383 179 383 179 387.5 195 c 128,-1,79
 392 211 392 211 392 224 c 0,80,81
 392 280 392 280 327 280 c 0,69,70
EndSplineSet
EndChar

